<svg width="24" height="24" viewBox="0 0 24 24" fill="none" xmlns="http://www.w3.org/2000/svg">
<rect width="24" height="24" rx="6" fill="#BBA473" fill-opacity="0.26"/>
<path d="M9.87333 5.3335L7.46 7.7535" stroke="#BBA473" stroke-miterlimit="10" stroke-linecap="round" stroke-linejoin="round"/>
<path d="M14.1267 5.3335L16.54 7.7535" stroke="#BBA473" stroke-miterlimit="10" stroke-linecap="round" stroke-linejoin="round"/>
<path d="M5.33333 9.23324C5.33333 7.9999 5.99333 7.8999 6.81333 7.8999H17.1867C18.0067 7.8999 18.6667 7.9999 18.6667 9.23324C18.6667 10.6666 18.0067 10.5666 17.1867 10.5666H6.81333C5.99333 10.5666 5.33333 10.6666 5.33333 9.23324Z" stroke="#BBA473"/>
<path d="M10.5067 13.3335V15.7002" stroke="#BBA473" stroke-linecap="round"/>
<path d="M13.5733 13.3335V15.7002" stroke="#BBA473" stroke-linecap="round"/>
<path d="M6.33333 10.6665L7.27333 16.4265C7.48667 17.7198 8 18.6665 9.90667 18.6665H13.9267C16 18.6665 16.3067 17.7598 16.5467 16.5065L17.6667 10.6665" stroke="#BBA473" stroke-linecap="round"/>
</svg>
