<svg width="24" height="24" viewBox="0 0 24 24" fill="none" xmlns="http://www.w3.org/2000/svg">
<path d="M15.2215 5.205C14.5018 6.0446 13.35 6.70705 12.1984 6.61233C12.0544 5.4771 12.6182 4.27069 13.278 3.52558C13.9977 2.66233 15.2575 2.0473 16.2772 2C16.3971 3.18265 15.9292 4.34164 15.2215 5.205ZM16.2653 6.83713C14.5977 6.74253 13.1702 7.77133 12.3784 7.77133C11.5748 7.77133 10.363 6.88443 9.04345 6.90808C7.32804 6.93173 5.73246 7.88958 4.85671 9.41528C3.05722 12.4666 4.3889 16.9844 6.1283 19.4679C6.98006 20.6979 7.99976 22.0461 9.34332 21.9988C10.615 21.9515 11.1188 21.1828 12.6544 21.1828C14.2019 21.1828 14.6458 21.9988 15.9894 21.9751C17.3809 21.9515 18.2567 20.7453 19.1085 19.5152C20.0801 18.1197 20.476 16.7596 20.5 16.6886C20.476 16.665 17.8129 15.6599 17.7889 12.6321C17.7649 10.1013 19.8883 8.89496 19.9842 8.82401C18.7845 7.07364 16.9131 6.88443 16.2653 6.83713Z" fill="#BBA473"/>
</svg>
