<svg width="361" height="300" viewBox="0 0 361 300" fill="none" xmlns="http://www.w3.org/2000/svg">
<g clip-path="url(#clip0_56974_19413)">
<path d="M265.393 202.879C264.88 203.348 264.252 203.637 263.501 203.738L263.487 204.092C263.479 204.273 263.407 204.424 263.263 204.554C263.126 204.684 262.967 204.742 262.786 204.735C262.606 204.728 262.461 204.655 262.346 204.518C262.23 204.381 262.18 204.215 262.187 204.034L262.202 203.724C261.544 203.608 260.974 203.37 260.512 203.016C260.043 202.662 259.725 202.258 259.537 201.796C259.451 201.579 259.415 201.399 259.422 201.254C259.429 201.066 259.508 200.907 259.653 200.777C259.797 200.648 259.963 200.59 260.165 200.597C260.324 200.604 260.461 200.662 260.577 200.756C260.693 200.857 260.779 200.98 260.822 201.131C260.909 201.449 261.09 201.709 261.357 201.926C261.624 202.142 261.942 202.294 262.288 202.388L262.498 199.384C261.732 199.095 261.14 198.734 260.714 198.322C260.288 197.903 260.093 197.376 260.129 196.726C260.165 196.069 260.418 195.535 260.887 195.109C261.357 194.69 261.992 194.444 262.786 194.379L262.801 194.083C262.808 193.903 262.88 193.751 263.017 193.621C263.147 193.491 263.299 193.433 263.472 193.441C263.653 193.448 263.804 193.527 263.927 193.664C264.05 193.809 264.108 193.968 264.1 194.148L264.086 194.43C264.844 194.545 265.422 194.791 265.833 195.166C266.245 195.542 266.432 196.004 266.404 196.546C266.396 196.755 266.317 196.921 266.18 197.051C266.043 197.181 265.876 197.239 265.689 197.232C265.523 197.225 265.378 197.16 265.27 197.051C265.162 196.936 265.097 196.798 265.09 196.625C265.075 196.43 264.967 196.242 264.772 196.084C264.577 195.917 264.317 195.795 263.992 195.715L263.797 198.38C265.465 199.015 266.266 199.947 266.209 201.167C266.172 201.832 265.898 202.402 265.393 202.872V202.879ZM261.725 197.362C261.905 197.557 262.194 197.744 262.599 197.932L262.729 195.672C262.331 195.715 262.028 195.831 261.819 196.011C261.609 196.192 261.494 196.423 261.48 196.705C261.465 196.95 261.552 197.167 261.725 197.355V197.362ZM264.497 201.976C264.736 201.745 264.866 201.478 264.88 201.182C264.895 200.936 264.808 200.705 264.635 200.489C264.461 200.265 264.151 200.055 263.71 199.86L263.566 202.446C263.949 202.373 264.259 202.215 264.497 201.983V201.976Z" fill="#F5F5F5" fill-opacity="0.3"/>
<path d="M255.278 191.577C259.306 187.143 266.158 186.818 270.591 190.848C275.024 194.878 275.349 201.731 271.32 206.165C274.49 201.695 273.826 195.556 269.768 191.873C265.335 187.844 258.483 188.176 254.454 192.603C254.707 192.249 254.982 191.91 255.27 191.585L255.278 191.577Z" fill="#E0E0E0" fill-opacity="0.7"/>
<path d="M55.6951 240.401C55.6806 240.055 54.5254 205.919 48.9733 200.518C43.5727 195.268 37.3779 200.323 37.118 200.539L36.5621 199.875C36.6343 199.817 43.6305 194.105 49.587 199.896C55.3918 205.536 56.5254 238.957 56.5687 240.38L55.7023 240.409L55.6951 240.401Z" fill="#E0E0E0" fill-opacity="0.7"/>
<path d="M56.1716 247.117C56.1283 246.706 52.3739 206.129 67.1966 189.122L67.8536 189.693C53.2836 206.417 57.0019 246.626 57.0452 247.031L56.1788 247.117H56.1716Z" fill="#E0E0E0" fill-opacity="0.7"/>
<path d="M55.6229 242.821L54.7565 242.763C54.7853 242.301 57.6589 196.632 46.7856 186.631L47.3704 185.988C58.5397 196.264 55.7456 240.921 55.6156 242.813L55.6229 242.821Z" fill="#E0E0E0" fill-opacity="0.7"/>
<path d="M57.038 242.799H56.1716C56.1789 241.535 56.5326 211.942 64.9367 207.125C66.8067 206.056 68.6333 205.876 70.3734 206.598C75.4562 208.699 77.976 217.748 78.0771 218.131L77.2396 218.362C77.2179 218.275 74.727 209.342 70.0413 207.407C68.5612 206.793 66.9944 206.959 65.3699 207.891C57.3918 212.462 57.0453 242.51 57.0453 242.813L57.038 242.799Z" fill="#E0E0E0" fill-opacity="0.7"/>
<path d="M53.7673 242.821L52.9009 242.77C52.9154 242.539 54.1717 219.387 47.9191 211.227C46.4029 209.248 44.764 208.309 43.024 208.432C38.9302 208.721 35.5007 214.708 35.4646 214.773L34.7065 214.347C34.8582 214.087 38.4032 207.891 42.959 207.573C45.0023 207.428 46.9011 208.483 48.605 210.707C55.0453 219.12 53.8179 241.86 53.7601 242.828L53.7673 242.821Z" fill="#E0E0E0" fill-opacity="0.7"/>
<path d="M55.1392 245.969C54.9659 243.723 51.0526 190.862 57.9405 181.547L58.6409 182.06C51.9479 191.115 55.9622 245.355 56.0056 245.897L55.1392 245.962V245.969Z" fill="#E0E0E0" fill-opacity="0.7"/>
<path d="M72.2433 211.949C72.2433 211.949 68.1135 213.473 69.3409 217.069C70.5683 220.665 83.6293 226.58 83.6293 226.58C83.6293 226.58 89.102 221.568 84.0769 213.408C79.0518 205.255 72.3516 209.371 72.2433 211.949Z" fill="#BBA473"/>
<path d="M54.2872 205.103C54.2872 205.103 58.6842 204.915 58.9369 208.714C59.1896 212.505 49.4065 222.998 49.4065 222.998C49.4065 222.998 42.4247 220.478 43.9265 211.01C45.4283 201.55 53.197 202.771 54.2872 205.103Z" fill="#BBA473"/>
<path d="M50.5617 186.956C50.5617 186.956 53.493 186.638 53.2547 184.854C53.0165 183.071 41.8544 178.47 35.2697 185.901C35.2697 185.901 39.4862 193.144 45.5871 193.246C51.6808 193.339 50.5617 186.956 50.5617 186.956Z" fill="#BBA473"/>
<path d="M56.0272 182.616C56.0272 182.616 53.3702 183.901 52.6266 182.262C51.8829 180.622 58.9224 170.816 68.4456 173.639C68.4456 173.639 68.6983 182.023 63.5721 185.324C58.4459 188.631 56.02 182.616 56.02 182.616H56.0272Z" fill="#BBA473"/>
<path d="M42.1432 210.505C42.1432 210.505 44.1648 208.873 41.9843 208.071C39.7967 207.277 29.0822 207.501 28.9739 218.116C28.9739 218.116 41.4573 220.189 43.0023 216.145C44.5474 212.101 42.1504 210.498 42.1504 210.498L42.1432 210.505Z" fill="#BBA473"/>
<path d="M67.5936 186.688C67.5936 186.688 65.572 185.056 67.7525 184.255C69.9401 183.46 80.6546 183.684 80.7629 194.3C80.7629 194.3 68.2795 196.372 66.7344 192.328C65.1894 188.284 67.5864 186.681 67.5864 186.681L67.5936 186.688Z" fill="#BBA473"/>
<path d="M60.9946 195.246C60.9946 195.246 60.8141 193.26 62.4169 194.04C64.0198 194.82 69.6081 200.85 63.8176 206.569C63.8176 206.569 56.02 200.792 57.4279 197.788C58.8358 194.784 60.9946 195.253 60.9946 195.253V195.246Z" fill="#BBA473"/>
<path d="M40.3309 198.077C40.3309 198.077 41.5439 196.488 39.7677 196.293C37.9988 196.098 30.0568 198.214 31.9052 206.143C31.9052 206.143 41.58 205.414 41.9915 202.121C42.403 198.828 40.3309 198.069 40.3309 198.069V198.077Z" fill="#BBA473"/>
<path d="M65.1749 258.116H45.6593L40.4681 234.169H69.8679L65.1749 258.116Z" fill="#CCC1AD"/>
<path d="M71.5647 233.823H38.6992V240.712H71.5647V233.823Z" fill="#E6E6E6" fill-opacity="0.2"/>
<path d="M311.42 32.2074H238.809V182.471H311.42V32.2074Z" fill="#D6CFC0"/>
<path d="M307.052 36.5765H243.17V178.109H307.052V36.5765Z" fill="#CFC3A9"/>
<path d="M268.245 178.102H287.443L305.471 36.5765H286.273L268.245 178.102Z" fill="#F0F0F0" fill-opacity="0.4"/>
<path d="M277.349 36.5765L259.321 178.102H263.978L282.006 36.5765H277.349Z" fill="#F0F0F0" fill-opacity="0.4"/>
<path d="M312.337 35.8535H237.884L236.318 32.1858H313.911L312.337 35.8535Z" fill="#E0D6C9" fill-opacity="0.7"/>
<path d="M312.337 37.9768H237.884L236.318 34.309H313.911L312.337 37.9768Z" fill="#EFE1D7" fill-opacity="0.7"/>
<path d="M312.337 40.0927H237.884L236.318 36.4321H313.911L312.337 40.0927Z" fill="#D9CCC0" fill-opacity="0.2"/>
<path d="M312.337 42.2157H237.884L236.318 38.5552H313.911L312.337 42.2157Z" fill="#E0D6C9" fill-opacity="0.7"/>
<path d="M234.47 76.8071C234 76.8071 233.625 76.4316 233.625 75.9622V47.4376C233.625 46.9754 234.007 46.5999 234.47 46.5999C234.939 46.5999 235.314 46.9754 235.314 47.4448V75.9622C235.314 76.4316 234.939 76.8071 234.47 76.8071Z" fill="#E0E0E0" fill-opacity="0.7"/>
<path d="M234.773 31.4999H234.159V48.4341H234.773V31.4999Z" fill="#E0E0E0" fill-opacity="0.7"/>
<path d="M316.619 27.5931H233.61V32.481H316.619V27.5931Z" fill="#D6CFC0"/>
<path d="M331.593 213.921H201.092C198.759 213.921 196.861 212.021 196.861 209.689V19.5701C196.861 17.2375 198.759 15.3383 201.092 15.3383H331.593C333.925 15.3383 335.824 17.2375 335.824 19.5701V209.689C335.824 212.021 333.925 213.921 331.593 213.921ZM201.099 15.5116C198.868 15.5116 197.048 17.3314 197.048 19.5628V209.682C197.048 211.913 198.868 213.733 201.099 213.733H331.6C333.831 213.733 335.651 211.913 335.651 209.682V19.5701C335.651 17.3386 333.831 15.5188 331.6 15.5188H201.099V15.5116Z" fill="#E0E0E0" fill-opacity="0.7"/>
<path d="M159.786 213.921H29.2915C26.9595 213.921 25.0606 212.021 25.0606 209.689V19.5701C25.0606 17.2375 26.9595 15.3383 29.2915 15.3383H159.793C162.125 15.3383 164.024 17.2375 164.024 19.5701V209.689C164.024 212.021 162.125 213.921 159.793 213.921H159.786ZM29.2915 15.5116C27.0605 15.5116 25.2411 17.3314 25.2411 19.5628V209.682C25.2411 211.913 27.0605 213.733 29.2915 213.733H159.793C162.024 213.733 163.843 211.913 163.843 209.682V19.5701C163.843 17.3386 162.024 15.5188 159.793 15.5188H29.2915V15.5116Z" fill="#E0E0E0" fill-opacity="0.7"/>
<path d="M361 258.022H0V258.202H361V258.022Z" fill="#E0E0E0" fill-opacity="0.7"/>
<path d="M48.901 268.327H37.3057V268.507H48.901V268.327Z" fill="#E0E0E0" fill-opacity="0.7"/>
<path d="M161.641 266.37H122.993V266.55H161.641V266.37Z" fill="#E0E0E0" fill-opacity="0.7"/>
<path d="M75.7956 275.036H49.6231V275.216H75.7956V275.036Z" fill="#E0E0E0" fill-opacity="0.7"/>
<path d="M304.352 266.276H273.169V266.456H304.352V266.276Z" fill="#E0E0E0" fill-opacity="0.7"/>
<path d="M315.355 266.276H310.785V266.456H315.355V266.276Z" fill="#E0E0E0" fill-opacity="0.7"/>
<path d="M267.212 270.775H228.304V270.955H267.212V270.775Z" fill="#E0E0E0" fill-opacity="0.7"/>
<path d="M134.047 16.3421H114.704C114.098 16.3421 113.838 15.5766 114.314 15.2083L123.455 8.088L133.657 0.137202C133.888 -0.0433334 134.205 -0.0433334 134.436 0.137202L144.645 8.088L153.786 15.2083C154.263 15.5766 154.003 16.3421 153.396 16.3421H134.054H134.047Z" fill="#CFC3A8"/>
<path d="M147.728 13.901H120.372C120.119 13.901 119.895 13.7421 119.816 13.5038C119.736 13.2655 119.816 13.0055 120.011 12.8467L133.685 2.18783C133.902 2.02174 134.198 2.02174 134.407 2.18783L148.082 12.8467C148.277 12.9983 148.356 13.2655 148.277 13.5038C148.198 13.7421 147.974 13.901 147.721 13.901H147.728ZM121.303 12.9911H146.797L134.054 3.06163L121.31 12.9911H121.303Z" fill="#DCD5C5"/>
<path d="M122.213 16.3421H118.516V32.1354H122.213V16.3421Z" fill="#CFC3A8"/>
<path d="M130.595 16.3421H126.899V32.1354H130.595V16.3421Z" fill="#CFC3A8"/>
<path d="M141.967 16.3421H138.27V32.1354H141.967V16.3421Z" fill="#CFC3A8"/>
<path d="M150.162 16.3421H146.465V32.1354H150.162V16.3421Z" fill="#CFC3A8"/>
<path d="M153.764 36.2002H114.336C113.766 36.2002 113.354 35.6659 113.498 35.1172L114.098 32.7852C114.199 32.4025 114.545 32.1354 114.935 32.1354H153.021C153.396 32.1354 153.735 32.3808 153.851 32.7418L154.595 35.0739C154.775 35.6371 154.356 36.2074 153.764 36.2074V36.2002Z" fill="#CFC3A8"/>
<path d="M134.047 11.8284C132.566 11.8284 131.361 10.6225 131.361 9.14208C131.361 7.66168 132.566 6.4557 134.047 6.4557C135.527 6.4557 136.732 7.66168 136.732 9.14208C136.732 10.6225 135.527 11.8284 134.047 11.8284ZM134.047 7.35838C133.065 7.35838 132.27 8.15996 132.27 9.13486C132.27 10.1097 133.065 10.9113 134.047 10.9113C135.028 10.9113 135.823 10.1097 135.823 9.13486C135.823 8.15996 135.028 7.35838 134.047 7.35838Z" fill="#DCD5C5"/>
<path d="M152.573 16.3421H115.527C115.28 16.3421 115.08 16.5425 115.08 16.7897V18.1904C115.08 18.4376 115.28 18.638 115.527 18.638H152.573C152.82 18.638 153.021 18.4376 153.021 18.1904V16.7897C153.021 16.5425 152.82 16.3421 152.573 16.3421Z" fill="#B3A688"/>
<path d="M152.183 16.9196H115.917C115.664 16.9196 115.462 16.7175 115.462 16.4648C115.462 16.2121 115.664 16.0099 115.917 16.0099H152.183C152.436 16.0099 152.638 16.2121 152.638 16.4648C152.638 16.7175 152.436 16.9196 152.183 16.9196Z" fill="#BEB5A3"/>
<path d="M152.183 34.2508H115.917C115.664 34.2508 115.462 34.0487 115.462 33.796C115.462 33.5433 115.664 33.3411 115.917 33.3411H152.183C152.436 33.3411 152.638 33.5433 152.638 33.796C152.638 34.0487 152.436 34.2508 152.183 34.2508Z" fill="#DCD5C5"/>
<path d="M92.6037 32.1785H39.84V115.853H92.6037V32.1785Z" fill="#978C75"/>
<path d="M90.4883 32.1065H39.84V113.405H90.4883V32.1065Z" fill="#ADA492"/>
<path d="M82.77 39.3279H47.5436V106.184H82.77V39.3279Z" fill="#D0C3A9"/>
<path d="M72.4239 53.4097H58.3665V92.4777H72.4239V53.4097Z" fill="#DCD5C5"/>
<path d="M184.348 300C267.635 300 335.152 297.423 335.152 294.244C335.152 291.066 267.635 288.489 184.348 288.489C101.061 288.489 33.5441 291.066 33.5441 294.244C33.5441 297.423 101.061 300 184.348 300Z" fill="#F5F5F5" fill-opacity="0.3"/>
<path d="M213.3 234.4H141.295C133.195 234.4 126.639 227.829 126.184 219.828V47.6903C126.639 39.494 133.202 32.9297 141.295 32.9225H213.3C221.401 32.9225 227.964 39.494 227.964 47.5892V219.727C227.964 227.829 221.394 234.386 213.3 234.393V234.4Z" fill="#263238"/>
<path d="M213.3 36.2949H194.586C193.373 36.2949 192.341 37.1831 192.175 38.3891L192.095 38.9741C191.705 41.9348 189.178 44.159 186.197 44.1663H168.414C165.425 44.1518 162.905 41.9348 162.515 38.9741L162.443 38.3891C162.284 37.1759 161.244 36.266 160.017 36.266H141.303C135.065 36.2444 129.989 41.2849 129.967 47.5242C129.967 47.5459 129.967 47.5676 129.967 47.5964V219.734C129.967 225.973 135.021 231.035 141.267 231.035H213.272C219.51 231.035 224.571 225.98 224.578 219.734V47.5964C224.578 41.3716 219.539 36.3238 213.315 36.2949H213.3Z" fill="url(#paint0_linear_56974_19413)"/>
<path opacity="0.7" d="M213.3 36.2949H194.586C193.373 36.2949 192.341 37.1831 192.175 38.3891L192.095 38.9741C191.705 41.9348 189.178 44.159 186.197 44.1663H168.414C165.425 44.1518 162.905 41.9348 162.515 38.9741L162.443 38.3891C162.284 37.1759 161.244 36.266 160.017 36.266H141.303C135.065 36.2444 129.989 41.2849 129.967 47.5242C129.967 47.5459 129.967 47.5676 129.967 47.5964V219.734C129.967 225.973 135.021 231.035 141.267 231.035H213.272C219.51 231.035 224.571 225.98 224.578 219.734V47.5964C224.578 41.3716 219.539 36.3238 213.315 36.2949H213.3Z" fill="white" fill-opacity="0.6"/>
<g opacity="0.7">
<path d="M172.948 38.2008C172.948 38.995 172.313 39.6376 171.526 39.6448C170.731 39.6448 170.089 39.0095 170.082 38.2225C170.082 37.4283 170.717 36.7857 171.504 36.7785C171.504 36.7785 171.518 36.7785 171.526 36.7785C172.313 36.7785 172.948 37.4139 172.948 38.2008Z" fill="black"/>
<path d="M183.085 36.7715H178.182C177.395 36.7715 176.76 37.4068 176.76 38.1938C176.76 38.9808 177.395 39.6162 178.182 39.6162H183.085C183.872 39.6162 184.507 38.9808 184.507 38.1938C184.507 37.4068 183.872 36.7715 183.085 36.7715Z" fill="black"/>
</g>
<path d="M139.361 42.657H137.844V44.1732H139.361V42.657Z" fill="url(#paint1_linear_56974_19413)"/>
<path d="M140.862 42.6567V44.1729H142.378V42.6567V41.1405H140.862V42.6567Z" fill="url(#paint2_linear_56974_19413)"/>
<path d="M143.895 39.6384V41.1402V42.6564V44.1726H145.411V42.6564V41.1402V39.6384H143.895Z" fill="url(#paint3_linear_56974_19413)"/>
<path d="M209.005 39.7395V40.8442H208.268V43.068H209.005V44.1726H215.705V39.7395H209.005ZM211.994 43.068H209.719V40.8442H211.943L211.994 43.068Z" fill="url(#paint4_linear_56974_19413)"/>
<path d="M205.561 122.786H149.042C148.381 122.786 147.844 123.323 147.844 123.985V159.355C147.844 160.017 148.381 160.554 149.042 160.554H205.561C206.223 160.554 206.759 160.017 206.759 159.355V123.985C206.759 123.323 206.223 122.786 205.561 122.786Z" fill="url(#paint5_linear_56974_19413)"/>
<path opacity="0.6" d="M166.089 130.296H157.353C156.531 130.296 155.865 130.962 155.865 131.784V138.919C155.865 139.74 156.531 140.406 157.353 140.406H166.089C166.91 140.406 167.576 139.74 167.576 138.919V131.784C167.576 130.962 166.91 130.296 166.089 130.296Z" fill="white" fill-opacity="0.6"/>
<g opacity="0.3">
<path d="M155.865 148.104H163.482C164.349 148.104 164.349 146.761 163.482 146.761H155.865C154.999 146.761 154.999 148.104 155.865 148.104Z" fill="black"/>
</g>
<g opacity="0.3">
<path d="M167.583 148.104H175.201C176.067 148.104 176.067 146.761 175.201 146.761H167.583C166.717 146.761 166.717 148.104 167.583 148.104Z" fill="black"/>
</g>
<g opacity="0.3">
<path d="M179.309 148.104H186.926C187.792 148.104 187.792 146.761 186.926 146.761H179.309C178.442 146.761 178.442 148.104 179.309 148.104Z" fill="black"/>
</g>
<g opacity="0.3">
<path d="M191.034 148.104H198.651C199.518 148.104 199.518 146.761 198.651 146.761H191.034C190.168 146.761 190.168 148.104 191.034 148.104Z" fill="black"/>
</g>
<path d="M194.175 55.9805H159.338C158.333 55.9805 157.519 56.7953 157.519 57.8003V89.6107C157.519 90.6158 158.333 91.4305 159.338 91.4305H194.175C195.18 91.4305 195.994 90.6158 195.994 89.6107V57.8003C195.994 56.7953 195.18 55.9805 194.175 55.9805Z" fill="url(#paint6_linear_56974_19413)"/>
<path d="M176.753 71.2033H163.338C162.919 71.2033 162.739 70.6762 163.071 70.4162L169.41 65.4767L176.486 59.9596C176.645 59.8368 176.868 59.8368 177.027 59.9596L184.103 65.4767L190.442 70.4162C190.774 70.6762 190.594 71.2033 190.175 71.2033H176.76H176.753Z" fill="url(#paint7_linear_56974_19413)"/>
<g opacity="0.7">
<path d="M176.753 71.2033H163.338C162.919 71.2033 162.739 70.6762 163.071 70.4162L169.41 65.4767L176.486 59.9596C176.645 59.8368 176.868 59.8368 177.027 59.9596L184.103 65.4767L190.442 70.4162C190.774 70.6762 190.594 71.2033 190.175 71.2033H176.76H176.753Z" fill="white" fill-opacity="0.6"/>
</g>
<path d="M186.24 69.8168H167.266C167.092 69.8168 166.934 69.7085 166.876 69.5424C166.818 69.3763 166.876 69.1958 167.013 69.0874L176.5 61.6927C176.652 61.5771 176.854 61.5771 176.998 61.6927L186.485 69.0874C186.623 69.1958 186.68 69.3763 186.623 69.5424C186.565 69.7085 186.413 69.8168 186.233 69.8168H186.24ZM167.908 69.1885H185.59L176.746 62.2993L167.901 69.1885H167.908Z" fill="url(#paint8_linear_56974_19413)"/>
<path d="M168.544 71.2033H165.981V82.1582H168.544V71.2033Z" fill="url(#paint9_linear_56974_19413)"/>
<g opacity="0.7">
<path d="M168.544 71.2033H165.981V82.1582H168.544V71.2033Z" fill="white" fill-opacity="0.6"/>
</g>
<path d="M174.356 71.2033H171.793V82.1582H174.356V71.2033Z" fill="url(#paint10_linear_56974_19413)"/>
<g opacity="0.7">
<path d="M174.356 71.2033H171.793V82.1582H174.356V71.2033Z" fill="white" fill-opacity="0.6"/>
</g>
<path d="M182.247 71.2033H179.684V82.1582H182.247V71.2033Z" fill="url(#paint11_linear_56974_19413)"/>
<g opacity="0.7">
<path d="M182.247 71.2033H179.684V82.1582H182.247V71.2033Z" fill="white" fill-opacity="0.6"/>
</g>
<path d="M187.958 71.2033H185.395V82.1582H187.958V71.2033Z" fill="url(#paint12_linear_56974_19413)"/>
<g opacity="0.7">
<path d="M187.958 71.2033H185.395V82.1582H187.958V71.2033Z" fill="white" fill-opacity="0.6"/>
</g>
<path d="M190.428 84.974H163.078C162.688 84.974 162.399 84.6058 162.493 84.2232L162.905 82.6059C162.97 82.3387 163.215 82.151 163.49 82.151H189.908C190.168 82.151 190.399 82.3171 190.478 82.5698L190.991 84.1871C191.113 84.5769 190.825 84.974 190.42 84.974H190.428Z" fill="url(#paint13_linear_56974_19413)"/>
<g opacity="0.7">
<path d="M190.428 84.974H163.078C162.688 84.974 162.399 84.6058 162.493 84.2232L162.905 82.6059C162.97 82.3387 163.215 82.151 163.49 82.151H189.908C190.168 82.151 190.399 82.3171 190.478 82.5698L190.991 84.1871C191.113 84.5769 190.825 84.974 190.42 84.974H190.428Z" fill="white" fill-opacity="0.6"/>
</g>
<path d="M176.753 68.379C175.728 68.379 174.89 67.5415 174.89 66.5162C174.89 65.491 175.728 64.6535 176.753 64.6535C177.778 64.6535 178.616 65.491 178.616 66.5162C178.616 67.5415 177.778 68.379 176.753 68.379ZM176.753 65.2816C176.074 65.2816 175.518 65.8376 175.518 66.5162C175.518 67.1949 176.074 67.7509 176.753 67.7509C177.432 67.7509 177.987 67.1949 177.987 66.5162C177.987 65.8376 177.432 65.2816 176.753 65.2816Z" fill="url(#paint14_linear_56974_19413)"/>
<path d="M189.46 71.2033H164.038C163.791 71.2033 163.591 71.4037 163.591 71.651V72.3441C163.591 72.5913 163.791 72.7917 164.038 72.7917H189.46C189.707 72.7917 189.908 72.5913 189.908 72.3441V71.651C189.908 71.4037 189.707 71.2033 189.46 71.2033Z" fill="url(#paint15_linear_56974_19413)"/>
<g opacity="0.7">
<path d="M189.46 71.2033H164.038C163.791 71.2033 163.591 71.4037 163.591 71.651V72.3441C163.591 72.5913 163.791 72.7917 164.038 72.7917H189.46C189.707 72.7917 189.908 72.5913 189.908 72.3441V71.651C189.908 71.4037 189.707 71.2033 189.46 71.2033Z" fill="white" fill-opacity="0.6"/>
</g>
<path d="M189.33 71.6004H164.176C164.002 71.6004 163.858 71.456 163.858 71.2827C163.858 71.1094 164.002 70.965 164.176 70.965H189.33C189.503 70.965 189.648 71.1094 189.648 71.2827C189.648 71.456 189.503 71.6004 189.33 71.6004Z" fill="url(#paint16_linear_56974_19413)"/>
<path d="M189.33 83.9346H164.176C164.002 83.9346 163.858 83.7902 163.858 83.6169C163.858 83.4436 164.002 83.2992 164.176 83.2992H189.33C189.503 83.2992 189.648 83.4436 189.648 83.6169C189.648 83.7902 189.503 83.9346 189.33 83.9346Z" fill="url(#paint17_linear_56974_19413)"/>
<path d="M199.828 97.6554H154.775V99.742H199.828V97.6554Z" fill="url(#paint18_linear_56974_19413)"/>
<path d="M167.157 108.574H144.566V110.661H167.157V108.574Z" fill="url(#paint19_linear_56974_19413)"/>
<path d="M188.254 108.574H171.778V110.661H188.254V108.574Z" fill="url(#paint20_linear_56974_19413)"/>
<path d="M209.416 108.574H192.94V110.661H209.416V108.574Z" fill="url(#paint21_linear_56974_19413)"/>
<path opacity="0.3" d="M167.157 108.574H144.566V110.661H167.157V108.574Z" fill="black"/>
<path opacity="0.3" d="M188.254 108.574H171.778V110.661H188.254V108.574Z" fill="black"/>
<path opacity="0.3" d="M209.416 108.574H192.94V110.661H209.416V108.574Z" fill="black"/>
<path d="M152.855 179.814C154.645 179.814 156.096 178.362 156.096 176.571C156.096 174.781 154.645 173.329 152.855 173.329C151.064 173.329 149.613 174.781 149.613 176.571C149.613 178.362 151.064 179.814 152.855 179.814Z" fill="url(#paint22_linear_56974_19413)"/>
<path d="M205.517 174.975H163.186V176.946H205.517V174.975Z" fill="url(#paint23_linear_56974_19413)"/>
<path d="M152.313 192.733C154.104 192.733 155.555 191.281 155.555 189.49C155.555 187.7 154.104 186.248 152.313 186.248C150.523 186.248 149.071 187.7 149.071 189.49C149.071 191.281 150.523 192.733 152.313 192.733Z" fill="url(#paint24_linear_56974_19413)"/>
<path d="M205.517 187.931H163.186V189.902H205.517V187.931Z" fill="url(#paint25_linear_56974_19413)"/>
<path d="M152.855 205.118C154.645 205.118 156.096 203.666 156.096 201.875C156.096 200.084 154.645 198.633 152.855 198.633C151.064 198.633 149.613 200.084 149.613 201.875C149.613 203.666 151.064 205.118 152.855 205.118Z" fill="url(#paint26_linear_56974_19413)"/>
<path d="M205.517 200.893H163.186V202.864H205.517V200.893Z" fill="url(#paint27_linear_56974_19413)"/>
<path opacity="0.3" d="M205.517 174.975H163.186V176.946H205.517V174.975Z" fill="black"/>
<path opacity="0.3" d="M205.517 187.931H163.186V189.902H205.517V187.931Z" fill="black"/>
<path opacity="0.3" d="M205.517 200.893H163.186V202.864H205.517V200.893Z" fill="black"/>
<path opacity="0.2" d="M129.224 187.288C129.224 185.555 135.498 162.995 149.31 139.28C163.114 115.565 180.19 131.762 196.759 105.736C213.329 79.7102 215.192 36.266 215.192 36.266H195.9C195.9 36.266 192.24 84.9168 174.666 91.2789C157.093 97.641 129.224 136.391 129.224 136.391V187.288Z" fill="white" fill-opacity="0.6"/>
<path opacity="0.2" d="M141.368 231.324H152.667C152.667 231.324 215.279 141.995 224.571 125.935V108.618C216.037 128.693 141.375 231.324 141.375 231.324H141.368Z" fill="white" fill-opacity="0.6"/>
<path d="M220.874 104.003C226.629 115.543 240.072 120.518 250.902 115.117L254.758 113.196L233.928 71.4055L230.073 73.3264C219.243 78.7281 215.12 92.4632 220.874 104.003Z" fill="url(#paint28_linear_56974_19413)"/>
<path opacity="0.3" d="M220.874 104.003C226.629 115.543 240.072 120.518 250.902 115.117L254.758 113.196L233.928 71.4055L230.073 73.3264C219.243 78.7281 215.12 92.4632 220.874 104.003Z" fill="black"/>
<path d="M254.66 113.258C266.225 107.561 270.983 93.5661 265.287 81.9987C259.591 70.4313 245.599 65.6723 234.034 71.3692C222.469 77.0661 217.711 91.0615 223.406 102.629C229.102 114.196 243.095 118.955 254.66 113.258Z" fill="url(#paint29_linear_56974_19413)"/>
<path d="M227.618 100.645C232.224 109.881 243.444 113.644 252.686 109.036C261.92 104.429 265.682 93.207 261.075 83.9636C256.469 74.7274 245.249 70.965 236.007 75.5723C226.773 80.1796 223.011 91.4017 227.618 100.645Z" fill="url(#paint30_linear_56974_19413)"/>
<path opacity="0.3" d="M227.618 100.645C232.224 109.881 243.444 113.644 252.686 109.036C261.92 104.429 265.682 93.207 261.075 83.9636C256.469 74.7274 245.249 70.965 236.007 75.5723C226.773 80.1796 223.011 91.4017 227.618 100.645Z" fill="white" fill-opacity="0.6"/>
<path d="M226.701 85.2129C230.621 75.4712 241.704 70.7556 251.444 74.6768C261.184 78.5981 265.898 89.683 261.978 99.4247C264.469 90.1379 259.638 80.4467 250.722 76.8577C240.982 72.9365 229.907 77.652 225.979 87.3938C226.174 86.6572 226.419 85.9278 226.708 85.2201L226.701 85.2129Z" fill="url(#paint31_linear_56974_19413)"/>
<path opacity="0.3" d="M226.701 85.2129C230.621 75.4712 241.704 70.7556 251.444 74.6768C261.184 78.5981 265.898 89.683 261.978 99.4247C264.469 90.1379 259.638 80.4467 250.722 76.8577C240.982 72.9365 229.907 77.652 225.979 87.3938C226.174 86.6572 226.419 85.9278 226.708 85.2201L226.701 85.2129Z" fill="black"/>
<path d="M65.8031 165.941C68.9005 172.159 76.1493 174.845 81.9903 171.935L84.0697 170.902L72.8426 148.379L70.7632 149.411C64.9222 152.322 62.7057 159.724 65.8031 165.949V165.941Z" fill="url(#paint32_linear_56974_19413)"/>
<path opacity="0.3" d="M65.8031 165.941C68.9005 172.159 76.1493 174.845 81.9903 171.935L84.0697 170.902L72.8426 148.379L70.7632 149.411C64.9222 152.322 62.7057 159.724 65.8031 165.949V165.941Z" fill="black"/>
<path d="M90.3871 163.623C88.185 170.216 81.0517 173.769 74.4598 171.567C67.868 169.364 64.3157 162.23 66.5178 155.636C68.7199 149.043 75.8533 145.49 82.4451 147.693C89.037 149.895 92.5892 157.03 90.3871 163.623Z" fill="url(#paint33_linear_56974_19413)"/>
<path d="M69.4347 164.129C71.9184 169.112 77.9688 171.134 82.9433 168.649C87.9251 166.165 89.9467 160.114 87.4631 155.138C84.9794 150.162 78.929 148.133 73.9544 150.617C68.9726 153.102 66.951 159.153 69.4347 164.129Z" fill="url(#paint34_linear_56974_19413)"/>
<path opacity="0.3" d="M69.4347 164.129C71.9184 169.112 77.9688 171.134 82.9433 168.649C87.9251 166.165 89.9467 160.114 87.4631 155.138C84.9794 150.162 78.929 148.133 73.9544 150.617C68.9726 153.102 66.951 159.153 69.4347 164.129Z" fill="white" fill-opacity="0.6"/>
<path d="M81.6221 162.504C81.3261 163.089 80.8568 163.551 80.2287 163.89L80.3297 164.208C80.3803 164.367 80.3658 164.526 80.2864 164.692C80.207 164.858 80.0843 164.959 79.9254 165.01C79.7666 165.06 79.6077 165.046 79.4633 164.959C79.3189 164.873 79.2179 164.75 79.1601 164.576L79.0735 164.295C78.4525 164.41 77.8749 164.382 77.3407 164.223C76.8136 164.064 76.3876 163.811 76.0772 163.464C75.9328 163.298 75.8389 163.147 75.7956 163.024C75.745 162.858 75.7595 162.692 75.8389 162.526C75.9255 162.367 76.0555 162.258 76.2288 162.201C76.3732 162.157 76.5104 162.157 76.6475 162.208C76.7847 162.258 76.9002 162.345 76.9941 162.461C77.1746 162.713 77.4201 162.887 77.7305 162.988C78.041 163.089 78.3659 163.125 78.7125 163.089L77.911 160.359C77.1385 160.352 76.4959 160.229 75.9761 160.005C75.4635 159.774 75.1169 159.37 74.9292 158.785C74.7415 158.193 74.792 157.629 75.0736 157.102C75.3552 156.575 75.8317 156.149 76.5176 155.831L76.4309 155.564C76.3804 155.405 76.3948 155.246 76.467 155.088C76.5392 154.929 76.6548 154.828 76.8064 154.777C76.9652 154.726 77.1241 154.741 77.2829 154.828C77.4417 154.914 77.5428 155.037 77.5934 155.196L77.6728 155.449C78.3803 155.304 78.9724 155.326 79.4633 155.528C79.9471 155.73 80.272 156.077 80.4236 156.568C80.4814 156.756 80.4741 156.929 80.3875 157.088C80.3081 157.247 80.1853 157.355 80.0121 157.406C79.8604 157.456 79.716 157.442 79.5789 157.384C79.4417 157.319 79.3406 157.211 79.2756 157.066C79.1962 156.893 79.0446 156.77 78.8135 156.691C78.5897 156.611 78.3154 156.582 78.0049 156.618L78.7125 159.045C80.4019 159.067 81.42 159.623 81.7593 160.72C81.947 161.32 81.8893 161.912 81.5932 162.504H81.6221ZM76.5609 158.814C76.7847 158.929 77.1024 159.002 77.5212 159.038L76.893 156.987C76.5537 157.16 76.3226 157.355 76.1999 157.586C76.0699 157.817 76.0483 158.056 76.1277 158.316C76.1999 158.532 76.3443 158.698 76.5609 158.814ZM80.5319 161.991C80.6691 161.71 80.698 161.428 80.6113 161.161C80.5391 160.944 80.3947 160.764 80.1637 160.626C79.9326 160.489 79.5933 160.402 79.1384 160.374L79.8604 162.713C80.1709 162.526 80.3947 162.287 80.5319 161.998V161.991Z" fill="url(#paint35_linear_56974_19413)"/>
<path d="M68.9438 155.81C71.0593 150.56 77.0302 148.018 82.2792 150.134C87.5281 152.249 90.0696 158.222 87.9541 163.472C89.297 158.467 86.6906 153.246 81.8893 151.303C76.6404 149.188 70.6694 151.73 68.554 156.98C68.6623 156.582 68.7922 156.192 68.9438 155.81Z" fill="url(#paint36_linear_56974_19413)"/>
<path opacity="0.3" d="M68.9438 155.81C71.0593 150.56 77.0302 148.018 82.2792 150.134C87.5281 152.249 90.0696 158.222 87.9541 163.472C89.297 158.467 86.6906 153.246 81.8893 151.303C76.6404 149.188 70.6694 151.73 68.554 156.98C68.6623 156.582 68.7922 156.192 68.9438 155.81Z" fill="black"/>
<path d="M83.5354 47.2931C76.0122 43.6608 66.9728 46.8093 63.3339 54.334C59.695 61.8588 62.8501 70.9 70.3734 74.5396C76.1783 77.3488 82.8856 76.0922 87.3115 71.9182L91.8384 72.3154L90.4522 67.7226C90.4883 67.6504 90.5388 67.5782 90.5749 67.5059C94.2066 59.9812 91.0587 50.94 83.5354 47.3004V47.2931Z" fill="url(#paint37_linear_56974_19413)"/>
<path d="M76.0338 43.8269C80.9001 43.1336 86.0624 45.0834 89.2681 48.8169" stroke="url(#paint38_linear_56974_19413)" stroke-width="0.722" stroke-linecap="round" stroke-linejoin="round"/>
<path d="M90.676 50.5789C91.203 51.1132 91.6218 51.7485 91.8961 52.4489" stroke="url(#paint39_linear_56974_19413)" stroke-width="0.722" stroke-linecap="round" stroke-linejoin="round"/>
<path d="M76.9796 68.452L69.2903 62.7254L71.283 60.0462L76.4381 63.8808L83.5281 55.4317L86.0912 57.5765L76.9796 68.452Z" fill="white" fill-opacity="0.6"/>
<path d="M109.188 261.004L100.993 262.311L107.701 281.318L115.903 280.004L109.188 261.004Z" fill="#F2B269"/>
<path d="M104.69 278.314L107.585 277.166C108.242 276.906 108.979 277 109.578 277.375C112.156 278.993 113.072 277.635 114.033 274.761C115.137 274.169 115.975 275.368 116.206 275.693L121.505 282.719C121.953 283.304 121.845 284.142 121.26 284.589C121.159 284.669 121.043 284.734 120.921 284.777C117.397 286.178 115.737 286.835 111.354 288.576L97.9538 293.898C94.3004 295.349 92.0839 291.97 93.4557 291.031C99.6288 286.85 103.629 282.957 104.936 280.156C105.188 279.657 104.683 279.556 104.683 278.321L104.69 278.314Z" fill="#263238"/>
<path d="M101.434 282.712C102.343 282.329 103.203 281.845 104.011 281.282C104.083 281.217 104.091 281.109 104.026 281.037C103.99 281 103.939 280.979 103.889 280.979C103.405 280.943 99.1089 280.69 98.4519 281.694C98.3291 281.874 98.3147 282.105 98.4158 282.3C98.5674 282.675 98.8923 282.95 99.2822 283.051C100.011 283.174 100.769 283.051 101.427 282.712H101.434ZM103.354 281.289C102.365 281.91 100.481 282.964 99.4121 282.675C99.1305 282.589 98.8995 282.394 98.7768 282.127C98.7262 282.047 98.7262 281.946 98.784 281.874C99.145 281.325 101.585 281.224 103.347 281.289H103.354Z" fill="url(#paint40_linear_56974_19413)"/>
<path d="M103.975 281.31C104.019 281.31 104.055 281.289 104.091 281.267C104.12 281.202 104.112 281.13 104.069 281.079C104.011 280.928 101.744 277.7 99.8453 278.711C99.376 278.971 99.3327 279.267 99.3905 279.469C99.6432 280.466 102.632 281.346 103.903 281.368L103.975 281.303V281.31ZM100.156 278.913C101.412 278.415 102.972 280.206 103.549 280.942C102.12 280.791 99.8742 279.96 99.7443 279.339C99.7226 279.289 99.6721 279.159 100.026 278.978L100.156 278.913Z" fill="url(#paint41_linear_56974_19413)"/>
<path d="M106.654 282.206C106.603 282.206 106.553 282.192 106.509 282.156C105.694 281.556 104.611 281.34 103.621 281.585C103.491 281.614 103.354 281.535 103.318 281.405C103.289 281.275 103.369 281.138 103.499 281.102C104.625 280.82 105.86 281.065 106.798 281.751C106.907 281.831 106.935 281.99 106.856 282.098C106.805 282.163 106.733 282.199 106.654 282.199V282.206Z" fill="url(#paint42_linear_56974_19413)"/>
<path d="M105.39 284.279C105.34 284.279 105.289 284.264 105.246 284.228C104.43 283.629 103.347 283.412 102.358 283.658C102.221 283.687 102.091 283.607 102.055 283.477C102.026 283.347 102.105 283.21 102.235 283.174C103.362 282.892 104.596 283.138 105.535 283.824C105.643 283.903 105.672 284.062 105.592 284.17C105.542 284.235 105.47 284.271 105.39 284.271V284.279Z" fill="url(#paint43_linear_56974_19413)"/>
<path d="M103.6 286.308C103.549 286.308 103.499 286.293 103.455 286.257C102.632 285.658 101.556 285.442 100.567 285.687C100.437 285.716 100.3 285.636 100.264 285.507C100.235 285.377 100.315 285.239 100.445 285.203C101.571 284.922 102.806 285.167 103.744 285.853C103.852 285.932 103.881 286.091 103.802 286.2C103.751 286.265 103.679 286.301 103.6 286.301V286.308Z" fill="url(#paint44_linear_56974_19413)"/>
<path opacity="0.3" d="M121.505 282.712L116.206 275.685C115.968 275.368 115.137 274.169 114.04 274.754L109.181 261.004L100.986 262.311L106.394 277.628L104.683 278.307C104.683 279.542 105.188 279.643 104.935 280.141C104.806 280.415 104.647 280.704 104.466 281C104.322 281 104.185 281.022 104.04 281.037C103.809 280.661 101.658 277.736 99.8382 278.711C99.3689 278.971 99.3255 279.267 99.3833 279.469C99.5277 280.04 100.575 280.574 101.679 280.928C100.329 280.957 98.8129 281.123 98.4447 281.694C98.322 281.874 98.3075 282.105 98.4086 282.3C98.5602 282.676 98.8851 282.95 99.275 283.051C100.004 283.174 100.762 283.051 101.419 282.712C102.156 282.401 102.856 282.011 103.528 281.578C103.556 281.578 103.578 281.6 103.607 281.593C103.773 281.549 103.946 281.542 104.12 281.528C103.78 282.026 103.376 282.546 102.907 283.095C102.676 283.109 102.452 283.131 102.228 283.181C102.091 283.217 102.011 283.347 102.047 283.485C102.084 283.615 102.214 283.701 102.351 283.665C102.365 283.665 102.387 283.665 102.401 283.665C101.954 284.149 101.463 284.647 100.928 285.153C100.77 285.174 100.603 285.174 100.445 285.218C100.307 285.254 100.228 285.384 100.264 285.521C100.279 285.586 100.322 285.637 100.372 285.673C98.5314 287.355 96.2065 289.161 93.4485 291.031C92.0767 291.97 94.3004 295.349 97.9465 293.898L111.347 288.576C115.729 286.835 117.39 286.178 120.913 284.777C121.036 284.734 121.152 284.669 121.253 284.589C121.838 284.142 121.946 283.304 121.498 282.719L121.505 282.712ZM99.7371 279.347C99.7154 279.296 99.6649 279.166 100.019 278.986L100.149 278.921C101.405 278.422 102.964 280.213 103.542 280.95C102.112 280.798 99.8671 279.968 99.7371 279.347ZM99.4122 282.69C99.1306 282.604 98.8996 282.409 98.7768 282.141C98.7263 282.062 98.7263 281.961 98.7841 281.889C99.1306 281.361 101.376 281.246 103.116 281.296C103.181 281.311 103.246 281.318 103.311 281.325C102.315 281.954 100.466 282.972 99.4122 282.69Z" fill="black"/>
<path d="M120.249 266.666L112.033 265.51L112.863 285.644L121.087 286.799L120.249 266.666Z" fill="#F2B269"/>
<path d="M110.863 281.889L113.975 281.643C114.675 281.585 115.354 281.889 115.816 282.423C117.801 284.727 119.079 283.694 120.841 281.239C122.068 280.993 122.516 282.394 122.646 282.762L125.642 291.031C125.902 291.724 125.549 292.49 124.863 292.75C124.74 292.793 124.61 292.822 124.48 292.829C120.704 293.132 118.921 293.277 114.22 293.652L99.8525 294.801C95.9321 295.111 94.8058 291.233 96.3942 290.735C103.52 288.554 108.488 286.005 110.567 283.716C110.957 283.311 110.502 283.073 110.863 281.889Z" fill="#263238"/>
<path d="M106.459 285.138C107.441 285.037 108.401 284.835 109.34 284.531C109.426 284.495 109.462 284.387 109.426 284.3C109.405 284.25 109.361 284.221 109.311 284.207C108.856 284.026 104.827 282.524 103.903 283.29C103.73 283.427 103.65 283.643 103.694 283.86C103.73 284.264 103.954 284.625 104.3 284.835C104.964 285.167 105.715 285.275 106.452 285.145L106.459 285.138ZM108.712 284.344C107.585 284.647 105.47 285.102 104.538 284.517C104.293 284.358 104.134 284.098 104.091 283.809C104.062 283.723 104.098 283.622 104.17 283.571C104.676 283.152 107.036 283.773 108.704 284.351L108.712 284.344Z" fill="url(#paint45_linear_56974_19413)"/>
<path d="M109.304 284.545C109.347 284.553 109.383 284.545 109.426 284.538C109.477 284.488 109.491 284.415 109.462 284.35C109.448 284.192 108.228 280.437 106.12 280.849C105.6 280.964 105.463 281.224 105.463 281.441C105.412 282.466 108.011 284.192 109.217 284.581L109.304 284.545ZM106.358 281.138C107.708 281.029 108.668 283.202 109 284.069C107.679 283.498 105.773 282.047 105.838 281.419C105.838 281.369 105.824 281.224 106.213 281.152L106.358 281.13V281.138Z" fill="url(#paint46_linear_56974_19413)"/>
<path d="M108.899 284.459C109.982 284.517 111.029 285.08 111.672 285.947" stroke="url(#paint47_linear_56974_19413)" stroke-width="0.361" stroke-linecap="round" stroke-linejoin="round"/>
<path d="M107.08 286.07C108.163 286.128 109.21 286.691 109.852 287.557" stroke="url(#paint48_linear_56974_19413)" stroke-width="0.361" stroke-linecap="round" stroke-linejoin="round"/>
<path d="M104.777 287.485C105.86 287.543 106.907 288.106 107.549 288.973" stroke="url(#paint49_linear_56974_19413)" stroke-width="0.361" stroke-linecap="round" stroke-linejoin="round"/>
<path opacity="0.2" d="M106.625 141.627C106.625 141.627 111.152 143.916 119.289 143.158C132.523 141.93 142.588 137.128 142.588 137.128" stroke="black" stroke-width="0.361" stroke-linecap="round" stroke-linejoin="round"/>
<path d="M107.477 143.158C107.477 143.158 82.9433 191.873 81.7232 209.97C80.373 229.815 104.076 276.046 104.076 276.046L116.769 270.125C116.769 270.125 100.271 226.334 101.448 211.126C105.195 189.375 131.599 146.768 131.599 146.768L107.484 143.165L107.477 143.158Z" fill="url(#paint50_linear_56974_19413)"/>
<path opacity="0.2" d="M120.227 154.705C114.3 157.398 112.336 173.842 112.596 181.301C116.762 172.412 121.26 163.717 124.855 157.066C124.054 156.582 121.043 154.243 120.227 154.705Z" fill="black"/>
<path d="M107.304 139.865L142.884 141.02C142.884 141.02 143.115 151.939 140.422 160.07L105.123 148.559L107.304 139.865Z" fill="url(#paint51_linear_56974_19413)"/>
<path d="M119.39 142.428C119.39 142.428 111.513 196.965 111.253 215.271C110.964 235.332 111.123 276.039 111.123 276.039H123.513C123.513 276.039 128.646 238.416 130.66 218.976C132.949 196.827 141.902 152.993 141.902 152.993L119.39 142.428Z" fill="url(#paint52_linear_56974_19413)"/>
<path opacity="0.2" d="M111.08 253.891L111.116 272.754L109 273.743L109.859 250.129L111.08 253.891Z" fill="black"/>
<path opacity="0.2" d="M130.148 149.151C130.61 150.429 131.628 151.491 132.884 152.011C134.14 152.53 135.606 152.502 136.841 151.931" stroke="black" stroke-width="0.361" stroke-linecap="round" stroke-linejoin="round"/>
<path d="M107.549 115.926C107.369 116.337 107.166 116.742 106.957 117.146C104.603 121.652 102.351 124.664 100.293 126.397C97.47 128.751 94.9791 128.686 93.0297 126.678C89.658 123.198 92.7914 114.452 92.9431 114.452C93.0947 114.452 96.813 115.384 96.813 115.384L97.1162 114.452C97.5566 113.066 98.4592 110.358 99.6144 107.39C101.838 101.75 105.058 95.1496 108.062 94.8391C108.062 94.7669 112.199 105.642 107.542 115.933L107.549 115.926Z" fill="#263238"/>
<path opacity="0.2" d="M104.185 114.619L103.296 123.104L101.672 125.068L102.416 114.128L104.185 114.619Z" fill="black"/>
<path opacity="0.2" d="M98.6829 122.562C98.719 120.446 98.5458 118.338 98.1775 116.258L96.7985 115.427C97.2389 114.185 97.9104 111.672 99.0656 109.015C103.058 114.46 98.8707 122.273 98.6902 122.562H98.6829Z" fill="black"/>
<path d="M141.324 121.501C141.664 130.072 142.999 139.475 142.891 141.62C131.563 148.393 110.646 149.513 105.787 145.736C105.643 144.804 106.892 141.981 106.062 141.62C98.1342 138.132 107.499 94.9257 108.069 94.7596C111.116 94.0592 114.213 93.5681 117.332 93.2937C121.895 93.0626 126.466 93.0626 131.036 93.2937C134.667 93.4887 138.277 93.8859 141.866 94.4925C140.472 100.768 139.693 107.166 139.534 113.593C139.36 117.507 141.202 118.092 141.339 121.501H141.324Z" fill="#263238"/>
<path d="M96.8851 105.693C95.6 105.924 94.3292 106.256 93.0946 106.682C92.7769 106.899 92.0838 110.892 92.1849 111.679C92.2427 112.091 93.9971 115.644 93.9971 115.644C94.7119 116.034 96.8923 115.962 96.8923 115.962V105.693H96.8851Z" fill="#F2B269"/>
<path d="M124.906 101.382C124.906 101.382 134.451 96.7383 136.335 93.142C138.22 89.5458 134.039 85.9134 127.043 85.8845C120.047 85.8556 112.942 88.672 113.802 94.0592C114.661 99.4391 117.859 101.338 117.859 101.338C117.859 101.338 119.924 98.8253 124.913 101.382H124.906Z" fill="#263238"/>
<path d="M128.379 93.6331C125.592 95.7634 122.596 99.5258 120.812 99.468C119.296 99.4175 118.502 96.6155 117.816 95.2651C119.729 92.3477 118.856 92.3838 117.246 89.7913L124.227 79.7174C124.639 84.4185 124.278 91.4883 128.379 93.6259V93.6331Z" fill="#F2B269"/>
<path opacity="0.2" d="M121.39 83.8264L117.224 89.7913C117.693 90.5279 118.357 91.185 118.682 91.9938C120.646 91.1056 122.458 88.8453 122.646 86.5055C122.798 85.0251 121.96 83.8119 121.39 83.8264Z" fill="black"/>
<path d="M104.473 110.185C104.582 110.524 104.408 110.9 104.098 111.015C104.069 111.022 104.04 111.037 104.011 111.037L97.3978 112.445C97.0296 112.495 96.683 112.257 96.5675 111.874L92.4954 98.0237C92.3943 97.641 92.5965 97.2366 92.9431 97.1138L99.5566 95.7056C99.9609 95.6695 100.336 95.9439 100.459 96.37L104.481 110.185H104.473Z" fill="#263238"/>
<path opacity="0.2" d="M104.473 110.185C104.582 110.524 104.408 110.9 104.098 111.015C104.069 111.022 104.04 111.037 104.011 111.037L97.3978 112.445C97.0296 112.495 96.683 112.257 96.5675 111.874L92.4954 98.0237C92.3943 97.641 92.5965 97.2366 92.9431 97.1138L99.5566 95.7056C99.9609 95.6695 100.336 95.9439 100.459 96.37L104.481 110.185H104.473Z" fill="white" fill-opacity="0.6"/>
<path opacity="0.5" d="M99.4627 96.5289C99.3544 96.1606 99.0511 95.9151 98.7118 95.879L92.943 97.1066C92.5892 97.2221 92.3871 97.6265 92.4954 98.0165L96.5674 111.867C96.6685 112.185 96.9284 112.394 97.2317 112.43L103.022 111.203C103.022 111.203 103.08 111.188 103.109 111.181C103.419 111.066 103.593 110.697 103.484 110.351L99.4627 96.5361V96.5289Z" fill="black"/>
<path d="M108.365 109.968L102.64 106.213L102.748 114.749C102.748 114.749 108.408 117.161 109.405 114.135L108.365 109.968Z" fill="#F2B269"/>
<path d="M96.6686 111.232L96.6974 111.708C96.7985 113.47 98.2714 114.835 100.033 114.799H102.928L102.64 106.213L99.7732 106.957C97.8526 107.455 96.553 109.246 96.6686 111.225V111.232Z" fill="#F2B269"/>
<path d="M108.062 109.766C109.831 110.603 117.238 116.251 117.238 116.251L113.513 120.706L107.195 114.395L108.054 109.759L108.062 109.766Z" fill="#F2B269"/>
<path opacity="0.2" d="M111.08 119.471C111.08 119.471 123.26 136.608 131.585 133.019C139.909 129.43 141.324 121.508 141.324 121.508L130.653 128.18L111.08 117.977V119.479V119.471Z" fill="black"/>
<path d="M112.791 110.733C112.791 110.733 127.78 119.572 129.397 120.143C131.014 120.713 134.104 107.332 135.231 103.758C136.357 100.183 139.23 94.8607 141.779 94.4997C141.779 94.4997 149.981 94.1603 146.407 107.751C142.833 121.342 137.086 130.968 130.631 131.192C124.177 131.416 110.35 118.287 110.35 118.287L112.791 110.733Z" fill="#263238"/>
<path d="M93.7516 106.494C94.9646 105.953 96.1848 105.404 97.4772 105.093C97.6649 105.05 97.867 105.007 98.0548 105.043C98.2497 105.079 98.4302 105.216 98.4735 105.404C98.5241 105.649 98.3363 105.873 98.1558 106.047C97.2389 106.927 96.1848 107.671 95.0512 108.256" fill="#F2B269"/>
<path opacity="0.2" d="M110.35 118.287L112.791 110.733C112.791 110.733 127.78 119.572 129.397 120.143C131.014 120.713 134.985 108.329 136.111 104.754" stroke="black" stroke-width="0.361" stroke-linecap="round" stroke-linejoin="round"/>
<path opacity="0.2" d="M135.989 93.6909C135.989 93.6909 124.567 102.718 121.65 102.956C121.65 102.956 132.899 100.522 135.989 93.6909Z" fill="black"/>
<path d="M119.325 102.421C118.964 101.36 118.148 99.5762 117.13 99.0997C116.87 98.9769 116.589 98.8831 116.3 98.9047C116.011 98.9264 115.722 99.0924 115.621 99.3596C115.455 99.7783 115.78 100.219 116.083 100.551C116.495 101.006 116.892 101.41 117.455 101.634C118.018 101.858 118.762 102.356 119.332 102.421" stroke="white" stroke-opacity="0.6" stroke-width="0.1805" stroke-linecap="round" stroke-linejoin="round"/>
<path d="M119.462 102.421C120.588 102.443 122.538 102.291 123.332 101.49C123.534 101.288 123.722 101.049 123.794 100.775C123.873 100.501 123.816 100.168 123.599 99.9807C123.26 99.6847 122.74 99.8363 122.321 100.002C121.758 100.233 121.238 100.464 120.834 100.927C120.437 101.381 119.708 101.908 119.448 102.421" stroke="white" stroke-opacity="0.6" stroke-width="0.1805" stroke-linecap="round" stroke-linejoin="round"/>
<path d="M119.361 102.595C118.61 105.78 118.264 109.065 118.343 112.337" stroke="white" stroke-opacity="0.6" stroke-width="0.1805" stroke-linecap="round" stroke-linejoin="round"/>
<path d="M119.57 102.422C119.238 105.722 120.336 109.564 121.708 112.582" stroke="white" stroke-opacity="0.6" stroke-width="0.1805" stroke-linecap="round" stroke-linejoin="round"/>
<path opacity="0.2" d="M106.358 128.751C106.473 128.787 116.935 129.09 116.935 129.09C116.935 129.09 122.892 134.449 125.599 134.976L126.198 139.865C126.198 139.865 117.238 143.822 108.163 140.76C101.484 138.507 106.351 128.751 106.351 128.751H106.358Z" fill="black"/>
<path d="M97.044 98.9768C97.1523 99.41 96.9646 99.8288 96.6324 99.9154C96.2931 100.002 95.9321 99.7205 95.8238 99.2873C95.7155 98.8541 95.9032 98.4353 96.2353 98.3487C96.5747 98.2621 96.9357 98.5436 97.044 98.9768Z" fill="white" fill-opacity="0.6"/>
<path opacity="0.2" d="M130.141 120.952C130.141 120.952 131.52 126.143 132.328 125.363C133.137 124.583 131.967 122.793 131.967 122.793C131.967 122.793 135.685 124.453 134.61 123.197C133.534 121.941 130.141 120.952 130.141 120.952Z" fill="black"/>
<path d="M109.52 70.8423C112.495 72.0193 111.982 75.2473 107.159 81.205C104.105 78.6558 102.387 72.7559 103.925 70.8423C105.47 68.9286 106.921 69.8313 109.52 70.8423Z" fill="#263238"/>
<path d="M121.231 69.3185C118.285 65.4406 112.748 64.6896 108.87 67.6359C103.528 71.7088 105.253 81.0606 108.127 86.2095C111.332 91.9433 119.729 92.6871 123.072 86.6861C125.303 82.6854 124.191 79.1036 122.841 72.857C122.574 71.5716 122.025 70.3584 121.224 69.3185H121.231Z" fill="#F2B269"/>
<path d="M114.437 77.9768C114.596 78.6266 114.293 79.2259 113.852 79.2981C113.412 79.3703 112.986 78.8865 112.87 78.2295C112.755 77.5725 113.022 76.9732 113.455 76.9083C113.881 76.8361 114.321 77.3054 114.437 77.9768Z" fill="#263238"/>
<path d="M108.661 79.19C108.82 79.8398 108.509 80.4463 108.076 80.5113C107.65 80.5835 107.21 80.0997 107.094 79.4427C106.979 78.7857 107.246 78.1864 107.679 78.1215C108.105 78.0493 108.553 78.5619 108.661 79.19Z" fill="#263238"/>
<path d="M105.737 75.9907C105.845 76.0268 105.961 76.0051 106.047 75.9329C106.618 75.4058 107.398 75.1748 108.163 75.3192C108.322 75.3625 108.488 75.2687 108.538 75.1098C108.582 74.951 108.488 74.7849 108.329 74.7344C107.369 74.5322 106.372 74.8066 105.65 75.478C105.52 75.5863 105.506 75.7741 105.614 75.904C105.65 75.9401 105.694 75.969 105.737 75.9907Z" fill="#263238"/>
<path d="M114.841 74.6261C114.899 74.6116 114.957 74.5828 115 74.5394C115.087 74.395 115.043 74.2073 114.899 74.1207C114.069 73.5936 113.029 73.507 112.127 73.8896C111.975 73.9618 111.91 74.1423 111.989 74.294C112.069 74.4456 112.242 74.5033 112.394 74.4311C113.116 74.1568 113.932 74.2362 114.589 74.6477C114.675 74.6766 114.769 74.6694 114.849 74.6261H114.841Z" fill="#263238"/>
<path d="M119.043 68.0042C116.35 69.7229 121.989 77.2188 124.343 84.238C129.83 78.3453 126.422 68.5314 124.516 66.9427C122.617 65.354 121.419 66.5166 119.043 68.0042Z" fill="#263238"/>
<path d="M127.78 76.8288C127.657 78.5836 126.848 80.2157 125.52 81.3639C123.758 82.8804 121.895 81.5372 121.556 79.3563C121.274 77.4138 121.816 74.2363 123.996 73.5792C126.177 72.922 127.902 74.6696 127.78 76.8216V76.8288Z" fill="#F2B269"/>
<path opacity="0.1" d="M123.123 79.2328C122.855 78.0775 123.13 76.8068 123.852 75.861C124.155 75.4567 124.646 75.0885 125.13 75.2473" stroke="black" stroke-width="0.361" stroke-miterlimit="10"/>
<path d="M113.296 83.9053C114.524 83.2916 115.607 82.4252 116.473 81.3639C116.625 81.5444 116.747 81.7465 116.841 81.9631C117.015 82.3458 117.094 82.7646 117.072 83.1833C117.022 84.0425 116.495 85.0677 114.682 85.9847C114.552 86.0569 114.415 86.1291 114.278 86.1868C113.78 85.5009 113.238 84.8511 112.646 84.2374C112.646 84.2374 112.899 84.1219 113.296 83.9053Z" fill="#263238"/>
<path d="M116.437 81.3711C116.589 81.5516 116.711 81.7538 116.805 81.9704C116.538 82.7574 115.462 83.5949 113.758 84.4757L113.26 83.9053C114.488 83.2916 115.571 82.4252 116.437 81.3639V81.3711Z" fill="white" fill-opacity="0.6"/>
<path d="M115.26 84.606C115.773 84.0284 116.386 83.5519 117.072 83.1909C117.022 84.0501 116.495 85.0753 114.682 85.9923C114.726 85.4796 114.928 85.0031 115.26 84.6132V84.606Z" fill="#FF3636"/>
<path d="M110.134 77.8326C109.758 79.6524 109.13 81.4216 108.264 83.0681C109.138 83.4942 110.148 83.5086 111.036 83.1187L110.134 77.8326Z" fill="#DE842C"/>
<path d="M122.848 68.4158C122.848 68.4158 123.563 66.0111 119.043 63.4836C114.524 60.9561 106.921 62.5665 101.867 65.6717C96.813 68.7769 102.538 73.2325 104.907 73.442L104.278 72.6115C106.813 72.8426 109.376 72.5609 111.787 71.781L110.307 71.2394C110.307 71.2394 119.794 70.0407 122.856 68.4158H122.848Z" fill="#263238"/>
<path d="M234.807 92.2762L234.235 101.446L232.253 101.977L233.301 91.0665L234.568 90.727L234.807 92.2762ZM239.424 100.056L234.331 92.404L233.757 90.9442L235.031 90.6028L241.413 99.5225L239.424 100.056ZM238.308 96.405L238.704 97.8831L233.385 99.3087L232.989 97.8305L238.308 96.405Z" fill="#7E571F" fill-opacity="0.5"/>
<path d="M248.613 96.016L249.007 97.4874L243.736 98.9001L243.341 97.4288L248.613 96.016ZM241.651 88.8287L244.308 98.7468L242.435 99.2488L239.778 89.3307L241.651 88.8287ZM246.759 91.8476L247.144 93.2849L242.56 94.5133L242.175 93.076L246.759 91.8476ZM246.329 87.5748L246.725 89.053L241.475 90.4602L241.079 88.982L246.329 87.5748Z" fill="#7E571F" fill-opacity="0.5"/>
<path d="M253.27 96.3448L251.132 96.9179L250.751 95.4429L252.876 94.8734C253.453 94.7189 253.902 94.4622 254.225 94.1032C254.546 93.7397 254.742 93.2905 254.812 92.7556C254.882 92.2161 254.826 91.6081 254.645 90.9314L254.508 90.4205C254.368 89.8983 254.188 89.4526 253.967 89.0834C253.747 88.7141 253.489 88.4231 253.193 88.2103C252.902 87.9962 252.577 87.862 252.217 87.8076C251.857 87.7532 251.468 87.782 251.05 87.8939L248.83 88.489L248.434 87.0108L250.654 86.4157C251.317 86.2381 251.951 86.1875 252.555 86.264C253.164 86.3393 253.724 86.5323 254.236 86.843C254.751 87.148 255.192 87.5602 255.56 88.0798C255.932 88.5981 256.214 89.2138 256.405 89.9267L256.538 90.424C256.728 91.1324 256.792 91.8065 256.73 92.4462C256.671 93.0801 256.495 93.6579 256.201 94.1794C255.912 94.6998 255.521 95.1454 255.027 95.5164C254.532 95.8874 253.947 96.1635 253.27 96.3448ZM249.524 86.7187L252.181 96.6368L250.308 97.1388L247.651 87.2207L249.524 86.7187Z" fill="#7E571F" fill-opacity="0.5"/>
</g>
<defs>
<linearGradient id="paint0_linear_56974_19413" x1="129.967" y1="144.717" x2="224.629" y2="144.267" gradientUnits="userSpaceOnUse">
<stop stop-color="#BBA473"/>
<stop offset="1" stop-color="#685A3D"/>
</linearGradient>
<linearGradient id="paint1_linear_56974_19413" x1="137.844" y1="43.5012" x2="139.361" y2="43.4864" gradientUnits="userSpaceOnUse">
<stop stop-color="#BBA473"/>
<stop offset="1" stop-color="#685A3D"/>
</linearGradient>
<linearGradient id="paint2_linear_56974_19413" x1="140.862" y1="42.829" x2="142.379" y2="42.8216" gradientUnits="userSpaceOnUse">
<stop stop-color="#BBA473"/>
<stop offset="1" stop-color="#685A3D"/>
</linearGradient>
<linearGradient id="paint3_linear_56974_19413" x1="143.895" y1="42.1631" x2="145.412" y2="42.1581" gradientUnits="userSpaceOnUse">
<stop stop-color="#BBA473"/>
<stop offset="1" stop-color="#685A3D"/>
</linearGradient>
<linearGradient id="paint4_linear_56974_19413" x1="208.268" y1="42.208" x2="215.707" y2="42.0858" gradientUnits="userSpaceOnUse">
<stop stop-color="#BBA473"/>
<stop offset="1" stop-color="#685A3D"/>
</linearGradient>
<linearGradient id="paint5_linear_56974_19413" x1="147.844" y1="143.816" x2="206.778" y2="142.916" gradientUnits="userSpaceOnUse">
<stop stop-color="#BBA473"/>
<stop offset="1" stop-color="#685A3D"/>
</linearGradient>
<linearGradient id="paint6_linear_56974_19413" x1="157.519" y1="75.7197" x2="196.011" y2="75.3107" gradientUnits="userSpaceOnUse">
<stop stop-color="#BBA473"/>
<stop offset="1" stop-color="#685A3D"/>
</linearGradient>
<linearGradient id="paint7_linear_56974_19413" x1="162.899" y1="66.1795" x2="190.614" y2="65.5161" gradientUnits="userSpaceOnUse">
<stop stop-color="#BBA473"/>
<stop offset="1" stop-color="#685A3D"/>
</linearGradient>
<linearGradient id="paint8_linear_56974_19413" x1="166.854" y1="66.1779" x2="186.645" y2="65.7109" gradientUnits="userSpaceOnUse">
<stop stop-color="#BBA473"/>
<stop offset="1" stop-color="#685A3D"/>
</linearGradient>
<linearGradient id="paint9_linear_56974_19413" x1="165.981" y1="77.3032" x2="168.545" y2="77.2973" gradientUnits="userSpaceOnUse">
<stop stop-color="#BBA473"/>
<stop offset="1" stop-color="#685A3D"/>
</linearGradient>
<linearGradient id="paint10_linear_56974_19413" x1="171.793" y1="77.3032" x2="174.357" y2="77.2973" gradientUnits="userSpaceOnUse">
<stop stop-color="#BBA473"/>
<stop offset="1" stop-color="#685A3D"/>
</linearGradient>
<linearGradient id="paint11_linear_56974_19413" x1="179.684" y1="77.3032" x2="182.249" y2="77.2973" gradientUnits="userSpaceOnUse">
<stop stop-color="#BBA473"/>
<stop offset="1" stop-color="#685A3D"/>
</linearGradient>
<linearGradient id="paint12_linear_56974_19413" x1="185.395" y1="77.3032" x2="187.96" y2="77.2973" gradientUnits="userSpaceOnUse">
<stop stop-color="#BBA473"/>
<stop offset="1" stop-color="#685A3D"/>
</linearGradient>
<linearGradient id="paint13_linear_56974_19413" x1="162.476" y1="83.7229" x2="190.758" y2="80.9233" gradientUnits="userSpaceOnUse">
<stop stop-color="#BBA473"/>
<stop offset="1" stop-color="#685A3D"/>
</linearGradient>
<linearGradient id="paint14_linear_56974_19413" x1="174.89" y1="66.7279" x2="178.617" y2="66.6914" gradientUnits="userSpaceOnUse">
<stop stop-color="#BBA473"/>
<stop offset="1" stop-color="#685A3D"/>
</linearGradient>
<linearGradient id="paint15_linear_56974_19413" x1="163.591" y1="72.0878" x2="189.247" y2="67.9262" gradientUnits="userSpaceOnUse">
<stop stop-color="#BBA473"/>
<stop offset="1" stop-color="#685A3D"/>
</linearGradient>
<linearGradient id="paint16_linear_56974_19413" x1="163.858" y1="71.3188" x2="186.143" y2="62.4631" gradientUnits="userSpaceOnUse">
<stop stop-color="#BBA473"/>
<stop offset="1" stop-color="#685A3D"/>
</linearGradient>
<linearGradient id="paint17_linear_56974_19413" x1="163.858" y1="83.653" x2="186.143" y2="74.7973" gradientUnits="userSpaceOnUse">
<stop stop-color="#BBA473"/>
<stop offset="1" stop-color="#685A3D"/>
</linearGradient>
<linearGradient id="paint18_linear_56974_19413" x1="154.775" y1="98.8172" x2="197.925" y2="89.6962" gradientUnits="userSpaceOnUse">
<stop stop-color="#BBA473"/>
<stop offset="1" stop-color="#685A3D"/>
</linearGradient>
<linearGradient id="paint19_linear_56974_19413" x1="144.566" y1="109.736" x2="166.919" y2="107.367" gradientUnits="userSpaceOnUse">
<stop stop-color="#BBA473"/>
<stop offset="1" stop-color="#685A3D"/>
</linearGradient>
<linearGradient id="paint20_linear_56974_19413" x1="171.778" y1="109.736" x2="188.166" y2="108.469" gradientUnits="userSpaceOnUse">
<stop stop-color="#BBA473"/>
<stop offset="1" stop-color="#685A3D"/>
</linearGradient>
<linearGradient id="paint21_linear_56974_19413" x1="192.94" y1="109.736" x2="209.327" y2="108.469" gradientUnits="userSpaceOnUse">
<stop stop-color="#BBA473"/>
<stop offset="1" stop-color="#685A3D"/>
</linearGradient>
<linearGradient id="paint22_linear_56974_19413" x1="149.613" y1="176.94" x2="156.099" y2="176.876" gradientUnits="userSpaceOnUse">
<stop stop-color="#BBA473"/>
<stop offset="1" stop-color="#685A3D"/>
</linearGradient>
<linearGradient id="paint23_linear_56974_19413" x1="163.186" y1="176.073" x2="203.748" y2="167.545" gradientUnits="userSpaceOnUse">
<stop stop-color="#BBA473"/>
<stop offset="1" stop-color="#685A3D"/>
</linearGradient>
<linearGradient id="paint24_linear_56974_19413" x1="149.071" y1="189.859" x2="155.558" y2="189.795" gradientUnits="userSpaceOnUse">
<stop stop-color="#BBA473"/>
<stop offset="1" stop-color="#685A3D"/>
</linearGradient>
<linearGradient id="paint25_linear_56974_19413" x1="163.186" y1="189.028" x2="203.748" y2="180.5" gradientUnits="userSpaceOnUse">
<stop stop-color="#BBA473"/>
<stop offset="1" stop-color="#685A3D"/>
</linearGradient>
<linearGradient id="paint26_linear_56974_19413" x1="149.613" y1="202.244" x2="156.099" y2="202.18" gradientUnits="userSpaceOnUse">
<stop stop-color="#BBA473"/>
<stop offset="1" stop-color="#685A3D"/>
</linearGradient>
<linearGradient id="paint27_linear_56974_19413" x1="163.186" y1="201.991" x2="203.748" y2="193.463" gradientUnits="userSpaceOnUse">
<stop stop-color="#BBA473"/>
<stop offset="1" stop-color="#685A3D"/>
</linearGradient>
<linearGradient id="paint28_linear_56974_19413" x1="218.276" y1="96.9594" x2="254.776" y2="96.6753" gradientUnits="userSpaceOnUse">
<stop stop-color="#BBA473"/>
<stop offset="1" stop-color="#685A3D"/>
</linearGradient>
<linearGradient id="paint29_linear_56974_19413" x1="224.578" y1="105.009" x2="266.28" y2="83.9656" gradientUnits="userSpaceOnUse">
<stop stop-color="#BBA473"/>
<stop offset="1" stop-color="#685A3D"/>
</linearGradient>
<linearGradient id="paint30_linear_56974_19413" x1="225.651" y1="94.4293" x2="263.059" y2="94.0631" gradientUnits="userSpaceOnUse">
<stop stop-color="#BBA473"/>
<stop offset="1" stop-color="#685A3D"/>
</linearGradient>
<linearGradient id="paint31_linear_56974_19413" x1="225.979" y1="87.8449" x2="263.372" y2="87.3212" gradientUnits="userSpaceOnUse">
<stop stop-color="#BBA473"/>
<stop offset="1" stop-color="#685A3D"/>
</linearGradient>
<linearGradient id="paint32_linear_56974_19413" x1="64.404" y1="162.149" x2="84.0794" y2="161.996" gradientUnits="userSpaceOnUse">
<stop stop-color="#BBA473"/>
<stop offset="1" stop-color="#685A3D"/>
</linearGradient>
<linearGradient id="paint33_linear_56974_19413" x1="65.8654" y1="161.06" x2="91.0512" y2="160.814" gradientUnits="userSpaceOnUse">
<stop stop-color="#BBA473"/>
<stop offset="1" stop-color="#685A3D"/>
</linearGradient>
<linearGradient id="paint34_linear_56974_19413" x1="68.3729" y1="160.779" x2="88.5341" y2="160.582" gradientUnits="userSpaceOnUse">
<stop stop-color="#BBA473"/>
<stop offset="1" stop-color="#685A3D"/>
</linearGradient>
<linearGradient id="paint35_linear_56974_19413" x1="74.8178" y1="160.478" x2="81.871" y2="160.431" gradientUnits="userSpaceOnUse">
<stop stop-color="#BBA473"/>
<stop offset="1" stop-color="#685A3D"/>
</linearGradient>
<linearGradient id="paint36_linear_56974_19413" x1="68.554" y1="157.23" x2="88.7067" y2="156.948" gradientUnits="userSpaceOnUse">
<stop stop-color="#BBA473"/>
<stop offset="1" stop-color="#685A3D"/>
</linearGradient>
<linearGradient id="paint37_linear_56974_19413" x1="61.8218" y1="62.6347" x2="92.0977" y2="62.3383" gradientUnits="userSpaceOnUse">
<stop stop-color="#BBA473"/>
<stop offset="1" stop-color="#685A3D"/>
</linearGradient>
<linearGradient id="paint38_linear_56974_19413" x1="76.0338" y1="46.5441" x2="89.267" y2="46.2097" gradientUnits="userSpaceOnUse">
<stop stop-color="#BBA473"/>
<stop offset="1" stop-color="#685A3D"/>
</linearGradient>
<linearGradient id="paint39_linear_56974_19413" x1="90.676" y1="51.6201" x2="91.8968" y2="51.6123" gradientUnits="userSpaceOnUse">
<stop stop-color="#BBA473"/>
<stop offset="1" stop-color="#685A3D"/>
</linearGradient>
<linearGradient id="paint40_linear_56974_19413" x1="98.3488" y1="282.134" x2="104.07" y2="281.987" gradientUnits="userSpaceOnUse">
<stop stop-color="#BBA473"/>
<stop offset="1" stop-color="#685A3D"/>
</linearGradient>
<linearGradient id="paint41_linear_56974_19413" x1="99.3705" y1="280.104" x2="104.109" y2="280.027" gradientUnits="userSpaceOnUse">
<stop stop-color="#BBA473"/>
<stop offset="1" stop-color="#685A3D"/>
</linearGradient>
<linearGradient id="paint42_linear_56974_19413" x1="103.312" y1="281.666" x2="106.9" y2="281.562" gradientUnits="userSpaceOnUse">
<stop stop-color="#BBA473"/>
<stop offset="1" stop-color="#685A3D"/>
</linearGradient>
<linearGradient id="paint43_linear_56974_19413" x1="102.049" y1="283.738" x2="105.637" y2="283.635" gradientUnits="userSpaceOnUse">
<stop stop-color="#BBA473"/>
<stop offset="1" stop-color="#685A3D"/>
</linearGradient>
<linearGradient id="paint44_linear_56974_19413" x1="100.258" y1="285.768" x2="103.846" y2="285.664" gradientUnits="userSpaceOnUse">
<stop stop-color="#BBA473"/>
<stop offset="1" stop-color="#685A3D"/>
</linearGradient>
<linearGradient id="paint45_linear_56974_19413" x1="103.682" y1="284.257" x2="109.439" y2="284.104" gradientUnits="userSpaceOnUse">
<stop stop-color="#BBA473"/>
<stop offset="1" stop-color="#685A3D"/>
</linearGradient>
<linearGradient id="paint46_linear_56974_19413" x1="105.462" y1="282.913" x2="109.479" y2="282.871" gradientUnits="userSpaceOnUse">
<stop stop-color="#BBA473"/>
<stop offset="1" stop-color="#685A3D"/>
</linearGradient>
<linearGradient id="paint47_linear_56974_19413" x1="108.899" y1="285.288" x2="111.672" y2="285.237" gradientUnits="userSpaceOnUse">
<stop stop-color="#BBA473"/>
<stop offset="1" stop-color="#685A3D"/>
</linearGradient>
<linearGradient id="paint48_linear_56974_19413" x1="107.08" y1="286.898" x2="109.853" y2="286.847" gradientUnits="userSpaceOnUse">
<stop stop-color="#BBA473"/>
<stop offset="1" stop-color="#685A3D"/>
</linearGradient>
<linearGradient id="paint49_linear_56974_19413" x1="104.777" y1="288.313" x2="107.55" y2="288.263" gradientUnits="userSpaceOnUse">
<stop stop-color="#BBA473"/>
<stop offset="1" stop-color="#685A3D"/>
</linearGradient>
<linearGradient id="paint50_linear_56974_19413" x1="81.6676" y1="217.153" x2="131.626" y2="216.969" gradientUnits="userSpaceOnUse">
<stop stop-color="#BBA473"/>
<stop offset="1" stop-color="#685A3D"/>
</linearGradient>
<linearGradient id="paint51_linear_56974_19413" x1="105.123" y1="151.116" x2="142.897" y2="150.424" gradientUnits="userSpaceOnUse">
<stop stop-color="#BBA473"/>
<stop offset="1" stop-color="#685A3D"/>
</linearGradient>
<linearGradient id="paint52_linear_56974_19413" x1="111.079" y1="216.825" x2="141.919" y2="216.756" gradientUnits="userSpaceOnUse">
<stop stop-color="#BBA473"/>
<stop offset="1" stop-color="#685A3D"/>
</linearGradient>
<clipPath id="clip0_56974_19413">
<rect width="361" height="300" fill="white"/>
</clipPath>
</defs>
</svg>
