<svg width="20" height="20" viewBox="0 0 20 20" fill="none" xmlns="http://www.w3.org/2000/svg">
<path d="M10 10.6293L12.8853 13.5147C12.9683 13.5976 13.0702 13.6421 13.1911 13.648C13.312 13.6539 13.4199 13.6095 13.5147 13.5147C13.6095 13.4199 13.6569 13.315 13.6569 13.2C13.6569 13.085 13.6095 12.9801 13.5147 12.8853L10.6293 10L13.5147 7.11467C13.5976 7.0317 13.6421 6.92978 13.648 6.80889C13.6539 6.688 13.6095 6.58015 13.5147 6.48533C13.4199 6.39052 13.315 6.34311 13.2 6.34311C13.085 6.34311 12.9801 6.39052 12.8853 6.48533L10 9.37067L7.11467 6.48533C7.0317 6.40237 6.92978 6.35793 6.80889 6.352C6.688 6.34607 6.58015 6.39052 6.48533 6.48533C6.39052 6.58015 6.34311 6.68504 6.34311 6.8C6.34311 6.91496 6.39052 7.01985 6.48533 7.11467L9.37067 10L6.48533 12.8853C6.40237 12.9683 6.35793 13.0705 6.352 13.192C6.34607 13.3123 6.39052 13.4199 6.48533 13.5147C6.58015 13.6095 6.68504 13.6569 6.8 13.6569C6.91496 13.6569 7.01985 13.6095 7.11467 13.5147L10 10.6293ZM10.0027 18C8.8963 18 7.8563 17.7902 6.88267 17.3707C5.90904 16.9505 5.06193 16.3804 4.34133 15.6604C3.62074 14.9404 3.05037 14.0942 2.63022 13.1218C2.21007 12.1493 2 11.1096 2 10.0027C2 8.8957 2.21007 7.8557 2.63022 6.88267C3.04978 5.90904 3.61896 5.06193 4.33778 4.34133C5.05659 3.62074 5.90311 3.05037 6.87733 2.63022C7.85156 2.21007 8.89156 2 9.99733 2C11.1031 2 12.1431 2.21007 13.1173 2.63022C14.091 3.04978 14.9381 3.61926 15.6587 4.33867C16.3793 5.05807 16.9496 5.90459 17.3698 6.87822C17.7899 7.85185 18 8.89155 18 9.99733C18 11.1031 17.7902 12.1431 17.3707 13.1173C16.9511 14.0916 16.381 14.9387 15.6604 15.6587C14.9399 16.3787 14.0936 16.949 13.1218 17.3698C12.1499 17.7905 11.1102 18.0006 10.0027 18ZM10 17.1111C11.9852 17.1111 13.6667 16.4222 15.0444 15.0444C16.4222 13.6667 17.1111 11.9852 17.1111 10C17.1111 8.01481 16.4222 6.33333 15.0444 4.95555C13.6667 3.57778 11.9852 2.88889 10 2.88889C8.01481 2.88889 6.33333 3.57778 4.95556 4.95555C3.57778 6.33333 2.88889 8.01481 2.88889 10C2.88889 11.9852 3.57778 13.6667 4.95556 15.0444C6.33333 16.4222 8.01481 17.1111 10 17.1111Z" fill="#8E8E93" stroke="#8E8E93"/>
</svg>
