<svg width="361" height="300" viewBox="0 0 361 300" fill="none" xmlns="http://www.w3.org/2000/svg">
<g clip-path="url(#clip0_57370_9887)">
<path d="M265.393 202.879C264.88 203.348 264.252 203.637 263.501 203.738L263.487 204.092C263.479 204.273 263.407 204.424 263.263 204.554C263.126 204.684 262.967 204.742 262.786 204.735C262.606 204.728 262.461 204.655 262.346 204.518C262.23 204.381 262.18 204.215 262.187 204.034L262.202 203.724C261.544 203.608 260.974 203.37 260.512 203.016C260.043 202.662 259.725 202.258 259.537 201.796C259.451 201.579 259.415 201.399 259.422 201.254C259.429 201.066 259.508 200.908 259.653 200.778C259.797 200.648 259.963 200.59 260.165 200.597C260.324 200.604 260.461 200.662 260.577 200.756C260.693 200.857 260.779 200.98 260.822 201.131C260.909 201.449 261.09 201.709 261.357 201.926C261.624 202.142 261.942 202.294 262.288 202.388L262.498 199.384C261.732 199.095 261.14 198.734 260.714 198.322C260.288 197.903 260.093 197.376 260.129 196.726C260.165 196.069 260.418 195.535 260.887 195.109C261.357 194.69 261.992 194.444 262.786 194.379L262.801 194.083C262.808 193.903 262.88 193.751 263.017 193.621C263.147 193.491 263.299 193.433 263.472 193.441C263.653 193.448 263.804 193.527 263.927 193.664C264.05 193.809 264.108 193.968 264.1 194.148L264.086 194.43C264.844 194.545 265.422 194.791 265.833 195.166C266.245 195.542 266.432 196.004 266.404 196.546C266.396 196.755 266.317 196.921 266.18 197.051C266.043 197.181 265.876 197.239 265.689 197.232C265.523 197.225 265.378 197.16 265.27 197.051C265.162 196.936 265.097 196.799 265.09 196.625C265.075 196.43 264.967 196.242 264.772 196.084C264.577 195.917 264.317 195.795 263.992 195.715L263.797 198.38C265.465 199.015 266.266 199.947 266.209 201.167C266.172 201.832 265.898 202.402 265.393 202.872V202.879ZM261.725 197.362C261.905 197.557 262.194 197.745 262.599 197.932L262.729 195.672C262.331 195.715 262.028 195.831 261.819 196.011C261.609 196.192 261.494 196.423 261.48 196.705C261.465 196.95 261.552 197.167 261.725 197.355V197.362ZM264.497 201.976C264.736 201.745 264.866 201.478 264.88 201.182C264.895 200.936 264.808 200.705 264.635 200.489C264.461 200.265 264.151 200.055 263.71 199.86L263.566 202.446C263.949 202.373 264.259 202.215 264.497 201.984V201.976Z" fill="#F5F5F5" fill-opacity="0.3"/>
<path d="M255.277 191.578C259.306 187.144 266.158 186.819 270.591 190.848C275.024 194.878 275.349 201.731 271.32 206.165C274.49 201.695 273.826 195.557 269.768 191.874C265.335 187.844 258.483 188.176 254.454 192.603C254.707 192.249 254.981 191.91 255.27 191.585L255.277 191.578Z" fill="#E0E0E0" fill-opacity="0.7"/>
<path d="M55.695 240.402C55.6806 240.055 54.5254 205.919 48.9732 200.518C43.5726 195.268 37.3779 200.323 37.118 200.54L36.562 199.875C36.6342 199.817 43.6304 194.105 49.5869 199.897C55.3918 205.537 56.5253 238.958 56.5686 240.38L55.7022 240.409L55.695 240.402Z" fill="#E0E0E0" fill-opacity="0.7"/>
<path d="M56.1715 247.118C56.1282 246.706 52.3738 206.129 67.1964 189.123L67.8535 189.693C53.2835 206.418 57.0018 246.627 57.0451 247.031L56.1787 247.118H56.1715Z" fill="#E0E0E0" fill-opacity="0.7"/>
<path d="M55.6229 242.821L54.7565 242.764C54.7854 242.302 57.659 196.633 46.7856 186.631L47.3705 185.989C58.5398 196.265 55.7457 240.922 55.6157 242.814L55.6229 242.821Z" fill="#E0E0E0" fill-opacity="0.7"/>
<path d="M57.038 242.8H56.1716C56.1789 241.536 56.5326 211.943 64.9367 207.126C66.8067 206.057 68.6333 205.877 70.3734 206.599C75.4562 208.7 77.976 217.749 78.0771 218.131L77.2396 218.362C77.2179 218.276 74.727 209.343 70.0413 207.408C68.5612 206.794 66.9944 206.96 65.3699 207.891C57.3918 212.463 57.0453 242.511 57.0453 242.814L57.038 242.8Z" fill="#E0E0E0" fill-opacity="0.7"/>
<path d="M53.7673 242.821L52.9009 242.771C52.9154 242.54 54.1717 219.388 47.9191 211.228C46.4029 209.249 44.764 208.31 43.024 208.433C38.9302 208.722 35.5007 214.708 35.4646 214.773L34.7065 214.347C34.8582 214.087 38.4032 207.891 42.959 207.574C45.0023 207.429 46.9011 208.484 48.605 210.708C55.0453 219.121 53.8179 241.861 53.7601 242.829L53.7673 242.821Z" fill="#E0E0E0" fill-opacity="0.7"/>
<path d="M55.1391 245.97C54.9658 243.724 51.0526 190.863 57.9405 181.547L58.6408 182.06C51.9479 191.116 55.9622 245.356 56.0055 245.898L55.1391 245.963V245.97Z" fill="#E0E0E0" fill-opacity="0.7"/>
<path d="M72.2434 211.949C72.2434 211.949 68.1136 213.473 69.341 217.069C70.5684 220.666 83.6293 226.58 83.6293 226.58C83.6293 226.58 89.1021 221.568 84.077 213.408C79.0519 205.255 72.3517 209.371 72.2434 211.949Z" fill="#BBA473"/>
<path d="M54.2872 205.104C54.2872 205.104 58.6842 204.916 58.9369 208.714C59.1896 212.506 49.4065 222.998 49.4065 222.998C49.4065 222.998 42.4247 220.478 43.9265 211.011C45.4283 201.551 53.197 202.771 54.2872 205.104Z" fill="#BBA473"/>
<path d="M50.5617 186.956C50.5617 186.956 53.4931 186.638 53.2548 184.855C53.0165 183.071 41.8544 178.471 35.2698 185.902C35.2698 185.902 39.4863 193.145 45.5872 193.246C51.6808 193.34 50.5617 186.956 50.5617 186.956Z" fill="#BBA473"/>
<path d="M56.0273 182.616C56.0273 182.616 53.3703 183.901 52.6266 182.262C51.883 180.623 58.9225 170.816 68.4457 173.64C68.4457 173.64 68.6984 182.024 63.5722 185.324C58.446 188.631 56.02 182.616 56.02 182.616H56.0273Z" fill="#BBA473"/>
<path d="M42.1432 210.505C42.1432 210.505 44.1648 208.873 41.9843 208.071C39.7967 207.277 29.0822 207.501 28.9739 218.116C28.9739 218.116 41.4573 220.189 43.0023 216.145C44.5474 212.101 42.1504 210.498 42.1504 210.498L42.1432 210.505Z" fill="#BBA473"/>
<path d="M67.5938 186.689C67.5938 186.689 65.5721 185.057 67.7526 184.255C69.9402 183.461 80.6547 183.685 80.763 194.3C80.763 194.3 68.2796 196.373 66.7346 192.329C65.1895 188.285 67.5865 186.681 67.5865 186.681L67.5938 186.689Z" fill="#BBA473"/>
<path d="M60.9945 195.246C60.9945 195.246 60.814 193.26 62.4169 194.04C64.0197 194.82 69.608 200.85 63.8176 206.57C63.8176 206.57 56.02 200.792 57.4279 197.788C58.8358 194.784 60.9945 195.254 60.9945 195.254V195.246Z" fill="#BBA473"/>
<path d="M40.3309 198.077C40.3309 198.077 41.5439 196.488 39.7677 196.293C37.9988 196.098 30.0568 198.214 31.9052 206.143C31.9052 206.143 41.58 205.414 41.9915 202.121C42.403 198.828 40.3309 198.07 40.3309 198.07V198.077Z" fill="#BBA473"/>
<path d="M65.1749 258.116H45.6592L40.468 234.17H69.8679L65.1749 258.116Z" fill="#CCC1AD"/>
<path d="M71.5647 233.823H38.6992V240.712H71.5647V233.823Z" fill="#E6E6E6" fill-opacity="0.2"/>
<path d="M311.42 32.2075H238.809V182.471H311.42V32.2075Z" fill="#D6CFC0"/>
<path d="M307.052 36.5767H243.169V178.11H307.052V36.5767Z" fill="#CFC3A9"/>
<path d="M268.245 178.102H287.443L305.471 36.5767H286.273L268.245 178.102Z" fill="#F0F0F0" fill-opacity="0.4"/>
<path d="M277.349 36.5767L259.321 178.102H263.978L282.006 36.5767H277.349Z" fill="#F0F0F0" fill-opacity="0.4"/>
<path d="M312.337 35.8538H237.885L236.318 32.186H313.911L312.337 35.8538Z" fill="#E0D6C9" fill-opacity="0.7"/>
<path d="M312.337 37.9768H237.885L236.318 34.3091H313.911L312.337 37.9768Z" fill="#EFE1D7" fill-opacity="0.7"/>
<path d="M312.337 40.0927H237.885L236.318 36.4321H313.911L312.337 40.0927Z" fill="#D9CCC0" fill-opacity="0.2"/>
<path d="M312.337 42.2157H237.885L236.318 38.5552H313.911L312.337 42.2157Z" fill="#E0D6C9" fill-opacity="0.7"/>
<path d="M234.47 76.8074C234 76.8074 233.625 76.4318 233.625 75.9624V47.4378C233.625 46.9756 234.007 46.6001 234.47 46.6001C234.939 46.6001 235.314 46.9756 235.314 47.445V75.9624C235.314 76.4318 234.939 76.8074 234.47 76.8074Z" fill="#E0E0E0" fill-opacity="0.7"/>
<path d="M234.773 31.5H234.159V48.4343H234.773V31.5Z" fill="#E0E0E0" fill-opacity="0.7"/>
<path d="M316.619 27.5933H233.61V32.4812H316.619V27.5933Z" fill="#D6CFC0"/>
<path d="M331.593 213.921H201.092C198.759 213.921 196.861 212.021 196.861 209.689V19.5701C196.861 17.2376 198.759 15.3384 201.092 15.3384H331.593C333.925 15.3384 335.824 17.2376 335.824 19.5701V209.689C335.824 212.021 333.925 213.921 331.593 213.921ZM201.099 15.5117C198.868 15.5117 197.048 17.3315 197.048 19.5629V209.682C197.048 211.913 198.868 213.733 201.099 213.733H331.6C333.831 213.733 335.651 211.913 335.651 209.682V19.5701C335.651 17.3387 333.831 15.5189 331.6 15.5189H201.099V15.5117Z" fill="#E0E0E0" fill-opacity="0.7"/>
<path d="M159.786 213.921H29.2915C26.9594 213.921 25.0605 212.021 25.0605 209.689V19.5701C25.0605 17.2376 26.9594 15.3384 29.2915 15.3384H159.793C162.125 15.3384 164.024 17.2376 164.024 19.5701V209.689C164.024 212.021 162.125 213.921 159.793 213.921H159.786ZM29.2915 15.5117C27.0605 15.5117 25.241 17.3315 25.241 19.5629V209.682C25.241 211.913 27.0605 213.733 29.2915 213.733H159.793C162.024 213.733 163.843 211.913 163.843 209.682V19.5701C163.843 17.3387 162.024 15.5189 159.793 15.5189H29.2915V15.5117Z" fill="#E0E0E0" fill-opacity="0.7"/>
<path d="M361 258.022H0V258.202H361V258.022Z" fill="#E0E0E0" fill-opacity="0.7"/>
<path d="M48.901 268.327H37.3057V268.507H48.901V268.327Z" fill="#E0E0E0" fill-opacity="0.7"/>
<path d="M161.641 266.37H122.993V266.55H161.641V266.37Z" fill="#E0E0E0" fill-opacity="0.7"/>
<path d="M75.7955 275.036H49.623V275.216H75.7955V275.036Z" fill="#E0E0E0" fill-opacity="0.7"/>
<path d="M304.352 266.276H273.169V266.456H304.352V266.276Z" fill="#E0E0E0" fill-opacity="0.7"/>
<path d="M315.355 266.276H310.785V266.456H315.355V266.276Z" fill="#E0E0E0" fill-opacity="0.7"/>
<path d="M267.212 270.775H228.304V270.955H267.212V270.775Z" fill="#E0E0E0" fill-opacity="0.7"/>
<path d="M134.046 16.3422H114.704C114.098 16.3422 113.838 15.5768 114.314 15.2085L123.455 8.08815L133.657 0.137355C133.888 -0.0431808 134.205 -0.0431808 134.436 0.137355L144.645 8.08815L153.786 15.2085C154.262 15.5768 154.002 16.3422 153.396 16.3422H134.054H134.046Z" fill="#CFC3A8"/>
<path d="M147.728 13.9012H120.372C120.119 13.9012 119.895 13.7423 119.816 13.504C119.736 13.2657 119.816 13.0058 120.011 12.8469L133.685 2.18805C133.902 2.02195 134.198 2.02195 134.407 2.18805L148.082 12.8469C148.277 12.9985 148.356 13.2657 148.277 13.504C148.197 13.7423 147.974 13.9012 147.721 13.9012H147.728ZM121.303 12.9913H146.797L134.053 3.06184L121.31 12.9913H121.303Z" fill="#DCD5C5"/>
<path d="M122.213 16.3423H118.516V32.1356H122.213V16.3423Z" fill="#CFC3A8"/>
<path d="M130.595 16.3423H126.899V32.1356H130.595V16.3423Z" fill="#CFC3A8"/>
<path d="M141.967 16.3423H138.27V32.1356H141.967V16.3423Z" fill="#CFC3A8"/>
<path d="M150.161 16.3423H146.465V32.1356H150.161V16.3423Z" fill="#CFC3A8"/>
<path d="M153.764 36.2006H114.336C113.765 36.2006 113.354 35.6663 113.498 35.1176L114.098 32.7855C114.199 32.4029 114.545 32.1357 114.935 32.1357H153.021C153.396 32.1357 153.735 32.3812 153.851 32.7422L154.595 35.0743C154.775 35.6374 154.356 36.2078 153.764 36.2078V36.2006Z" fill="#CFC3A8"/>
<path d="M134.046 11.8288C132.566 11.8288 131.361 10.6228 131.361 9.14243C131.361 7.66203 132.566 6.45605 134.046 6.45605C135.527 6.45605 136.732 7.66203 136.732 9.14243C136.732 10.6228 135.527 11.8288 134.046 11.8288ZM134.046 7.35873C133.065 7.35873 132.27 8.16031 132.27 9.13521C132.27 10.1101 133.065 10.9117 134.046 10.9117C135.028 10.9117 135.823 10.1101 135.823 9.13521C135.823 8.16031 135.028 7.35873 134.046 7.35873Z" fill="#DCD5C5"/>
<path d="M152.573 16.3423H115.527C115.28 16.3423 115.079 16.5427 115.079 16.7899V18.1906C115.079 18.4378 115.28 18.6382 115.527 18.6382H152.573C152.82 18.6382 153.02 18.4378 153.02 18.1906V16.7899C153.02 16.5427 152.82 16.3423 152.573 16.3423Z" fill="#B3A688"/>
<path d="M152.183 16.92H115.917C115.664 16.92 115.462 16.7178 115.462 16.4651C115.462 16.2124 115.664 16.0103 115.917 16.0103H152.183C152.436 16.0103 152.638 16.2124 152.638 16.4651C152.638 16.7178 152.436 16.92 152.183 16.92Z" fill="#BEB5A3"/>
<path d="M152.183 34.251H115.917C115.664 34.251 115.462 34.0489 115.462 33.7962C115.462 33.5435 115.664 33.3413 115.917 33.3413H152.183C152.436 33.3413 152.638 33.5435 152.638 33.7962C152.638 34.0489 152.436 34.251 152.183 34.251Z" fill="#DCD5C5"/>
<path d="M92.6036 32.1782H39.8398V115.853H92.6036V32.1782Z" fill="#978C75"/>
<path d="M90.4881 32.1064H39.8398V113.405H90.4881V32.1064Z" fill="#ADA492"/>
<path d="M82.7698 39.3281H47.5435V106.184H82.7698V39.3281Z" fill="#D0C3A9"/>
<path d="M72.4238 53.4097H58.3665V92.4776H72.4238V53.4097Z" fill="#DCD5C5"/>
<path d="M184.348 300C267.635 300 335.152 297.423 335.152 294.245C335.152 291.066 267.635 288.489 184.348 288.489C101.062 288.489 33.5442 291.066 33.5442 294.245C33.5442 297.423 101.062 300 184.348 300Z" fill="#F5F5F5" fill-opacity="0.3"/>
<path d="M213.3 234.4H141.295C133.194 234.4 126.639 227.829 126.184 219.828V47.6902C126.639 39.4939 133.202 32.9296 141.295 32.9224H213.3C221.401 32.9224 227.964 39.4939 227.964 47.5891V219.726C227.964 227.829 221.394 234.386 213.3 234.393V234.4Z" fill="#263238"/>
<path d="M213.3 36.2946H194.586C193.373 36.2946 192.341 37.1828 192.175 38.3888L192.095 38.9737C191.705 41.9345 189.178 44.1587 186.196 44.1659H168.414C165.424 44.1515 162.905 41.9345 162.515 38.9737L162.443 38.3888C162.284 37.1756 161.244 36.2657 160.017 36.2657H141.302C135.064 36.244 129.989 41.2846 129.967 47.5239C129.967 47.5456 129.967 47.5672 129.967 47.5961V219.733C129.967 225.973 135.021 231.035 141.266 231.035H213.271C219.509 231.035 224.571 225.98 224.578 219.733V47.5961C224.578 41.3712 219.538 36.3235 213.315 36.2946H213.3Z" fill="url(#paint0_linear_57370_9887)"/>
<path opacity="0.7" d="M213.3 36.2946H194.586C193.373 36.2946 192.341 37.1828 192.175 38.3888L192.095 38.9737C191.705 41.9345 189.178 44.1587 186.196 44.1659H168.414C165.424 44.1515 162.905 41.9345 162.515 38.9737L162.443 38.3888C162.284 37.1756 161.244 36.2657 160.017 36.2657H141.302C135.064 36.244 129.989 41.2846 129.967 47.5239C129.967 47.5456 129.967 47.5672 129.967 47.5961V219.733C129.967 225.973 135.021 231.035 141.266 231.035H213.271C219.509 231.035 224.571 225.98 224.578 219.733V47.5961C224.578 41.3712 219.538 36.3235 213.315 36.2946H213.3Z" fill="white" fill-opacity="0.6"/>
<g opacity="0.7">
<path d="M172.948 38.2007C172.948 38.9949 172.312 39.6374 171.525 39.6447C170.731 39.6447 170.089 39.0093 170.081 38.2223C170.081 37.4281 170.717 36.7855 171.504 36.7783C171.504 36.7783 171.518 36.7783 171.525 36.7783C172.312 36.7783 172.948 37.4137 172.948 38.2007Z" fill="black"/>
<path d="M183.084 36.7715H178.182C177.395 36.7715 176.76 37.4068 176.76 38.1938C176.76 38.9808 177.395 39.6162 178.182 39.6162H183.084C183.871 39.6162 184.507 38.9808 184.507 38.1938C184.507 37.4068 183.871 36.7715 183.084 36.7715Z" fill="black"/>
</g>
<path d="M139.36 42.6567H137.844V44.1729H139.36V42.6567Z" fill="url(#paint1_linear_57370_9887)"/>
<path d="M140.862 42.6563V44.1725H142.378V42.6563V41.1401H140.862V42.6563Z" fill="url(#paint2_linear_57370_9887)"/>
<path d="M143.895 39.6382V41.1399V42.6561V44.1723H145.411V42.6561V41.1399V39.6382H143.895Z" fill="url(#paint3_linear_57370_9887)"/>
<path d="M209.005 39.7393V40.8439H208.268V43.0677H209.005V44.1723H215.705V39.7393H209.005ZM211.994 43.0677H209.719V40.8439H211.943L211.994 43.0677Z" fill="url(#paint4_linear_57370_9887)"/>
<path d="M205.56 122.786H149.042C148.38 122.786 147.844 123.322 147.844 123.984V159.355C147.844 160.017 148.38 160.554 149.042 160.554H205.56C206.222 160.554 206.759 160.017 206.759 159.355V123.984C206.759 123.322 206.222 122.786 205.56 122.786Z" fill="url(#paint5_linear_57370_9887)"/>
<path opacity="0.6" d="M166.089 130.296H157.353C156.531 130.296 155.865 130.962 155.865 131.784V138.918C155.865 139.74 156.531 140.406 157.353 140.406H166.089C166.91 140.406 167.576 139.74 167.576 138.918V131.784C167.576 130.962 166.91 130.296 166.089 130.296Z" fill="white" fill-opacity="0.6"/>
<g opacity="0.3">
<path d="M155.865 148.104H163.482C164.349 148.104 164.349 146.761 163.482 146.761H155.865C154.999 146.761 154.999 148.104 155.865 148.104Z" fill="black"/>
</g>
<g opacity="0.3">
<path d="M167.583 148.104H175.2C176.067 148.104 176.067 146.761 175.2 146.761H167.583C166.717 146.761 166.717 148.104 167.583 148.104Z" fill="black"/>
</g>
<g opacity="0.3">
<path d="M179.308 148.104H186.926C187.792 148.104 187.792 146.761 186.926 146.761H179.308C178.442 146.761 178.442 148.104 179.308 148.104Z" fill="black"/>
</g>
<g opacity="0.3">
<path d="M191.034 148.104H198.651C199.517 148.104 199.517 146.761 198.651 146.761H191.034C190.167 146.761 190.167 148.104 191.034 148.104Z" fill="black"/>
</g>
<path d="M194.174 55.9805H159.338C158.333 55.9805 157.519 56.7952 157.519 57.8003V89.6107C157.519 90.6157 158.333 91.4305 159.338 91.4305H194.174C195.179 91.4305 195.994 90.6157 195.994 89.6107V57.8003C195.994 56.7952 195.179 55.9805 194.174 55.9805Z" fill="url(#paint6_linear_57370_9887)"/>
<path d="M176.753 71.203H163.338C162.919 71.203 162.739 70.6759 163.071 70.4159L169.41 65.4764L176.485 59.9593C176.644 59.8365 176.868 59.8365 177.027 59.9593L184.102 65.4764L190.442 70.4159C190.774 70.6759 190.593 71.203 190.175 71.203H176.76H176.753Z" fill="url(#paint7_linear_57370_9887)"/>
<g opacity="0.7">
<path d="M176.753 71.203H163.338C162.919 71.203 162.739 70.6759 163.071 70.4159L169.41 65.4764L176.485 59.9593C176.644 59.8365 176.868 59.8365 177.027 59.9593L184.102 65.4764L190.442 70.4159C190.774 70.6759 190.593 71.203 190.175 71.203H176.76H176.753Z" fill="white" fill-opacity="0.6"/>
</g>
<path d="M186.24 69.8167H167.266C167.092 69.8167 166.934 69.7084 166.876 69.5423C166.818 69.3762 166.876 69.1957 167.013 69.0874L176.5 61.6926C176.652 61.5771 176.854 61.5771 176.998 61.6926L186.485 69.0874C186.622 69.1957 186.68 69.3762 186.622 69.5423C186.565 69.7084 186.413 69.8167 186.233 69.8167H186.24ZM167.908 69.1885H185.59L176.746 62.2992L167.901 69.1885H167.908Z" fill="url(#paint8_linear_57370_9887)"/>
<path d="M168.544 71.2031H165.98V82.158H168.544V71.2031Z" fill="url(#paint9_linear_57370_9887)"/>
<g opacity="0.7">
<path d="M168.544 71.2031H165.98V82.158H168.544V71.2031Z" fill="white" fill-opacity="0.6"/>
</g>
<path d="M174.356 71.2031H171.792V82.158H174.356V71.2031Z" fill="url(#paint10_linear_57370_9887)"/>
<g opacity="0.7">
<path d="M174.356 71.2031H171.792V82.158H174.356V71.2031Z" fill="white" fill-opacity="0.6"/>
</g>
<path d="M182.247 71.2031H179.684V82.158H182.247V71.2031Z" fill="url(#paint11_linear_57370_9887)"/>
<g opacity="0.7">
<path d="M182.247 71.2031H179.684V82.158H182.247V71.2031Z" fill="white" fill-opacity="0.6"/>
</g>
<path d="M187.958 71.2031H185.395V82.158H187.958V71.2031Z" fill="url(#paint12_linear_57370_9887)"/>
<g opacity="0.7">
<path d="M187.958 71.2031H185.395V82.158H187.958V71.2031Z" fill="white" fill-opacity="0.6"/>
</g>
<path d="M190.427 84.9739H163.078C162.688 84.9739 162.399 84.6057 162.493 84.223L162.905 82.6057C162.97 82.3386 163.215 82.1509 163.49 82.1509H189.908C190.167 82.1509 190.398 82.3169 190.478 82.5696L190.991 84.1869C191.113 84.5768 190.824 84.9739 190.42 84.9739H190.427Z" fill="url(#paint13_linear_57370_9887)"/>
<g opacity="0.7">
<path d="M190.427 84.9739H163.078C162.688 84.9739 162.399 84.6057 162.493 84.223L162.905 82.6057C162.97 82.3386 163.215 82.1509 163.49 82.1509H189.908C190.167 82.1509 190.398 82.3169 190.478 82.5696L190.991 84.1869C191.113 84.5768 190.824 84.9739 190.42 84.9739H190.427Z" fill="white" fill-opacity="0.6"/>
</g>
<path d="M176.753 68.3788C175.727 68.3788 174.89 67.5413 174.89 66.5161C174.89 65.4908 175.727 64.6533 176.753 64.6533C177.778 64.6533 178.615 65.4908 178.615 66.5161C178.615 67.5413 177.778 68.3788 176.753 68.3788ZM176.753 65.2815C176.074 65.2815 175.518 65.8374 175.518 66.5161C175.518 67.1948 176.074 67.7507 176.753 67.7507C177.431 67.7507 177.987 67.1948 177.987 66.5161C177.987 65.8374 177.431 65.2815 176.753 65.2815Z" fill="url(#paint14_linear_57370_9887)"/>
<path d="M189.46 71.2031H164.038C163.791 71.2031 163.591 71.4035 163.591 71.6508V72.3439C163.591 72.5911 163.791 72.7915 164.038 72.7915H189.46C189.707 72.7915 189.907 72.5911 189.907 72.3439V71.6508C189.907 71.4035 189.707 71.2031 189.46 71.2031Z" fill="url(#paint15_linear_57370_9887)"/>
<g opacity="0.7">
<path d="M189.46 71.2031H164.038C163.791 71.2031 163.591 71.4035 163.591 71.6508V72.3439C163.591 72.5911 163.791 72.7915 164.038 72.7915H189.46C189.707 72.7915 189.907 72.5911 189.907 72.3439V71.6508C189.907 71.4035 189.707 71.2031 189.46 71.2031Z" fill="white" fill-opacity="0.6"/>
</g>
<path d="M189.33 71.6002H164.175C164.002 71.6002 163.858 71.4558 163.858 71.2825C163.858 71.1092 164.002 70.9648 164.175 70.9648H189.33C189.503 70.9648 189.648 71.1092 189.648 71.2825C189.648 71.4558 189.503 71.6002 189.33 71.6002Z" fill="url(#paint16_linear_57370_9887)"/>
<path d="M189.33 83.9342H164.175C164.002 83.9342 163.858 83.7898 163.858 83.6165C163.858 83.4432 164.002 83.2988 164.175 83.2988H189.33C189.503 83.2988 189.648 83.4432 189.648 83.6165C189.648 83.7898 189.503 83.9342 189.33 83.9342Z" fill="url(#paint17_linear_57370_9887)"/>
<path d="M199.828 97.6553H154.775V99.7419H199.828V97.6553Z" fill="url(#paint18_linear_57370_9887)"/>
<path d="M167.157 108.574H144.566V110.661H167.157V108.574Z" fill="url(#paint19_linear_57370_9887)"/>
<path d="M188.254 108.574H171.778V110.661H188.254V108.574Z" fill="url(#paint20_linear_57370_9887)"/>
<path d="M209.416 108.574H192.94V110.661H209.416V108.574Z" fill="url(#paint21_linear_57370_9887)"/>
<path opacity="0.3" d="M167.157 108.574H144.566V110.661H167.157V108.574Z" fill="black"/>
<path opacity="0.3" d="M188.254 108.574H171.778V110.661H188.254V108.574Z" fill="black"/>
<path opacity="0.3" d="M209.416 108.574H192.94V110.661H209.416V108.574Z" fill="black"/>
<path d="M152.855 179.813C154.645 179.813 156.096 178.362 156.096 176.571C156.096 174.78 154.645 173.329 152.855 173.329C151.064 173.329 149.613 174.78 149.613 176.571C149.613 178.362 151.064 179.813 152.855 179.813Z" fill="url(#paint22_linear_57370_9887)"/>
<path d="M205.517 174.975H163.186V176.946H205.517V174.975Z" fill="url(#paint23_linear_57370_9887)"/>
<path d="M152.313 192.733C154.103 192.733 155.555 191.281 155.555 189.49C155.555 187.7 154.103 186.248 152.313 186.248C150.523 186.248 149.071 187.7 149.071 189.49C149.071 191.281 150.523 192.733 152.313 192.733Z" fill="url(#paint24_linear_57370_9887)"/>
<path d="M205.517 187.93H163.186V189.901H205.517V187.93Z" fill="url(#paint25_linear_57370_9887)"/>
<path d="M152.855 205.117C154.645 205.117 156.096 203.665 156.096 201.875C156.096 200.084 154.645 198.632 152.855 198.632C151.064 198.632 149.613 200.084 149.613 201.875C149.613 203.665 151.064 205.117 152.855 205.117Z" fill="url(#paint26_linear_57370_9887)"/>
<path d="M205.517 200.893H163.186V202.864H205.517V200.893Z" fill="url(#paint27_linear_57370_9887)"/>
<path opacity="0.3" d="M205.517 174.975H163.186V176.946H205.517V174.975Z" fill="black"/>
<path opacity="0.3" d="M205.517 187.93H163.186V189.901H205.517V187.93Z" fill="black"/>
<path opacity="0.3" d="M205.517 200.893H163.186V202.864H205.517V200.893Z" fill="black"/>
<path opacity="0.2" d="M129.223 187.288C129.223 185.555 135.498 162.995 149.309 139.28C163.114 115.565 180.189 131.762 196.759 105.736C213.329 79.7103 215.192 36.2661 215.192 36.2661H195.9C195.9 36.2661 192.24 84.9169 174.666 91.279C157.093 97.6411 129.223 136.391 129.223 136.391V187.288Z" fill="white" fill-opacity="0.6"/>
<path opacity="0.2" d="M141.367 231.324H152.667C152.667 231.324 215.279 141.995 224.571 125.934V108.617C216.037 128.693 141.375 231.324 141.375 231.324H141.367Z" fill="white" fill-opacity="0.6"/>
<path d="M220.874 104.003C226.629 115.543 240.072 120.519 250.902 115.117L254.758 113.196L233.928 71.4058L230.072 73.3267C219.242 78.7283 215.12 92.4635 220.874 104.003Z" fill="url(#paint28_linear_57370_9887)"/>
<path opacity="0.3" d="M220.874 104.003C226.629 115.543 240.072 120.519 250.902 115.117L254.758 113.196L233.928 71.4058L230.072 73.3267C219.242 78.7283 215.12 92.4635 220.874 104.003Z" fill="black"/>
<path d="M254.66 113.259C266.225 107.562 270.983 93.5663 265.287 81.999C259.591 70.4316 245.599 65.6726 234.034 71.3695C222.469 77.0663 217.711 91.0618 223.406 102.629C229.102 114.197 243.095 118.956 254.66 113.259Z" fill="url(#paint29_linear_57370_9887)"/>
<path d="M227.618 100.645C232.224 109.881 243.444 113.644 252.686 109.036C261.92 104.429 265.682 93.207 261.075 83.9636C256.469 74.7274 245.249 70.965 236.007 75.5723C226.773 80.1796 223.011 91.4017 227.618 100.645Z" fill="url(#paint30_linear_57370_9887)"/>
<path opacity="0.3" d="M227.618 100.645C232.224 109.881 243.444 113.644 252.686 109.036C261.92 104.429 265.682 93.207 261.075 83.9636C256.469 74.7274 245.249 70.965 236.007 75.5723C226.773 80.1796 223.011 91.4017 227.618 100.645Z" fill="white" fill-opacity="0.6"/>
<path d="M226.701 85.2132C230.621 75.4715 241.704 70.7559 251.444 74.6772C261.183 78.5984 265.898 89.6833 261.978 99.425C264.469 90.1383 259.638 80.4471 250.722 76.858C240.982 72.9368 229.906 77.6524 225.979 87.3941C226.174 86.6575 226.419 85.9282 226.708 85.2205L226.701 85.2132Z" fill="url(#paint31_linear_57370_9887)"/>
<path opacity="0.3" d="M226.701 85.2132C230.621 75.4715 241.704 70.7559 251.444 74.6772C261.183 78.5984 265.898 89.6833 261.978 99.425C264.469 90.1383 259.638 80.4471 250.722 76.858C240.982 72.9368 229.906 77.6524 225.979 87.3941C226.174 86.6575 226.419 85.9282 226.708 85.2205L226.701 85.2132Z" fill="black"/>
<path d="M65.8031 165.941C68.9005 172.159 76.1494 174.845 81.9904 171.935L84.0697 170.903L72.8426 148.379L70.7633 149.412C64.9223 152.322 62.7058 159.724 65.8031 165.949V165.941Z" fill="url(#paint32_linear_57370_9887)"/>
<path opacity="0.3" d="M65.8031 165.941C68.9005 172.159 76.1494 174.845 81.9904 171.935L84.0697 170.903L72.8426 148.379L70.7633 149.412C64.9223 152.322 62.7058 159.724 65.8031 165.949V165.941Z" fill="black"/>
<path d="M90.3873 163.623C88.1852 170.216 81.0518 173.769 74.4599 171.567C67.8681 169.364 64.3158 162.229 66.5179 155.636C68.72 149.043 75.8534 145.49 82.4453 147.693C89.0371 149.895 92.5894 157.03 90.3873 163.623Z" fill="url(#paint33_linear_57370_9887)"/>
<path d="M69.4348 164.129C71.9185 169.111 77.9689 171.133 82.9435 168.649C87.9253 166.165 89.9469 160.114 87.4632 155.138C84.9795 150.162 78.9292 148.133 73.9546 150.617C68.9728 153.102 66.9512 159.153 69.4348 164.129Z" fill="url(#paint34_linear_57370_9887)"/>
<path opacity="0.3" d="M69.4348 164.129C71.9185 169.111 77.9689 171.133 82.9435 168.649C87.9253 166.165 89.9469 160.114 87.4632 155.138C84.9795 150.162 78.9292 148.133 73.9546 150.617C68.9728 153.102 66.9512 159.153 69.4348 164.129Z" fill="white" fill-opacity="0.6"/>
<path d="M81.6222 162.504C81.3262 163.089 80.8569 163.551 80.2287 163.89L80.3298 164.208C80.3803 164.367 80.3659 164.526 80.2865 164.692C80.2071 164.858 80.0843 164.959 79.9255 165.009C79.7666 165.06 79.6078 165.046 79.4634 164.959C79.319 164.872 79.2179 164.749 79.1602 164.576L79.0735 164.294C78.4526 164.41 77.875 164.381 77.3407 164.222C76.8137 164.063 76.3877 163.811 76.0772 163.464C75.9328 163.298 75.839 163.146 75.7956 163.024C75.7451 162.857 75.7595 162.691 75.839 162.525C75.9256 162.366 76.0556 162.258 76.2288 162.2C76.3732 162.157 76.5104 162.157 76.6476 162.207C76.7848 162.258 76.9003 162.345 76.9942 162.46C77.1747 162.713 77.4201 162.886 77.7306 162.987C78.0411 163.089 78.366 163.125 78.7125 163.089L77.9111 160.359C77.1386 160.352 76.496 160.229 75.9761 160.005C75.4635 159.774 75.117 159.369 74.9292 158.785C74.7415 158.192 74.7921 157.629 75.0736 157.102C75.3552 156.575 75.8317 156.149 76.5176 155.831L76.431 155.564C76.3805 155.405 76.3949 155.246 76.4671 155.087C76.5393 154.928 76.6548 154.827 76.8064 154.777C76.9653 154.726 77.1241 154.741 77.283 154.827C77.4418 154.914 77.5429 155.037 77.5934 155.195L77.6728 155.448C78.3804 155.304 78.9724 155.325 79.4634 155.528C79.9471 155.73 80.272 156.076 80.4237 156.568C80.4814 156.755 80.4742 156.929 80.3876 157.087C80.3081 157.246 80.1854 157.355 80.0121 157.405C79.8605 157.456 79.7161 157.441 79.5789 157.384C79.4417 157.319 79.3407 157.21 79.2757 157.066C79.1963 156.893 79.0446 156.77 78.8136 156.69C78.5898 156.611 78.3154 156.582 78.005 156.618L78.7125 159.045C80.402 159.066 81.42 159.622 81.7594 160.72C81.9471 161.319 81.8893 161.911 81.5933 162.504H81.6222ZM76.561 158.813C76.7848 158.929 77.1025 159.001 77.5212 159.037L76.8931 156.986C76.5537 157.16 76.3227 157.355 76.2 157.586C76.07 157.817 76.0483 158.055 76.1278 158.315C76.2 158.532 76.3444 158.698 76.561 158.813ZM80.532 161.991C80.6691 161.709 80.698 161.428 80.6114 161.16C80.5392 160.944 80.3948 160.763 80.1637 160.626C79.9327 160.489 79.5934 160.402 79.1385 160.373L79.8605 162.713C80.171 162.525 80.3948 162.287 80.532 161.998V161.991Z" fill="url(#paint35_linear_57370_9887)"/>
<path d="M68.9438 155.81C71.0593 150.56 77.0302 148.018 82.2792 150.134C87.5281 152.25 90.0696 158.222 87.9541 163.472C89.297 158.467 86.6906 153.246 81.8893 151.304C76.6404 149.188 70.6694 151.73 68.554 156.98C68.6623 156.582 68.7922 156.192 68.9438 155.81Z" fill="url(#paint36_linear_57370_9887)"/>
<path opacity="0.3" d="M68.9438 155.81C71.0593 150.56 77.0302 148.018 82.2792 150.134C87.5281 152.25 90.0696 158.222 87.9541 163.472C89.297 158.467 86.6906 153.246 81.8893 151.304C76.6404 149.188 70.6694 151.73 68.554 156.98C68.6623 156.582 68.7922 156.192 68.9438 155.81Z" fill="black"/>
<path d="M83.5354 47.2934C76.0121 43.661 66.9727 46.8095 63.3338 54.3343C59.6949 61.859 62.8501 70.9002 70.3733 74.5398C76.1782 77.349 82.8856 76.0924 87.3114 71.9184L91.8384 72.3156L90.4521 67.7228C90.4882 67.6506 90.5388 67.5784 90.5749 67.5062C94.2065 59.9814 91.0586 50.9402 83.5354 47.3006V47.2934Z" fill="url(#paint37_linear_57370_9887)"/>
<path d="M76.0337 43.8269C80.9 43.1336 86.0623 45.0834 89.268 48.8169" stroke="url(#paint38_linear_57370_9887)" stroke-width="0.722" stroke-linecap="round" stroke-linejoin="round"/>
<path d="M90.6758 50.5791C91.2028 51.1134 91.6216 51.7487 91.896 52.4491" stroke="url(#paint39_linear_57370_9887)" stroke-width="0.722" stroke-linecap="round" stroke-linejoin="round"/>
<path d="M76.9796 68.4519L69.2903 62.7253L71.283 60.0461L76.4381 63.8807L83.5281 55.4316L86.0912 57.5764L76.9796 68.4519Z" fill="white" fill-opacity="0.6"/>
<path d="M109.188 261.004L100.994 262.311L107.701 281.318L115.903 280.004L109.188 261.004Z" fill="#F2B269"/>
<path d="M104.69 278.314L107.585 277.166C108.243 276.906 108.979 277 109.578 277.376C112.156 278.993 113.073 277.636 114.033 274.761C115.138 274.169 115.975 275.368 116.206 275.693L121.506 282.72C121.953 283.304 121.845 284.142 121.26 284.59C121.159 284.669 121.044 284.734 120.921 284.778C117.397 286.179 115.737 286.836 111.354 288.576L97.954 293.898C94.3007 295.35 92.0842 291.97 93.456 291.031C99.6291 286.85 103.629 282.958 104.936 280.156C105.188 279.658 104.683 279.557 104.683 278.322L104.69 278.314Z" fill="#263238"/>
<path d="M101.434 282.712C102.344 282.329 103.203 281.845 104.012 281.282C104.084 281.217 104.091 281.109 104.026 281.037C103.99 281 103.939 280.979 103.889 280.979C103.405 280.943 99.1092 280.69 98.4522 281.694C98.3294 281.874 98.315 282.105 98.4161 282.3C98.5677 282.676 98.8926 282.95 99.2825 283.051C100.012 283.174 100.77 283.051 101.427 282.712H101.434ZM103.355 281.289C102.365 281.91 100.481 282.964 99.4124 282.676C99.1309 282.589 98.8998 282.394 98.7771 282.127C98.7265 282.047 98.7265 281.946 98.7843 281.874C99.1453 281.325 101.586 281.224 103.347 281.289H103.355Z" fill="url(#paint40_linear_57370_9887)"/>
<path d="M103.975 281.31C104.019 281.31 104.055 281.289 104.091 281.267C104.12 281.202 104.112 281.13 104.069 281.079C104.011 280.928 101.744 277.7 99.8455 278.711C99.3762 278.971 99.3329 279.267 99.3906 279.469C99.6433 280.466 102.632 281.347 103.903 281.368L103.975 281.303V281.31ZM100.156 278.913C101.412 278.415 102.972 280.206 103.549 280.942C102.12 280.791 99.8744 279.96 99.7444 279.339C99.7227 279.289 99.6722 279.159 100.026 278.978L100.156 278.913Z" fill="url(#paint41_linear_57370_9887)"/>
<path d="M106.654 282.206C106.604 282.206 106.553 282.192 106.51 282.156C105.694 281.557 104.611 281.34 103.622 281.586C103.492 281.614 103.355 281.535 103.318 281.405C103.29 281.275 103.369 281.138 103.499 281.102C104.625 280.82 105.86 281.066 106.798 281.752C106.907 281.831 106.936 281.99 106.856 282.098C106.806 282.163 106.733 282.199 106.654 282.199V282.206Z" fill="url(#paint42_linear_57370_9887)"/>
<path d="M105.391 284.279C105.34 284.279 105.29 284.264 105.246 284.228C104.43 283.629 103.347 283.412 102.358 283.658C102.221 283.687 102.091 283.607 102.055 283.477C102.026 283.347 102.106 283.21 102.235 283.174C103.362 282.893 104.596 283.138 105.535 283.824C105.643 283.903 105.672 284.062 105.593 284.17C105.542 284.235 105.47 284.272 105.391 284.272V284.279Z" fill="url(#paint43_linear_57370_9887)"/>
<path d="M103.6 286.308C103.549 286.308 103.499 286.294 103.455 286.258C102.632 285.658 101.557 285.442 100.567 285.687C100.438 285.716 100.3 285.637 100.264 285.507C100.235 285.377 100.315 285.24 100.445 285.203C101.571 284.922 102.806 285.167 103.744 285.853C103.853 285.933 103.881 286.091 103.802 286.2C103.751 286.265 103.679 286.301 103.6 286.301V286.308Z" fill="url(#paint44_linear_57370_9887)"/>
<path opacity="0.3" d="M121.506 282.712L116.206 275.686C115.968 275.368 115.138 274.169 114.04 274.754L109.181 261.004L100.986 262.311L106.394 277.628L104.683 278.307C104.683 279.542 105.188 279.643 104.936 280.141C104.806 280.416 104.647 280.704 104.466 281.001C104.322 281.001 104.185 281.022 104.04 281.037C103.809 280.661 101.658 277.736 99.8384 278.711C99.3691 278.971 99.3257 279.267 99.3835 279.47C99.5279 280.04 100.575 280.574 101.679 280.928C100.329 280.957 98.8131 281.123 98.4449 281.694C98.3222 281.874 98.3077 282.105 98.4088 282.3C98.5604 282.676 98.8853 282.95 99.2752 283.051C100.004 283.174 100.763 283.051 101.42 282.712C102.156 282.401 102.856 282.012 103.528 281.578C103.557 281.578 103.578 281.6 103.607 281.593C103.773 281.549 103.947 281.542 104.12 281.528C103.78 282.026 103.376 282.546 102.907 283.095C102.676 283.109 102.452 283.131 102.228 283.181C102.091 283.218 102.012 283.348 102.048 283.485C102.084 283.615 102.214 283.701 102.351 283.665C102.365 283.665 102.387 283.665 102.401 283.665C101.954 284.149 101.463 284.647 100.929 285.153C100.77 285.175 100.604 285.175 100.445 285.218C100.308 285.254 100.228 285.384 100.264 285.521C100.279 285.586 100.322 285.637 100.373 285.673C98.5315 287.355 96.2067 289.161 93.4486 291.031C92.0768 291.97 94.3006 295.35 97.9467 293.898L111.347 288.576C115.73 286.835 117.39 286.178 120.914 284.777C121.036 284.734 121.152 284.669 121.253 284.59C121.838 284.142 121.946 283.304 121.498 282.719L121.506 282.712ZM99.7373 279.347C99.7156 279.296 99.6651 279.166 100.019 278.986L100.149 278.921C101.405 278.422 102.965 280.213 103.542 280.95C102.113 280.798 99.8672 279.968 99.7373 279.347ZM99.4124 282.69C99.1308 282.604 98.8998 282.409 98.777 282.142C98.7265 282.062 98.7265 281.961 98.7842 281.889C99.1308 281.362 101.376 281.246 103.116 281.297C103.181 281.311 103.246 281.318 103.311 281.326C102.315 281.954 100.466 282.972 99.4124 282.69Z" fill="black"/>
<path d="M120.249 266.666L112.033 265.511L112.863 285.644L121.087 286.8L120.249 266.666Z" fill="#F2B269"/>
<path d="M110.863 281.889L113.975 281.644C114.675 281.586 115.354 281.889 115.816 282.423C117.802 284.727 119.08 283.694 120.841 281.239C122.069 280.994 122.516 282.395 122.646 282.763L125.643 291.031C125.902 291.725 125.549 292.49 124.863 292.75C124.74 292.793 124.61 292.822 124.48 292.83C120.704 293.133 118.921 293.277 114.22 293.653L99.8527 294.801C95.9322 295.112 94.8059 291.234 96.3943 290.735C103.52 288.554 108.488 286.005 110.567 283.716C110.957 283.312 110.502 283.073 110.863 281.889Z" fill="#263238"/>
<path d="M106.459 285.138C107.441 285.037 108.401 284.835 109.34 284.532C109.426 284.496 109.463 284.388 109.426 284.301C109.405 284.25 109.361 284.221 109.311 284.207C108.856 284.027 104.827 282.525 103.903 283.29C103.73 283.427 103.65 283.644 103.694 283.86C103.73 284.265 103.954 284.626 104.3 284.835C104.964 285.167 105.715 285.276 106.452 285.146L106.459 285.138ZM108.712 284.344C107.585 284.647 105.47 285.102 104.538 284.517C104.293 284.359 104.134 284.099 104.091 283.81C104.062 283.723 104.098 283.622 104.17 283.572C104.676 283.153 107.037 283.774 108.704 284.351L108.712 284.344Z" fill="url(#paint45_linear_57370_9887)"/>
<path d="M109.304 284.546C109.347 284.553 109.383 284.546 109.426 284.538C109.477 284.488 109.491 284.416 109.463 284.351C109.448 284.192 108.228 280.437 106.12 280.849C105.6 280.964 105.463 281.224 105.463 281.441C105.412 282.466 108.011 284.192 109.217 284.582L109.304 284.546ZM106.358 281.138C107.708 281.029 108.668 283.203 109 284.069C107.679 283.499 105.773 282.047 105.838 281.419C105.838 281.369 105.824 281.224 106.214 281.152L106.358 281.13V281.138Z" fill="url(#paint46_linear_57370_9887)"/>
<path d="M108.899 284.46C109.982 284.518 111.029 285.081 111.672 285.947" stroke="url(#paint47_linear_57370_9887)" stroke-width="0.361" stroke-linecap="round" stroke-linejoin="round"/>
<path d="M107.08 286.07C108.163 286.128 109.21 286.691 109.853 287.558" stroke="url(#paint48_linear_57370_9887)" stroke-width="0.361" stroke-linecap="round" stroke-linejoin="round"/>
<path d="M104.777 287.485C105.86 287.543 106.907 288.106 107.549 288.973" stroke="url(#paint49_linear_57370_9887)" stroke-width="0.361" stroke-linecap="round" stroke-linejoin="round"/>
<path opacity="0.2" d="M106.625 141.627C106.625 141.627 111.152 143.916 119.289 143.158C132.523 141.93 142.588 137.128 142.588 137.128" stroke="black" stroke-width="0.361" stroke-linecap="round" stroke-linejoin="round"/>
<path d="M107.477 143.158C107.477 143.158 82.9435 191.874 81.7233 209.97C80.3731 229.815 104.076 276.047 104.076 276.047L116.769 270.125C116.769 270.125 100.271 226.334 101.448 211.126C105.196 189.375 131.599 146.768 131.599 146.768L107.484 143.165L107.477 143.158Z" fill="url(#paint50_linear_57370_9887)"/>
<path opacity="0.2" d="M120.227 154.705C114.3 157.398 112.336 173.841 112.596 181.301C116.762 172.412 121.26 163.717 124.855 157.066C124.054 156.582 121.043 154.242 120.227 154.705Z" fill="black"/>
<path d="M107.304 139.865L142.884 141.02C142.884 141.02 143.115 151.939 140.422 160.07L105.123 148.559L107.304 139.865Z" fill="url(#paint51_linear_57370_9887)"/>
<path d="M119.39 142.428C119.39 142.428 111.513 196.964 111.253 215.271C110.964 235.332 111.123 276.039 111.123 276.039H123.513C123.513 276.039 128.646 238.416 130.66 218.975C132.949 196.827 141.902 152.993 141.902 152.993L119.39 142.428Z" fill="url(#paint52_linear_57370_9887)"/>
<path opacity="0.2" d="M111.08 253.891L111.116 272.754L109 273.743L109.86 250.129L111.08 253.891Z" fill="black"/>
<path opacity="0.2" d="M130.148 149.151C130.61 150.429 131.628 151.491 132.884 152.01C134.141 152.53 135.606 152.501 136.841 151.931" stroke="black" stroke-width="0.361" stroke-linecap="round" stroke-linejoin="round"/>
<path d="M107.549 115.926C107.369 116.337 107.167 116.742 106.957 117.146C104.604 121.652 102.351 124.664 100.293 126.397C97.4702 128.751 94.9793 128.686 93.0299 126.679C89.6582 123.198 92.7916 114.453 92.9433 114.453C93.0949 114.453 96.8132 115.384 96.8132 115.384L97.1164 114.453C97.5568 113.066 98.4593 110.358 99.6145 107.39C101.838 101.75 105.058 95.1497 108.062 94.8392C108.062 94.767 112.199 105.642 107.542 115.933L107.549 115.926Z" fill="#263238"/>
<path opacity="0.2" d="M104.185 114.619L103.297 123.104L101.672 125.068L102.416 114.128L104.185 114.619Z" fill="black"/>
<path opacity="0.2" d="M98.6832 122.563C98.7193 120.447 98.5461 118.338 98.1778 116.258L96.7988 115.428C97.2392 114.186 97.9107 111.673 99.0659 109.015C103.059 114.46 98.871 122.274 98.6905 122.563H98.6832Z" fill="black"/>
<path d="M141.324 121.501C141.664 130.073 142.999 139.475 142.891 141.62C131.563 148.393 110.647 149.513 105.788 145.736C105.643 144.804 106.892 141.981 106.062 141.62C98.1344 138.132 107.499 94.926 108.069 94.7599C111.116 94.0594 114.213 93.5683 117.332 93.2939C121.895 93.0628 126.466 93.0628 131.036 93.2939C134.668 93.4889 138.278 93.8861 141.866 94.4927C140.472 100.768 139.693 107.166 139.534 113.593C139.361 117.507 141.202 118.092 141.339 121.501H141.324Z" fill="#263238"/>
<path d="M96.8852 105.693C95.6001 105.924 94.3294 106.257 93.0947 106.683C92.7771 106.899 92.0839 110.893 92.185 111.68C92.2428 112.092 93.9972 115.644 93.9972 115.644C94.712 116.034 96.8925 115.962 96.8925 115.962V105.693H96.8852Z" fill="#F2B269"/>
<path d="M124.906 101.382C124.906 101.382 134.451 96.7388 136.335 93.1425C138.22 89.5462 134.039 85.9139 127.043 85.885C120.047 85.8561 112.943 88.6725 113.802 94.0596C114.661 99.4396 117.859 101.339 117.859 101.339C117.859 101.339 119.924 98.8258 124.913 101.382H124.906Z" fill="#263238"/>
<path d="M128.379 93.6335C125.592 95.7638 122.596 99.5262 120.813 99.4684C119.296 99.4178 118.502 96.6159 117.816 95.2655C119.73 92.3481 118.856 92.3842 117.246 89.7917L124.228 79.7178C124.639 84.4189 124.278 91.4887 128.379 93.6263V93.6335Z" fill="#F2B269"/>
<path opacity="0.2" d="M121.39 83.8268L117.224 89.7917C117.693 90.5283 118.358 91.1854 118.683 91.9942C120.646 91.106 122.459 88.8457 122.646 86.5059C122.798 85.0255 121.96 83.8123 121.39 83.8268Z" fill="black"/>
<path d="M104.474 110.185C104.582 110.524 104.409 110.9 104.098 111.015C104.069 111.022 104.04 111.037 104.011 111.037L97.3979 112.445C97.0297 112.496 96.6831 112.257 96.5676 111.875L92.4955 98.0239C92.3945 97.6412 92.5966 97.2368 92.9432 97.114L99.5567 95.7058C99.961 95.6697 100.336 95.9441 100.459 96.3702L104.481 110.185H104.474Z" fill="#263238"/>
<path opacity="0.2" d="M104.474 110.185C104.582 110.524 104.409 110.9 104.098 111.015C104.069 111.022 104.04 111.037 104.011 111.037L97.3979 112.445C97.0297 112.496 96.6831 112.257 96.5676 111.875L92.4955 98.0239C92.3945 97.6412 92.5966 97.2368 92.9432 97.114L99.5567 95.7058C99.961 95.6697 100.336 95.9441 100.459 96.3702L104.481 110.185H104.474Z" fill="white" fill-opacity="0.6"/>
<path opacity="0.5" d="M99.4628 96.5293C99.3545 96.161 99.0513 95.9155 98.712 95.8794L92.9432 97.107C92.5894 97.2226 92.3872 97.627 92.4955 98.0169L96.5676 111.868C96.6687 112.185 96.9286 112.395 97.2319 112.431L103.022 111.203C103.022 111.203 103.08 111.189 103.109 111.182C103.419 111.066 103.593 110.698 103.484 110.351L99.4628 96.5365V96.5293Z" fill="black"/>
<path d="M108.365 109.969L102.64 106.213L102.748 114.749C102.748 114.749 108.408 117.161 109.405 114.135L108.365 109.969Z" fill="#F2B269"/>
<path d="M96.6687 111.232L96.6976 111.709C96.7987 113.471 98.2716 114.836 100.033 114.8H102.928L102.64 106.213L99.7734 106.957C97.8528 107.455 96.5532 109.246 96.6687 111.225V111.232Z" fill="#F2B269"/>
<path d="M108.062 109.766C109.831 110.604 117.239 116.251 117.239 116.251L113.513 120.707L107.196 114.395L108.055 109.759L108.062 109.766Z" fill="#F2B269"/>
<path opacity="0.2" d="M111.08 119.472C111.08 119.472 123.26 136.608 131.585 133.019C139.909 129.43 141.324 121.508 141.324 121.508L130.653 128.181L111.08 117.977V119.479V119.472Z" fill="black"/>
<path d="M112.791 110.734C112.791 110.734 127.78 119.573 129.397 120.143C131.014 120.714 134.104 107.332 135.231 103.758C136.357 100.183 139.231 94.8609 141.779 94.4998C141.779 94.4998 149.981 94.1604 146.407 107.751C142.833 121.342 137.086 130.968 130.632 131.192C124.177 131.416 110.351 118.287 110.351 118.287L112.791 110.734Z" fill="#263238"/>
<path d="M93.752 106.494C94.9649 105.953 96.1851 105.404 97.4775 105.094C97.6652 105.05 97.8673 105.007 98.0551 105.043C98.25 105.079 98.4305 105.217 98.4738 105.404C98.5244 105.65 98.3366 105.874 98.1561 106.047C97.2392 106.928 96.1851 107.671 95.0515 108.256" fill="#F2B269"/>
<path opacity="0.2" d="M110.351 118.287L112.791 110.734C112.791 110.734 127.78 119.573 129.397 120.143C131.014 120.714 134.985 108.329 136.112 104.754" stroke="black" stroke-width="0.361" stroke-linecap="round" stroke-linejoin="round"/>
<path opacity="0.2" d="M135.989 93.6914C135.989 93.6914 124.567 102.718 121.65 102.957C121.65 102.957 132.899 100.523 135.989 93.6914Z" fill="black"/>
<path d="M119.325 102.421C118.964 101.36 118.148 99.5764 117.13 99.0999C116.87 98.9772 116.589 98.8833 116.3 98.905C116.011 98.9266 115.722 99.0927 115.621 99.3598C115.455 99.7786 115.78 100.219 116.083 100.551C116.495 101.006 116.892 101.41 117.455 101.634C118.018 101.858 118.762 102.356 119.332 102.421" stroke="white" stroke-opacity="0.6" stroke-width="0.1805" stroke-linecap="round" stroke-linejoin="round"/>
<path d="M119.462 102.422C120.589 102.443 122.538 102.292 123.332 101.49C123.534 101.288 123.722 101.05 123.794 100.775C123.874 100.501 123.816 100.169 123.599 99.9812C123.26 99.6852 122.74 99.8368 122.321 100.003C121.758 100.234 121.238 100.465 120.834 100.927C120.437 101.382 119.708 101.909 119.448 102.422" stroke="white" stroke-opacity="0.6" stroke-width="0.1805" stroke-linecap="round" stroke-linejoin="round"/>
<path d="M119.361 102.595C118.61 105.78 118.264 109.066 118.343 112.337" stroke="white" stroke-opacity="0.6" stroke-width="0.1805" stroke-linecap="round" stroke-linejoin="round"/>
<path d="M119.571 102.422C119.238 105.722 120.336 109.564 121.708 112.582" stroke="white" stroke-opacity="0.6" stroke-width="0.1805" stroke-linecap="round" stroke-linejoin="round"/>
<path opacity="0.2" d="M106.358 128.751C106.473 128.788 116.935 129.091 116.935 129.091C116.935 129.091 122.892 134.449 125.599 134.976L126.198 139.865C126.198 139.865 117.238 143.823 108.163 140.761C101.484 138.508 106.351 128.751 106.351 128.751H106.358Z" fill="black"/>
<path d="M97.0441 98.9773C97.1524 99.4105 96.9647 99.8293 96.6326 99.9159C96.2932 100.003 95.9322 99.721 95.8239 99.2878C95.7156 98.8546 95.9033 98.4358 96.2355 98.3492C96.5748 98.2625 96.9358 98.5441 97.0441 98.9773Z" fill="white" fill-opacity="0.6"/>
<path opacity="0.2" d="M130.141 120.952C130.141 120.952 131.52 126.143 132.328 125.364C133.137 124.584 131.967 122.793 131.967 122.793C131.967 122.793 135.686 124.454 134.61 123.198C133.534 121.941 130.141 120.952 130.141 120.952Z" fill="black"/>
<path d="M109.52 70.8425C112.495 72.0195 111.982 75.2475 107.159 81.2052C104.105 78.656 102.387 72.7561 103.925 70.8425C105.47 68.9288 106.921 69.8314 109.52 70.8425Z" fill="#263238"/>
<path d="M121.231 69.3188C118.285 65.4408 112.748 64.6898 108.871 67.6362C103.528 71.7091 105.253 81.0608 108.127 86.2097C111.333 91.9435 119.729 92.6873 123.072 86.6863C125.303 82.6856 124.191 79.1038 122.841 72.8573C122.574 71.5718 122.025 70.3586 121.224 69.3188H121.231Z" fill="#F2B269"/>
<path d="M114.437 77.9768C114.596 78.6266 114.293 79.2258 113.852 79.298C113.412 79.3702 112.986 78.8865 112.87 78.2295C112.755 77.5724 113.022 76.9732 113.455 76.9082C113.881 76.836 114.322 77.3053 114.437 77.9768Z" fill="#263238"/>
<path d="M108.661 79.1901C108.82 79.8399 108.509 80.4464 108.076 80.5114C107.65 80.5836 107.21 80.0998 107.094 79.4428C106.979 78.7858 107.246 78.1865 107.679 78.1215C108.105 78.0493 108.553 78.562 108.661 79.1901Z" fill="#263238"/>
<path d="M105.737 75.9908C105.845 76.0269 105.961 76.0053 106.047 75.9331C106.618 75.406 107.398 75.175 108.163 75.3194C108.322 75.3627 108.488 75.2688 108.538 75.11C108.582 74.9511 108.488 74.7851 108.329 74.7345C107.369 74.5324 106.372 74.8067 105.65 75.4782C105.52 75.5865 105.506 75.7742 105.614 75.9042C105.65 75.9403 105.694 75.9692 105.737 75.9908Z" fill="#263238"/>
<path d="M114.842 74.6263C114.899 74.6118 114.957 74.5829 115 74.5396C115.087 74.3952 115.044 74.2075 114.899 74.1209C114.069 73.5938 113.029 73.5072 112.127 73.8898C111.975 73.962 111.91 74.1425 111.99 74.2941C112.069 74.4458 112.242 74.5035 112.394 74.4313C113.116 74.157 113.932 74.2364 114.589 74.6479C114.675 74.6768 114.769 74.6696 114.849 74.6263H114.842Z" fill="#263238"/>
<path d="M119.044 68.0044C116.35 69.7231 121.989 77.2189 124.343 84.2382C129.83 78.3455 126.422 68.5316 124.516 66.9428C122.617 65.3541 121.419 66.5168 119.044 68.0044Z" fill="#263238"/>
<path d="M127.78 76.8289C127.657 78.5837 126.848 80.2157 125.52 81.3639C123.758 82.8805 121.895 81.5373 121.556 79.3564C121.275 77.4138 121.816 74.2364 123.997 73.5792C126.177 72.9221 127.903 74.6697 127.78 76.8217V76.8289Z" fill="#F2B269"/>
<path opacity="0.1" d="M123.123 79.2327C122.856 78.0775 123.13 76.8068 123.852 75.861C124.155 75.4566 124.646 75.0884 125.13 75.2473" stroke="black" stroke-width="0.361" stroke-miterlimit="10"/>
<path d="M113.296 83.9057C114.524 83.292 115.607 82.4256 116.473 81.3643C116.625 81.5448 116.747 81.7469 116.841 81.9635C117.015 82.3462 117.094 82.7649 117.072 83.1837C117.022 84.0429 116.495 85.0681 114.683 85.9851C114.553 86.0573 114.415 86.1295 114.278 86.1872C113.78 85.5013 113.239 84.8515 112.646 84.2378C112.646 84.2378 112.899 84.1223 113.296 83.9057Z" fill="#263238"/>
<path d="M116.437 81.3715C116.589 81.552 116.711 81.7541 116.805 81.9707C116.538 82.7577 115.462 83.5952 113.758 84.4761L113.26 83.9057C114.488 83.292 115.571 82.4256 116.437 81.3643V81.3715Z" fill="white" fill-opacity="0.6"/>
<path d="M115.26 84.6065C115.773 84.0289 116.387 83.5524 117.072 83.1914C117.022 84.0506 116.495 85.0758 114.683 85.9928C114.726 85.4801 114.928 85.0036 115.26 84.6137V84.6065Z" fill="#FF3636"/>
<path d="M110.134 77.833C109.759 79.6528 109.131 81.4221 108.264 83.0685C109.138 83.4946 110.149 83.5091 111.037 83.1191L110.134 77.833Z" fill="#DE842C"/>
<path d="M122.848 68.4161C122.848 68.4161 123.563 66.0113 119.043 63.4838C114.524 60.9563 106.921 62.5667 101.867 65.6719C96.8131 68.7771 102.539 73.2327 104.907 73.4422L104.279 72.6117C106.813 72.8428 109.376 72.5612 111.787 71.7812L110.307 71.2396C110.307 71.2396 119.794 70.0409 122.856 68.4161H122.848Z" fill="#263238"/>
<path d="M234.807 92.2764L234.235 101.447L232.253 101.978L233.301 91.0666L234.568 90.7271L234.807 92.2764ZM239.424 100.056L234.331 92.4041L233.757 90.9443L235.031 90.603L241.413 99.5227L239.424 100.056ZM238.308 96.4051L238.704 97.8833L233.385 99.3088L232.989 97.8307L238.308 96.4051Z" fill="#7E571F" fill-opacity="0.5"/>
<path d="M248.613 96.0162L249.007 97.4876L243.736 98.9003L243.341 97.429L248.613 96.0162ZM241.651 88.8289L244.308 98.747L242.435 99.2489L239.778 89.3308L241.651 88.8289ZM246.759 91.8478L247.144 93.2851L242.56 94.5135L242.175 93.0762L246.759 91.8478ZM246.329 87.575L246.725 89.0531L241.475 90.4604L241.079 88.9822L246.329 87.575Z" fill="#7E571F" fill-opacity="0.5"/>
<path d="M253.27 96.345L251.132 96.9181L250.751 95.4431L252.876 94.8736C253.453 94.7191 253.902 94.4623 254.225 94.1034C254.546 93.7399 254.742 93.2907 254.812 92.7558C254.882 92.2163 254.826 91.6083 254.645 90.9316L254.508 90.4207C254.368 89.8985 254.188 89.4527 253.967 89.0835C253.747 88.7143 253.489 88.4233 253.193 88.2104C252.902 87.9964 252.577 87.8621 252.217 87.8078C251.857 87.7534 251.468 87.7822 251.05 87.8941L248.83 88.4891L248.434 87.011L250.654 86.4159C251.317 86.2383 251.951 86.1877 252.555 86.2642C253.164 86.3395 253.724 86.5325 254.236 86.8432C254.751 87.1482 255.192 87.5604 255.56 88.08C255.932 88.5983 256.214 89.2139 256.405 89.9269L256.538 90.4242C256.728 91.1326 256.792 91.8067 256.73 92.4464C256.671 93.0803 256.495 93.658 256.201 94.1796C255.912 94.6999 255.521 95.1456 255.027 95.5166C254.532 95.8875 253.947 96.1637 253.27 96.345ZM249.524 86.7189L252.181 96.637L250.308 97.139L247.651 87.2209L249.524 86.7189Z" fill="#7E571F" fill-opacity="0.5"/>
</g>
<defs>
<linearGradient id="paint0_linear_57370_9887" x1="129.967" y1="144.717" x2="224.628" y2="144.267" gradientUnits="userSpaceOnUse">
<stop stop-color="#BBA473"/>
<stop offset="1" stop-color="#685A3D"/>
</linearGradient>
<linearGradient id="paint1_linear_57370_9887" x1="137.844" y1="43.501" x2="139.361" y2="43.4861" gradientUnits="userSpaceOnUse">
<stop stop-color="#BBA473"/>
<stop offset="1" stop-color="#685A3D"/>
</linearGradient>
<linearGradient id="paint2_linear_57370_9887" x1="140.862" y1="42.8286" x2="142.379" y2="42.8212" gradientUnits="userSpaceOnUse">
<stop stop-color="#BBA473"/>
<stop offset="1" stop-color="#685A3D"/>
</linearGradient>
<linearGradient id="paint3_linear_57370_9887" x1="143.895" y1="42.1629" x2="145.412" y2="42.1579" gradientUnits="userSpaceOnUse">
<stop stop-color="#BBA473"/>
<stop offset="1" stop-color="#685A3D"/>
</linearGradient>
<linearGradient id="paint4_linear_57370_9887" x1="208.268" y1="42.2077" x2="215.707" y2="42.0855" gradientUnits="userSpaceOnUse">
<stop stop-color="#BBA473"/>
<stop offset="1" stop-color="#685A3D"/>
</linearGradient>
<linearGradient id="paint5_linear_57370_9887" x1="147.844" y1="143.816" x2="206.778" y2="142.916" gradientUnits="userSpaceOnUse">
<stop stop-color="#BBA473"/>
<stop offset="1" stop-color="#685A3D"/>
</linearGradient>
<linearGradient id="paint6_linear_57370_9887" x1="157.519" y1="75.7197" x2="196.011" y2="75.3107" gradientUnits="userSpaceOnUse">
<stop stop-color="#BBA473"/>
<stop offset="1" stop-color="#685A3D"/>
</linearGradient>
<linearGradient id="paint7_linear_57370_9887" x1="162.898" y1="66.1792" x2="190.613" y2="65.5158" gradientUnits="userSpaceOnUse">
<stop stop-color="#BBA473"/>
<stop offset="1" stop-color="#685A3D"/>
</linearGradient>
<linearGradient id="paint8_linear_57370_9887" x1="166.854" y1="66.1779" x2="186.645" y2="65.7108" gradientUnits="userSpaceOnUse">
<stop stop-color="#BBA473"/>
<stop offset="1" stop-color="#685A3D"/>
</linearGradient>
<linearGradient id="paint9_linear_57370_9887" x1="165.98" y1="77.303" x2="168.545" y2="77.2971" gradientUnits="userSpaceOnUse">
<stop stop-color="#BBA473"/>
<stop offset="1" stop-color="#685A3D"/>
</linearGradient>
<linearGradient id="paint10_linear_57370_9887" x1="171.792" y1="77.303" x2="174.357" y2="77.2971" gradientUnits="userSpaceOnUse">
<stop stop-color="#BBA473"/>
<stop offset="1" stop-color="#685A3D"/>
</linearGradient>
<linearGradient id="paint11_linear_57370_9887" x1="179.684" y1="77.303" x2="182.248" y2="77.2971" gradientUnits="userSpaceOnUse">
<stop stop-color="#BBA473"/>
<stop offset="1" stop-color="#685A3D"/>
</linearGradient>
<linearGradient id="paint12_linear_57370_9887" x1="185.395" y1="77.303" x2="187.96" y2="77.2971" gradientUnits="userSpaceOnUse">
<stop stop-color="#BBA473"/>
<stop offset="1" stop-color="#685A3D"/>
</linearGradient>
<linearGradient id="paint13_linear_57370_9887" x1="162.475" y1="83.7228" x2="190.758" y2="80.9232" gradientUnits="userSpaceOnUse">
<stop stop-color="#BBA473"/>
<stop offset="1" stop-color="#685A3D"/>
</linearGradient>
<linearGradient id="paint14_linear_57370_9887" x1="174.89" y1="66.7278" x2="178.617" y2="66.6913" gradientUnits="userSpaceOnUse">
<stop stop-color="#BBA473"/>
<stop offset="1" stop-color="#685A3D"/>
</linearGradient>
<linearGradient id="paint15_linear_57370_9887" x1="163.591" y1="72.0876" x2="189.247" y2="67.9261" gradientUnits="userSpaceOnUse">
<stop stop-color="#BBA473"/>
<stop offset="1" stop-color="#685A3D"/>
</linearGradient>
<linearGradient id="paint16_linear_57370_9887" x1="163.858" y1="71.3186" x2="186.143" y2="62.4629" gradientUnits="userSpaceOnUse">
<stop stop-color="#BBA473"/>
<stop offset="1" stop-color="#685A3D"/>
</linearGradient>
<linearGradient id="paint17_linear_57370_9887" x1="163.858" y1="83.6526" x2="186.143" y2="74.7969" gradientUnits="userSpaceOnUse">
<stop stop-color="#BBA473"/>
<stop offset="1" stop-color="#685A3D"/>
</linearGradient>
<linearGradient id="paint18_linear_57370_9887" x1="154.775" y1="98.8171" x2="197.925" y2="89.696" gradientUnits="userSpaceOnUse">
<stop stop-color="#BBA473"/>
<stop offset="1" stop-color="#685A3D"/>
</linearGradient>
<linearGradient id="paint19_linear_57370_9887" x1="144.566" y1="109.736" x2="166.919" y2="107.367" gradientUnits="userSpaceOnUse">
<stop stop-color="#BBA473"/>
<stop offset="1" stop-color="#685A3D"/>
</linearGradient>
<linearGradient id="paint20_linear_57370_9887" x1="171.778" y1="109.736" x2="188.165" y2="108.469" gradientUnits="userSpaceOnUse">
<stop stop-color="#BBA473"/>
<stop offset="1" stop-color="#685A3D"/>
</linearGradient>
<linearGradient id="paint21_linear_57370_9887" x1="192.94" y1="109.736" x2="209.327" y2="108.469" gradientUnits="userSpaceOnUse">
<stop stop-color="#BBA473"/>
<stop offset="1" stop-color="#685A3D"/>
</linearGradient>
<linearGradient id="paint22_linear_57370_9887" x1="149.613" y1="176.939" x2="156.099" y2="176.876" gradientUnits="userSpaceOnUse">
<stop stop-color="#BBA473"/>
<stop offset="1" stop-color="#685A3D"/>
</linearGradient>
<linearGradient id="paint23_linear_57370_9887" x1="163.186" y1="176.073" x2="203.748" y2="167.545" gradientUnits="userSpaceOnUse">
<stop stop-color="#BBA473"/>
<stop offset="1" stop-color="#685A3D"/>
</linearGradient>
<linearGradient id="paint24_linear_57370_9887" x1="149.071" y1="189.859" x2="155.558" y2="189.795" gradientUnits="userSpaceOnUse">
<stop stop-color="#BBA473"/>
<stop offset="1" stop-color="#685A3D"/>
</linearGradient>
<linearGradient id="paint25_linear_57370_9887" x1="163.186" y1="189.028" x2="203.748" y2="180.5" gradientUnits="userSpaceOnUse">
<stop stop-color="#BBA473"/>
<stop offset="1" stop-color="#685A3D"/>
</linearGradient>
<linearGradient id="paint26_linear_57370_9887" x1="149.613" y1="202.243" x2="156.099" y2="202.18" gradientUnits="userSpaceOnUse">
<stop stop-color="#BBA473"/>
<stop offset="1" stop-color="#685A3D"/>
</linearGradient>
<linearGradient id="paint27_linear_57370_9887" x1="163.186" y1="201.991" x2="203.748" y2="193.463" gradientUnits="userSpaceOnUse">
<stop stop-color="#BBA473"/>
<stop offset="1" stop-color="#685A3D"/>
</linearGradient>
<linearGradient id="paint28_linear_57370_9887" x1="218.275" y1="96.9596" x2="254.776" y2="96.6756" gradientUnits="userSpaceOnUse">
<stop stop-color="#BBA473"/>
<stop offset="1" stop-color="#685A3D"/>
</linearGradient>
<linearGradient id="paint29_linear_57370_9887" x1="224.578" y1="105.009" x2="266.28" y2="83.9659" gradientUnits="userSpaceOnUse">
<stop stop-color="#BBA473"/>
<stop offset="1" stop-color="#685A3D"/>
</linearGradient>
<linearGradient id="paint30_linear_57370_9887" x1="225.651" y1="94.4293" x2="263.059" y2="94.0631" gradientUnits="userSpaceOnUse">
<stop stop-color="#BBA473"/>
<stop offset="1" stop-color="#685A3D"/>
</linearGradient>
<linearGradient id="paint31_linear_57370_9887" x1="225.979" y1="87.8453" x2="263.372" y2="87.3216" gradientUnits="userSpaceOnUse">
<stop stop-color="#BBA473"/>
<stop offset="1" stop-color="#685A3D"/>
</linearGradient>
<linearGradient id="paint32_linear_57370_9887" x1="64.4041" y1="162.149" x2="84.0795" y2="161.996" gradientUnits="userSpaceOnUse">
<stop stop-color="#BBA473"/>
<stop offset="1" stop-color="#685A3D"/>
</linearGradient>
<linearGradient id="paint33_linear_57370_9887" x1="65.8655" y1="161.06" x2="91.0513" y2="160.814" gradientUnits="userSpaceOnUse">
<stop stop-color="#BBA473"/>
<stop offset="1" stop-color="#685A3D"/>
</linearGradient>
<linearGradient id="paint34_linear_57370_9887" x1="68.373" y1="160.779" x2="88.5343" y2="160.582" gradientUnits="userSpaceOnUse">
<stop stop-color="#BBA473"/>
<stop offset="1" stop-color="#685A3D"/>
</linearGradient>
<linearGradient id="paint35_linear_57370_9887" x1="74.8179" y1="160.478" x2="81.871" y2="160.43" gradientUnits="userSpaceOnUse">
<stop stop-color="#BBA473"/>
<stop offset="1" stop-color="#685A3D"/>
</linearGradient>
<linearGradient id="paint36_linear_57370_9887" x1="68.554" y1="157.23" x2="88.7067" y2="156.948" gradientUnits="userSpaceOnUse">
<stop stop-color="#BBA473"/>
<stop offset="1" stop-color="#685A3D"/>
</linearGradient>
<linearGradient id="paint37_linear_57370_9887" x1="61.8218" y1="62.6349" x2="92.0977" y2="62.3385" gradientUnits="userSpaceOnUse">
<stop stop-color="#BBA473"/>
<stop offset="1" stop-color="#685A3D"/>
</linearGradient>
<linearGradient id="paint38_linear_57370_9887" x1="76.0337" y1="46.5441" x2="89.2669" y2="46.2097" gradientUnits="userSpaceOnUse">
<stop stop-color="#BBA473"/>
<stop offset="1" stop-color="#685A3D"/>
</linearGradient>
<linearGradient id="paint39_linear_57370_9887" x1="90.6758" y1="51.6203" x2="91.8966" y2="51.6125" gradientUnits="userSpaceOnUse">
<stop stop-color="#BBA473"/>
<stop offset="1" stop-color="#685A3D"/>
</linearGradient>
<linearGradient id="paint40_linear_57370_9887" x1="98.3491" y1="282.134" x2="104.07" y2="281.987" gradientUnits="userSpaceOnUse">
<stop stop-color="#BBA473"/>
<stop offset="1" stop-color="#685A3D"/>
</linearGradient>
<linearGradient id="paint41_linear_57370_9887" x1="99.3706" y1="280.104" x2="104.11" y2="280.027" gradientUnits="userSpaceOnUse">
<stop stop-color="#BBA473"/>
<stop offset="1" stop-color="#685A3D"/>
</linearGradient>
<linearGradient id="paint42_linear_57370_9887" x1="103.312" y1="281.666" x2="106.9" y2="281.563" gradientUnits="userSpaceOnUse">
<stop stop-color="#BBA473"/>
<stop offset="1" stop-color="#685A3D"/>
</linearGradient>
<linearGradient id="paint43_linear_57370_9887" x1="102.049" y1="283.738" x2="105.637" y2="283.635" gradientUnits="userSpaceOnUse">
<stop stop-color="#BBA473"/>
<stop offset="1" stop-color="#685A3D"/>
</linearGradient>
<linearGradient id="paint44_linear_57370_9887" x1="100.258" y1="285.768" x2="103.846" y2="285.664" gradientUnits="userSpaceOnUse">
<stop stop-color="#BBA473"/>
<stop offset="1" stop-color="#685A3D"/>
</linearGradient>
<linearGradient id="paint45_linear_57370_9887" x1="103.682" y1="284.257" x2="109.439" y2="284.105" gradientUnits="userSpaceOnUse">
<stop stop-color="#BBA473"/>
<stop offset="1" stop-color="#685A3D"/>
</linearGradient>
<linearGradient id="paint46_linear_57370_9887" x1="105.462" y1="282.913" x2="109.479" y2="282.871" gradientUnits="userSpaceOnUse">
<stop stop-color="#BBA473"/>
<stop offset="1" stop-color="#685A3D"/>
</linearGradient>
<linearGradient id="paint47_linear_57370_9887" x1="108.899" y1="285.288" x2="111.673" y2="285.238" gradientUnits="userSpaceOnUse">
<stop stop-color="#BBA473"/>
<stop offset="1" stop-color="#685A3D"/>
</linearGradient>
<linearGradient id="paint48_linear_57370_9887" x1="107.08" y1="286.898" x2="109.853" y2="286.848" gradientUnits="userSpaceOnUse">
<stop stop-color="#BBA473"/>
<stop offset="1" stop-color="#685A3D"/>
</linearGradient>
<linearGradient id="paint49_linear_57370_9887" x1="104.777" y1="288.314" x2="107.55" y2="288.263" gradientUnits="userSpaceOnUse">
<stop stop-color="#BBA473"/>
<stop offset="1" stop-color="#685A3D"/>
</linearGradient>
<linearGradient id="paint50_linear_57370_9887" x1="81.6677" y1="217.153" x2="131.626" y2="216.969" gradientUnits="userSpaceOnUse">
<stop stop-color="#BBA473"/>
<stop offset="1" stop-color="#685A3D"/>
</linearGradient>
<linearGradient id="paint51_linear_57370_9887" x1="105.123" y1="151.116" x2="142.897" y2="150.424" gradientUnits="userSpaceOnUse">
<stop stop-color="#BBA473"/>
<stop offset="1" stop-color="#685A3D"/>
</linearGradient>
<linearGradient id="paint52_linear_57370_9887" x1="111.08" y1="216.825" x2="141.919" y2="216.756" gradientUnits="userSpaceOnUse">
<stop stop-color="#BBA473"/>
<stop offset="1" stop-color="#685A3D"/>
</linearGradient>
<clipPath id="clip0_57370_9887">
<rect width="361" height="300" fill="white"/>
</clipPath>
</defs>
</svg>
