<svg width="24" height="24" viewBox="0 0 24 24" fill="none" xmlns="http://www.w3.org/2000/svg">
<path d="M10.8889 13.9444H12V9.5M16.4444 9.22222V7.55556M8.66667 17C10.3333 18.6667 13.6667 18.6667 15.3333 17M7.55556 9.22222V7.55556M9.11111 22C6.62222 22 5.37778 22 4.42667 21.5156C3.59043 21.0895 2.91054 20.4096 2.48444 19.5733C2 18.6222 2 17.3778 2 14.8889M22 14.8889C22 17.3778 22 18.6222 21.5156 19.5733C21.0895 20.4096 20.4096 21.0895 19.5733 21.5156C18.6222 22 17.3778 22 14.8889 22M14.8889 2C17.3778 2 18.6222 2 19.5733 2.48444C20.4096 2.91054 21.0895 3.59043 21.5156 4.42667C22 5.37778 22 6.62222 22 9.11111M9.11111 2C6.62222 2 5.37778 2 4.42667 2.48444C3.59043 2.91054 2.91054 3.59043 2.48444 4.42667C2 5.37778 2 6.62222 2 9.11111" stroke="#BBA473" stroke-width="1.66667" stroke-linecap="round" stroke-linejoin="round"/>
</svg>
