<svg width="24" height="24" viewBox="0 0 24 24" fill="none" xmlns="http://www.w3.org/2000/svg">
<path d="M12.3579 4.45438C14.1196 4.45438 15.7817 4.83439 17.344 5.59442C18.9064 6.35444 20.2111 7.45207 21.2582 8.8873C21.3746 9.03757 21.4121 9.17114 21.3709 9.28801C21.3297 9.40489 21.2589 9.50507 21.1585 9.58855C21.0581 9.67203 20.9417 9.70977 20.8095 9.70175C20.6771 9.69374 20.5608 9.62261 20.4604 9.48837C19.5463 8.18605 18.3705 7.1886 16.9332 6.49603C15.4958 5.80346 13.9707 5.45684 12.3579 5.45617C10.745 5.4555 9.23252 5.80212 7.82043 6.49603C6.40834 7.18993 5.23659 8.18738 4.30517 9.48837C4.20544 9.63864 4.0891 9.72212 3.95613 9.73882C3.82317 9.75552 3.70682 9.72212 3.6071 9.63864C3.49076 9.55516 3.41995 9.45097 3.39469 9.32608C3.36943 9.20119 3.40699 9.07163 3.50738 8.93739C4.53786 7.51819 5.83028 6.41622 7.38464 5.63148C8.939 4.84675 10.5967 4.45438 12.3579 4.45438ZM12.3579 6.80859C14.6016 6.80859 16.5296 7.55993 18.1418 9.06261C19.754 10.5653 20.5601 12.427 20.5601 14.6476C20.5601 15.4824 20.2653 16.1797 19.6756 16.7393C19.0859 17.299 18.3669 17.5785 17.5186 17.5778C16.6702 17.5772 15.9433 17.2977 15.3376 16.7393C14.732 16.181 14.4285 15.4837 14.4271 14.6476C14.4271 14.0966 14.2237 13.6331 13.8168 13.2571C13.4099 12.8811 12.9236 12.6934 12.3579 12.6941C11.7921 12.6948 11.3058 12.8828 10.8989 13.2581C10.492 13.6334 10.2886 14.0966 10.2886 14.6476C10.2886 16.2671 10.7666 17.6196 11.7226 18.7048C12.6786 19.7901 13.9126 20.5498 15.4244 20.9839C15.574 21.034 15.6737 21.1175 15.7235 21.2343C15.7734 21.3512 15.7817 21.4764 15.7485 21.61C15.7152 21.7269 15.6487 21.8271 15.549 21.9106C15.4493 21.994 15.3246 22.0191 15.1751 21.9857C13.4465 21.5516 12.0338 20.6874 10.9368 19.3931C9.83984 18.0987 9.29135 16.5169 9.29135 14.6476C9.29135 13.8128 9.59053 13.1115 10.1889 12.5438C10.7872 11.9761 11.5102 11.6923 12.3579 11.6923C13.2055 11.6923 13.9285 11.9761 14.5269 12.5438C15.1252 13.1115 15.4244 13.8128 15.4244 14.6476C15.4244 15.1986 15.6321 15.6621 16.0476 16.0381C16.4632 16.4141 16.9535 16.6017 17.5186 16.6011C18.0837 16.6004 18.5657 16.4127 18.9646 16.0381C19.3635 15.6634 19.5629 15.1999 19.5629 14.6476C19.5629 12.7108 18.8565 11.0829 17.4438 9.76386C16.031 8.44484 14.344 7.78533 12.3828 7.78533C10.4216 7.78533 8.73456 8.44484 7.32181 9.76386C5.90906 11.0829 5.20268 12.7024 5.20268 14.6225C5.20268 15.0233 5.24024 15.5242 5.31537 16.1252C5.39049 16.7263 5.569 17.4276 5.85089 18.229C5.90075 18.3792 5.89676 18.5128 5.83892 18.6297C5.78108 18.7466 5.68534 18.8301 5.55171 18.8801C5.41808 18.9302 5.28944 18.9262 5.16578 18.8681C5.04213 18.81 4.9547 18.7138 4.90351 18.5796C4.6542 17.9284 4.47569 17.2816 4.36799 16.6391C4.26029 15.9967 4.20611 15.3328 4.20544 14.6476C4.20544 12.427 5.00755 10.5653 6.61178 9.06261C8.216 7.55993 10.1314 6.80859 12.3579 6.80859ZM12.3579 2C13.4216 2 14.4604 2.12923 15.4742 2.38769C16.4881 2.64615 17.4687 3.01782 18.4161 3.50268C18.5657 3.58617 18.6531 3.68634 18.6784 3.80322C18.7036 3.9201 18.691 4.03697 18.6405 4.15385C18.5899 4.27072 18.5068 4.36255 18.3911 4.42934C18.2755 4.49612 18.1342 4.48778 17.9673 4.40429C17.0864 3.95349 16.1763 3.6072 15.2369 3.36544C14.2975 3.12367 13.3378 3.00246 12.3579 3.00179C11.3939 3.00179 10.4465 3.11466 9.51573 3.34039C8.58498 3.56613 7.69577 3.92076 6.84812 4.40429C6.71516 4.48778 6.58219 4.50881 6.44923 4.46741C6.31626 4.426 6.21654 4.33818 6.15006 4.20394C6.08357 4.0697 6.06695 3.94881 6.10019 3.84129C6.13344 3.73376 6.21654 3.63759 6.3495 3.55277C7.28026 3.05188 8.25257 2.66786 9.26642 2.40072C10.2803 2.13357 11.3108 2 12.3579 2ZM12.3579 9.23793C13.9036 9.23793 15.2332 9.75986 16.3468 10.8037C17.4604 11.8476 18.0172 13.1289 18.0172 14.6476C18.0172 14.7979 17.9716 14.9191 17.8806 15.0112C17.7895 15.1034 17.6688 15.1491 17.5186 15.1485C17.3856 15.1485 17.2693 15.1027 17.1695 15.0112C17.0698 14.9197 17.0199 14.7985 17.0199 14.6476C17.0199 13.3953 16.5586 12.3478 15.6358 11.505C14.713 10.6621 13.6204 10.2404 12.3579 10.2397C11.0954 10.239 10.011 10.6608 9.10487 11.505C8.19871 12.3491 7.74564 13.3967 7.74564 14.6476C7.74564 16 7.97833 17.1481 8.4437 18.0917C8.90908 19.0354 9.59053 19.9828 10.488 20.9338C10.5878 21.034 10.6376 21.1509 10.6376 21.2844C10.6376 21.418 10.5878 21.5349 10.488 21.6351C10.3883 21.7352 10.272 21.7853 10.139 21.7853C10.006 21.7853 9.8897 21.7352 9.78997 21.6351C8.80936 20.5999 8.05744 19.544 7.53422 18.4674C7.011 17.3908 6.74906 16.1175 6.7484 14.6476C6.7484 13.1282 7.29688 11.8466 8.39384 10.8027C9.4908 9.75886 10.8121 9.23726 12.3579 9.23793ZM12.3329 14.1467C12.4825 14.1467 12.6032 14.1968 12.6949 14.297C12.7867 14.3971 12.8322 14.514 12.8315 14.6476C12.8315 15.8998 13.2803 16.9267 14.1778 17.7281C15.0753 18.5295 16.1224 18.9302 17.3191 18.9302C17.4188 18.9302 17.5601 18.9219 17.7429 18.9052C17.9258 18.8885 18.1169 18.8634 18.3164 18.8301C18.4659 18.7967 18.5949 18.8177 18.7033 18.8932C18.8117 18.9686 18.8821 19.0812 18.9147 19.2308C18.9479 19.3643 18.923 19.4812 18.8399 19.5814C18.7568 19.6816 18.6488 19.7484 18.5158 19.7818C18.2166 19.8652 17.955 19.9113 17.731 19.92C17.5069 19.9287 17.3696 19.9327 17.3191 19.932C15.8399 19.932 14.5558 19.4311 13.4668 18.4293C12.3778 17.4275 11.8336 16.167 11.8343 14.6476C11.8343 14.514 11.8802 14.3971 11.9719 14.297C12.0637 14.1968 12.184 14.1467 12.3329 14.1467Z" fill="#BBA473"/>
</svg>
