<svg width="24" height="24" viewBox="0 0 24 24" fill="none" xmlns="http://www.w3.org/2000/svg">
<path d="M19.97 9.99994H3.97V17.9999C3.97 20.9999 4.97 21.9999 7.97 21.9999H15.97C18.97 21.9999 19.97 20.9999 19.97 17.9999V9.99994Z" stroke="#232323" stroke-width="1.5" stroke-miterlimit="10" stroke-linecap="round" stroke-linejoin="round"/>
<path d="M21.5 6.99994V7.99994C21.5 9.09994 20.97 9.99994 19.5 9.99994H4.5C2.97 9.99994 2.5 9.09994 2.5 7.99994V6.99994C2.5 5.89994 2.97 4.99994 4.5 4.99994H19.5C20.97 4.99994 21.5 5.89994 21.5 6.99994Z" stroke="#232323" stroke-width="1.5" stroke-miterlimit="10" stroke-linecap="round" stroke-linejoin="round"/>
<path d="M11.64 4.99994H6.12C5.78 4.62994 5.79 4.05994 6.15 3.69994L7.57 2.27994C7.94 1.90994 8.55 1.90994 8.92 2.27994L11.64 4.99994Z" stroke="#232323" stroke-width="1.5" stroke-miterlimit="10" stroke-linecap="round" stroke-linejoin="round"/>
<path d="M17.87 4.99994H12.35L15.07 2.27994C15.44 1.90994 16.05 1.90994 16.42 2.27994L17.84 3.69994C18.2 4.05994 18.21 4.62994 17.87 4.99994Z" stroke="#232323" stroke-width="1.5" stroke-miterlimit="10" stroke-linecap="round" stroke-linejoin="round"/>
<path d="M8.94 9.99994V15.1399C8.94 15.9399 9.82 16.4099 10.49 15.9799L11.43 15.3599C11.77 15.1399 12.2 15.1399 12.53 15.3599L13.42 15.9599C14.08 16.3999 14.97 15.9299 14.97 15.1299V9.99994H8.94Z" stroke="#232323" stroke-width="1.5" stroke-miterlimit="10" stroke-linecap="round" stroke-linejoin="round"/>
</svg>
