<svg width="49" height="49" viewBox="0 0 49 49" fill="none" xmlns="http://www.w3.org/2000/svg">
<path d="M31.6385 23.5005H38.8385C39.5583 23.486 40.2604 23.7243 40.8226 24.1741C41.3849 24.6239 41.7715 25.2566 41.9154 25.962L44.5 38.8851H26.0385L28.5615 25.962C28.7054 25.2566 29.0921 24.6239 29.6543 24.1741C30.2165 23.7243 30.9186 23.486 31.6385 23.5005ZM31.6385 23.5005L17.3615 23.5005M33.7308 23.5005L31.1462 10.5774C31.0023 9.87194 30.6156 9.23925 30.0534 8.78948C29.4912 8.33972 28.7891 8.10134 28.0692 8.11586H20.8692C20.1494 8.10134 19.4473 8.33972 18.8851 8.78948C18.3228 9.23925 17.9362 9.87194 17.7923 10.5774L15.2692 23.5005M20.3769 25.962C20.2331 25.2566 19.8464 24.6239 19.2842 24.1741C18.722 23.7243 18.0198 23.486 17.3 23.5005H10.1C9.38017 23.486 8.67803 23.7243 8.11582 24.1741C7.55361 24.6239 7.16693 25.2566 7.02308 25.962L4.5 38.8851H22.9615L20.3769 25.962Z" stroke="url(#paint0_linear_223_2150)" stroke-width="3.07692" stroke-linecap="round" stroke-linejoin="round"/>
<defs>
<linearGradient id="paint0_linear_223_2150" x1="4.5" y1="25.2485" x2="44.5158" y2="24.7392" gradientUnits="userSpaceOnUse">
<stop stop-color="#BBA473"/>
<stop offset="1" stop-color="#685A3D"/>
</linearGradient>
</defs>
</svg>
