<svg width="24" height="24" viewBox="0 0 24 24" fill="none" xmlns="http://www.w3.org/2000/svg">
<path d="M11.9992 2.00074C10.1456 1.99999 8.32823 2.51497 6.75051 3.48807C5.17279 4.46117 3.8969 5.85401 3.06555 7.51082C2.36492 8.90369 2 10.4412 2 12.0004C2 13.5595 2.36492 15.0971 3.06555 16.4899C3.8969 18.1467 5.17279 19.5396 6.75051 20.5127C8.32823 21.4858 10.1456 22.0007 11.9992 22C14.6988 22 16.9694 21.1119 18.627 19.5856C20.5141 17.8447 21.604 15.2713 21.604 12.2287C21.6002 11.5472 21.5411 10.8672 21.4274 10.1952H12.0018V14.0452H17.4008C17.2902 14.66 17.0567 15.2461 16.7142 15.7685C16.3718 16.2909 15.9274 16.7388 15.4077 17.0853C14.5096 17.6934 13.3541 18.0415 12.0018 18.0415C9.39306 18.0415 7.18045 16.283 6.38825 13.914C5.97079 12.6724 5.97079 11.3283 6.38825 10.0867C7.18045 7.71517 9.39306 5.95921 12.0018 5.95921C13.4273 5.93535 14.805 6.47372 15.8366 7.45783L18.6926 4.60692C16.8841 2.90426 14.4829 1.96993 11.9992 2.00074Z" fill="#BBA473"/>
</svg>
