<svg width="25" height="24" viewBox="0 0 25 24" fill="none" xmlns="http://www.w3.org/2000/svg">
<path d="M20.3034 9.99994H4.30337V17.9999C4.30337 20.9999 5.30337 21.9999 8.30337 21.9999H16.3034C19.3034 21.9999 20.3034 20.9999 20.3034 17.9999V9.99994Z" stroke="#8E8E93" stroke-width="1.5" stroke-miterlimit="10" stroke-linecap="round" stroke-linejoin="round"/>
<path d="M21.8334 6.99994V7.99994C21.8334 9.09994 21.3034 9.99994 19.8334 9.99994H4.83337C3.30337 9.99994 2.83337 9.09994 2.83337 7.99994V6.99994C2.83337 5.89994 3.30337 4.99994 4.83337 4.99994H19.8334C21.3034 4.99994 21.8334 5.89994 21.8334 6.99994Z" stroke="#8E8E93" stroke-width="1.5" stroke-miterlimit="10" stroke-linecap="round" stroke-linejoin="round"/>
<path d="M11.9734 4.99994H6.45337C6.11337 4.62994 6.12337 4.05994 6.48337 3.69994L7.90337 2.27994C8.27337 1.90994 8.88337 1.90994 9.25337 2.27994L11.9734 4.99994Z" stroke="#8E8E93" stroke-width="1.5" stroke-miterlimit="10" stroke-linecap="round" stroke-linejoin="round"/>
<path d="M18.2034 4.99994H12.6834L15.4034 2.27994C15.7734 1.90994 16.3834 1.90994 16.7534 2.27994L18.1734 3.69994C18.5334 4.05994 18.5434 4.62994 18.2034 4.99994Z" stroke="#8E8E93" stroke-width="1.5" stroke-miterlimit="10" stroke-linecap="round" stroke-linejoin="round"/>
<path d="M9.27337 9.99994V15.1399C9.27337 15.9399 10.1534 16.4099 10.8234 15.9799L11.7634 15.3599C12.1034 15.1399 12.5334 15.1399 12.8634 15.3599L13.7534 15.9599C14.4134 16.3999 15.3034 15.9299 15.3034 15.1299V9.99994H9.27337Z" stroke="#8E8E93" stroke-width="1.5" stroke-miterlimit="10" stroke-linecap="round" stroke-linejoin="round"/>
</svg>
