<svg width="328" height="453" viewBox="0 0 328 453" fill="none" xmlns="http://www.w3.org/2000/svg">
<path d="M33.6888 20.1161V93H27.5817V20.1161H33.6888ZM58.6675 20.1161V25.4222H2.65305V20.1161H58.6675ZM70.8324 47.798V93H64.8755V38.8377H70.6822L70.8324 47.798ZM90.0045 38.4372L89.8543 43.9435C89.1869 43.8434 88.5361 43.76 87.902 43.6933C87.268 43.6265 86.5839 43.5931 85.8497 43.5931C83.2467 43.5931 80.9607 44.077 78.9918 45.0448C77.0562 45.9792 75.421 47.2974 74.0861 48.9994C72.7513 50.6679 71.7334 52.6369 71.0326 54.9062C70.3318 57.1421 69.9314 59.5448 69.8312 62.1145L67.6287 62.9654C67.6287 59.428 67.9958 56.1409 68.73 53.1041C69.4642 50.0673 70.5821 47.4142 72.0838 45.1449C73.6189 42.8423 75.5378 41.0569 77.8405 39.7888C80.1765 38.4873 82.913 37.8365 86.0499 37.8365C86.8175 37.8365 87.5683 37.9033 88.3025 38.0367C89.0701 38.1369 89.6374 38.2703 90.0045 38.4372ZM129.901 83.2888V55.3567C129.901 52.7871 129.367 50.5678 128.299 48.699C127.232 46.8302 125.663 45.3952 123.594 44.3941C121.525 43.3929 118.972 42.8923 115.935 42.8923C113.132 42.8923 110.629 43.3929 108.427 44.3941C106.257 45.3618 104.539 46.68 103.271 48.3486C102.036 49.9838 101.418 51.8026 101.418 53.8049L95.4116 53.7548C95.4116 51.7192 95.9121 49.7502 96.9133 47.848C97.9144 45.9458 99.3327 44.2439 101.168 42.7422C103.004 41.2404 105.189 40.0557 107.726 39.1881C110.295 38.287 113.115 37.8365 116.185 37.8365C120.057 37.8365 123.461 38.4873 126.397 39.7888C129.367 41.0903 131.687 43.0425 133.355 45.6455C135.024 48.2485 135.858 51.5189 135.858 55.4568V81.6369C135.858 83.5057 135.992 85.4413 136.259 87.4436C136.559 89.4459 136.976 91.0978 137.51 92.3993V93H131.153C130.752 91.7986 130.435 90.2969 130.202 88.4948C130.001 86.6594 129.901 84.924 129.901 83.2888ZM131.303 61.4637L131.403 66.069H119.639C116.569 66.069 113.816 66.3527 111.38 66.92C108.977 67.4539 106.942 68.2549 105.273 69.3227C103.604 70.3573 102.32 71.6087 101.418 73.0771C100.551 74.5454 100.117 76.214 100.117 78.0828C100.117 80.0184 100.601 81.7871 101.569 83.3889C102.57 84.9908 103.971 86.2756 105.773 87.2434C107.609 88.1778 109.778 88.645 112.281 88.645C115.618 88.645 118.555 88.0276 121.091 86.7929C123.661 85.5581 125.78 83.9396 127.448 81.9373C129.117 79.935 130.235 77.7491 130.802 75.3797L133.405 78.8337C132.971 80.5023 132.171 82.2209 131.003 83.9896C129.868 85.725 128.383 87.3602 126.547 88.8953C124.712 90.397 122.543 91.6318 120.04 92.5995C117.57 93.5339 114.767 94.0012 111.63 94.0012C108.093 94.0012 105.006 93.3337 102.37 91.9988C99.7666 90.664 97.7309 88.8452 96.2625 86.5426C94.8276 84.2065 94.1101 81.5702 94.1101 78.6335C94.1101 75.9637 94.6774 73.5776 95.812 71.4752C96.9467 69.3394 98.5819 67.5374 100.718 66.069C102.887 64.5673 105.49 63.4326 108.527 62.6651C111.597 61.8642 115.034 61.4637 118.839 61.4637H131.303ZM171.45 88.8452C173.986 88.8452 176.356 88.378 178.558 87.4436C180.794 86.4758 182.629 85.0575 184.064 83.1887C185.533 81.2865 186.367 78.9672 186.567 76.2307H192.274C192.107 79.668 191.056 82.7382 189.12 85.4413C187.218 88.111 184.715 90.2135 181.612 91.7486C178.541 93.2503 175.154 94.0012 171.45 94.0012C167.679 94.0012 164.342 93.317 161.438 91.9488C158.568 90.5805 156.166 88.6784 154.23 86.2422C152.295 83.7727 150.826 80.9027 149.825 77.6323C148.857 74.3285 148.373 70.7744 148.373 66.97V64.8676C148.373 61.0632 148.857 57.5258 149.825 54.2554C150.826 50.9516 152.295 48.0816 154.23 45.6455C156.166 43.176 158.568 41.2571 161.438 39.8889C164.308 38.5206 167.629 37.8365 171.4 37.8365C175.271 37.8365 178.742 38.6207 181.812 40.1892C184.915 41.7577 187.385 43.9769 189.22 46.8469C191.089 49.7169 192.107 53.1208 192.274 57.0586H186.567C186.4 54.1553 185.633 51.6524 184.265 49.55C182.896 47.4476 181.094 45.829 178.858 44.6944C176.623 43.5598 174.136 42.9924 171.4 42.9924C168.33 42.9924 165.71 43.5931 163.541 44.7945C161.372 45.9625 159.603 47.5811 158.235 49.6501C156.9 51.6858 155.915 54.0218 155.281 56.6582C154.647 59.2612 154.33 61.9977 154.33 64.8676V66.97C154.33 69.8734 154.631 72.6432 155.231 75.2796C155.865 77.8826 156.85 80.2019 158.185 82.2376C159.553 84.2733 161.322 85.8918 163.491 87.0932C165.693 88.2612 168.346 88.8452 171.45 88.8452ZM209.845 16.1115V93H203.888V16.1115H209.845ZM243.834 38.8377L218.505 63.9666L207.743 74.3786L206.842 68.5218L215.502 59.1611L236.275 38.8377H243.834ZM238.628 93L216.002 64.8676L219.306 59.7117L245.836 93H238.628Z" fill="white"/>
<path d="M63.8235 171.307V199.689C62.7556 201.058 61.0703 202.543 58.7676 204.144C56.4984 205.746 53.5283 207.131 49.8574 208.299C46.1865 209.434 41.6813 210.001 36.3418 210.001C31.7032 210.001 27.4649 209.234 23.6272 207.699C19.7894 206.13 16.4856 203.844 13.7158 200.841C10.9459 197.837 8.81014 194.166 7.30841 189.828C5.80668 185.49 5.05582 180.534 5.05582 174.961V170.155C5.05582 164.582 5.75663 159.627 7.15824 155.288C8.59322 150.95 10.6289 147.279 13.2653 144.276C15.935 141.272 19.122 138.986 22.8263 137.418C26.5639 135.849 30.7354 135.065 35.3407 135.065C41.5144 135.065 46.587 136.083 50.5582 138.118C54.5628 140.154 57.633 142.957 59.7688 146.528C61.9046 150.066 63.2395 154.137 63.7734 158.742H50.358C49.9909 156.206 49.2567 153.987 48.1554 152.084C47.0542 150.149 45.4857 148.647 43.45 147.579C41.4477 146.478 38.8447 145.927 35.641 145.927C32.9379 145.927 30.5518 146.461 28.4828 147.529C26.4137 148.597 24.6784 150.149 23.2768 152.185C21.8752 154.22 20.8073 156.74 20.0731 159.743C19.3723 162.747 19.0219 166.184 19.0219 170.055V174.961C19.0219 178.865 19.4224 182.336 20.2233 185.373C21.0242 188.376 22.1755 190.913 23.6773 192.982C25.2124 195.017 27.0979 196.569 29.3338 197.637C31.603 198.671 34.1727 199.189 37.0426 199.189C39.6456 199.189 41.7981 198.972 43.5001 198.538C45.2354 198.071 46.6203 197.52 47.6548 196.886C48.6894 196.252 49.4903 195.635 50.0576 195.034V181.368H35.591V171.307H63.8235ZM73.0349 182.469V181.418C73.0349 177.447 73.6023 173.793 74.7369 170.456C75.8715 167.085 77.5234 164.165 79.6926 161.696C81.8618 159.226 84.5148 157.307 87.6518 155.939C90.7887 154.537 94.3595 153.837 98.3641 153.837C102.435 153.837 106.04 154.537 109.177 155.939C112.347 157.307 115.017 159.226 117.186 161.696C119.355 164.165 121.007 167.085 122.141 170.456C123.276 173.793 123.843 177.447 123.843 181.418V182.469C123.843 186.407 123.276 190.062 122.141 193.432C121.007 196.769 119.355 199.689 117.186 202.192C115.017 204.662 112.364 206.581 109.227 207.949C106.09 209.317 102.502 210.001 98.4642 210.001C94.4596 210.001 90.8721 209.317 87.7018 207.949C84.5315 206.581 81.8618 204.662 79.6926 202.192C77.5234 199.689 75.8715 196.769 74.7369 193.432C73.6023 190.062 73.0349 186.407 73.0349 182.469ZM86.2501 181.418V182.469C86.2501 184.839 86.4837 187.058 86.951 189.127C87.4182 191.196 88.1356 193.015 89.1034 194.583C90.0712 196.152 91.3226 197.387 92.8577 198.288C94.4262 199.155 96.295 199.589 98.4642 199.589C100.6 199.589 102.435 199.155 103.971 198.288C105.506 197.387 106.757 196.152 107.725 194.583C108.726 193.015 109.46 191.196 109.927 189.127C110.395 187.058 110.628 184.839 110.628 182.469V181.418C110.628 179.082 110.395 176.896 109.927 174.861C109.46 172.792 108.726 170.973 107.725 169.404C106.757 167.803 105.489 166.551 103.92 165.65C102.385 164.716 100.533 164.248 98.3641 164.248C96.2283 164.248 94.3928 164.716 92.8577 165.65C91.3226 166.551 90.0712 167.803 89.1034 169.404C88.1356 170.973 87.4182 172.792 86.951 174.861C86.4837 176.896 86.2501 179.082 86.2501 181.418ZM147.021 132.112V209H133.756V132.112H147.021ZM191.673 197.487V132.112H204.989V209H192.975L191.673 197.487ZM156.883 182.57V181.518C156.883 177.38 157.35 173.626 158.285 170.255C159.253 166.851 160.654 163.931 162.49 161.495C164.325 159.059 166.544 157.174 169.147 155.839C171.784 154.504 174.77 153.837 178.108 153.837C181.345 153.837 184.165 154.487 186.567 155.789C189.003 157.09 191.073 158.942 192.775 161.345C194.51 163.748 195.895 166.601 196.929 169.905C197.964 173.175 198.715 176.78 199.182 180.717V183.571C198.715 187.408 197.964 190.929 196.929 194.133C195.895 197.337 194.51 200.14 192.775 202.543C191.073 204.912 189.003 206.747 186.567 208.049C184.131 209.35 181.278 210.001 178.008 210.001C174.704 210.001 171.734 209.317 169.097 207.949C166.494 206.581 164.275 204.662 162.44 202.192C160.638 199.723 159.253 196.819 158.285 193.482C157.35 190.145 156.883 186.507 156.883 182.57ZM170.148 181.518V182.57C170.148 184.906 170.349 187.091 170.749 189.127C171.15 191.163 171.8 192.965 172.701 194.533C173.602 196.068 174.754 197.27 176.155 198.137C177.59 199.005 179.326 199.439 181.361 199.439C183.964 199.439 186.1 198.872 187.769 197.737C189.471 196.569 190.789 194.984 191.723 192.982C192.658 190.946 193.258 188.66 193.525 186.124V178.265C193.392 176.262 193.041 174.41 192.474 172.708C191.94 171.006 191.173 169.538 190.172 168.303C189.204 167.068 188.002 166.101 186.567 165.4C185.132 164.699 183.43 164.349 181.461 164.349C179.426 164.349 177.69 164.799 176.255 165.7C174.821 166.568 173.652 167.786 172.751 169.354C171.85 170.923 171.183 172.742 170.749 174.811C170.349 176.88 170.148 179.116 170.148 181.518ZM217.854 205.346C217.854 204.178 218.221 203.193 218.956 202.392C219.723 201.558 220.758 201.141 222.059 201.141C223.394 201.141 224.445 201.558 225.213 202.392C225.98 203.193 226.364 204.178 226.364 205.346C226.364 206.48 225.98 207.448 225.213 208.249C224.445 209.05 223.394 209.451 222.059 209.451C220.758 209.451 219.723 209.05 218.956 208.249C218.221 207.448 217.854 206.48 217.854 205.346Z" fill="white"/>
<path d="M32.9649 287.362H13.2628L13.1667 282.365H30.1297C33.5896 282.365 36.5369 281.868 38.9716 280.875C41.4063 279.882 43.2484 278.408 44.4978 276.454C45.7792 274.468 46.4199 272.033 46.4199 269.15C46.4199 266.203 45.7952 263.768 44.5458 261.846C43.2964 259.892 41.4223 258.45 38.9235 257.521C36.4247 256.592 33.2852 256.127 29.505 256.127H14.8006V321H8.88994V251.034H29.505C33.061 251.034 36.2485 251.386 39.0677 252.091C41.8868 252.796 44.2895 253.901 46.2758 255.407C48.262 256.912 49.7677 258.818 50.7928 261.125C51.85 263.4 52.3786 266.123 52.3786 269.294C52.3786 272.177 51.7379 274.788 50.4564 277.127C49.175 279.434 47.365 281.324 45.0264 282.797C42.7198 284.239 39.9487 285.136 36.7131 285.488L32.9649 287.362ZM32.5324 321H11.3887L14.4161 315.954H32.5324C35.9923 315.954 38.9395 315.378 41.3743 314.224C43.841 313.039 45.7311 311.357 47.0446 309.179C48.3581 307 49.0148 304.405 49.0148 301.394C49.0148 298.735 48.4382 296.348 47.2849 294.234C46.1316 292.12 44.3696 290.454 41.999 289.236C39.6283 287.987 36.617 287.362 32.9649 287.362H20.7112L20.8073 282.365H38.1547L39.2119 284.143C42.3514 284.463 45.0904 285.44 47.429 287.074C49.7997 288.676 51.6257 290.71 52.9072 293.177C54.2206 295.644 54.8774 298.351 54.8774 301.298C54.8774 305.527 53.9323 309.115 52.0422 312.062C50.1841 314.977 47.5732 317.204 44.2094 318.741C40.8777 320.247 36.9854 321 32.5324 321ZM100.77 308.987V269.006H106.536V321H101.01L100.77 308.987ZM101.827 299.376L104.806 299.28C104.806 302.547 104.422 305.559 103.653 308.314C102.884 311.069 101.683 313.472 100.049 315.522C98.4149 317.572 96.3005 319.158 93.7056 320.279C91.1107 321.4 87.9872 321.961 84.3352 321.961C81.8043 321.961 79.4817 321.609 77.3674 320.904C75.285 320.167 73.491 319.014 71.9853 317.444C70.4797 315.874 69.3104 313.84 68.4774 311.341C67.6765 308.842 67.2761 305.815 67.2761 302.259V269.006H72.9945V302.355C72.9945 305.142 73.2988 307.465 73.9075 309.323C74.5482 311.181 75.4132 312.671 76.5024 313.792C77.6237 314.913 78.9051 315.714 80.3467 316.195C81.7883 316.675 83.342 316.915 85.0079 316.915C89.2366 316.915 92.5684 316.099 95.0031 314.465C97.4698 312.831 99.2158 310.684 100.241 308.025C101.298 305.334 101.827 302.451 101.827 299.376ZM127.536 269.006V321H121.818V269.006H127.536ZM120.809 253.965C120.809 252.876 121.145 251.963 121.818 251.226C122.523 250.457 123.484 250.073 124.701 250.073C125.919 250.073 126.88 250.457 127.584 251.226C128.321 251.963 128.69 252.876 128.69 253.965C128.69 255.022 128.321 255.935 127.584 256.704C126.88 257.441 125.919 257.809 124.701 257.809C123.484 257.809 122.523 257.441 121.818 256.704C121.145 255.935 120.809 255.022 120.809 253.965ZM149.209 247.189V321H143.491V247.189H149.209ZM198.273 310.909V247.189H204.04V321H198.658L198.273 310.909ZM162.185 295.532V294.522C162.185 290.486 162.649 286.85 163.578 283.614C164.507 280.347 165.837 277.559 167.567 275.253C169.329 272.914 171.443 271.136 173.91 269.919C176.377 268.669 179.164 268.045 182.271 268.045C185.315 268.045 188.006 268.541 190.344 269.534C192.683 270.528 194.685 271.953 196.351 273.811C198.049 275.669 199.41 277.88 200.436 280.443C201.493 283.006 202.262 285.857 202.742 288.996V301.827C202.358 304.774 201.653 307.481 200.628 309.948C199.603 312.382 198.241 314.513 196.543 316.339C194.845 318.133 192.795 319.526 190.392 320.519C188.022 321.481 185.283 321.961 182.175 321.961C179.1 321.961 176.329 321.32 173.862 320.039C171.395 318.757 169.297 316.947 167.567 314.609C165.837 312.238 164.507 309.435 163.578 306.199C162.649 302.964 162.185 299.408 162.185 295.532ZM167.951 294.522V295.532C167.951 298.575 168.256 301.394 168.864 303.989C169.473 306.584 170.402 308.842 171.651 310.765C172.901 312.687 174.487 314.192 176.409 315.282C178.331 316.371 180.605 316.915 183.232 316.915C186.532 316.915 189.303 316.291 191.546 315.041C193.788 313.76 195.582 312.078 196.928 309.996C198.273 307.881 199.25 305.575 199.859 303.076V288.131C199.474 286.433 198.914 284.703 198.177 282.941C197.44 281.179 196.431 279.562 195.15 278.088C193.9 276.582 192.298 275.381 190.344 274.484C188.422 273.555 186.083 273.09 183.328 273.09C180.669 273.09 178.379 273.635 176.457 274.724C174.535 275.813 172.933 277.335 171.651 279.289C170.402 281.212 169.473 283.47 168.864 286.065C168.256 288.66 167.951 291.479 167.951 294.522ZM23.8827 417.593L37.8183 361.034H45.3627L45.8433 372.951L30.9466 431H22.9697L23.8827 417.593ZM15.0889 361.034L26.5257 417.401V431H17.8279L1.9702 361.034H15.0889ZM60.3074 417.161L71.552 361.034H84.7187L68.861 431H60.1633L60.3074 417.161ZM48.9668 361.034L62.9023 417.785L63.7193 431H55.7423L40.8937 372.903L41.4704 361.034H48.9668ZM113.504 431.961C109.563 431.961 106.023 431.32 102.884 430.039C99.7444 428.757 97.0694 426.98 94.8589 424.705C92.6805 422.398 90.9986 419.723 89.8133 416.68C88.66 413.605 88.0834 410.305 88.0834 406.781V404.859C88.0834 400.854 88.66 397.218 89.8133 393.951C90.9666 390.651 92.6004 387.816 94.7148 385.445C96.8291 383.074 99.36 381.248 102.307 379.967C105.255 378.685 108.506 378.045 112.062 378.045C115.746 378.045 118.998 378.669 121.817 379.919C124.636 381.136 126.991 382.866 128.881 385.109C130.771 387.351 132.197 390.042 133.158 393.182C134.119 396.289 134.599 399.733 134.599 403.513V408.847H93.8498V400.101H122.105V399.14C122.041 397.122 121.657 395.28 120.952 393.614C120.247 391.916 119.158 390.571 117.684 389.578C116.211 388.553 114.305 388.04 111.966 388.04C110.076 388.04 108.426 388.456 107.017 389.289C105.639 390.09 104.486 391.244 103.557 392.749C102.66 394.223 101.987 395.985 101.538 398.035C101.09 400.085 100.866 402.36 100.866 404.859V406.781C100.866 408.959 101.154 410.978 101.731 412.836C102.339 414.694 103.22 416.312 104.374 417.689C105.559 419.035 106.968 420.092 108.602 420.861C110.268 421.597 112.158 421.966 114.273 421.966C116.932 421.966 119.334 421.453 121.481 420.428C123.659 419.371 125.549 417.817 127.151 415.767L133.542 422.398C132.453 424 130.979 425.538 129.121 427.012C127.295 428.485 125.085 429.687 122.49 430.616C119.895 431.513 116.9 431.961 113.504 431.961ZM171.313 419.948V395.969C171.313 394.207 171.009 392.685 170.4 391.404C169.792 390.122 168.863 389.129 167.613 388.424C166.364 387.72 164.778 387.367 162.856 387.367C161.158 387.367 159.668 387.656 158.387 388.232C157.137 388.809 156.176 389.626 155.504 390.683C154.831 391.708 154.494 392.893 154.494 394.239H141.76C141.76 392.092 142.273 390.058 143.298 388.136C144.323 386.182 145.781 384.452 147.671 382.946C149.593 381.409 151.884 380.207 154.543 379.342C157.234 378.477 160.245 378.045 163.577 378.045C167.517 378.045 171.025 378.718 174.1 380.063C177.208 381.377 179.643 383.363 181.405 386.022C183.199 388.681 184.096 392.028 184.096 396.065V418.746C184.096 421.341 184.256 423.568 184.576 425.426C184.929 427.252 185.441 428.838 186.114 430.183V431H173.187C172.579 429.687 172.114 428.021 171.794 426.002C171.473 423.952 171.313 421.934 171.313 419.948ZM173.091 399.333L173.187 406.877H165.162C163.176 406.877 161.43 407.085 159.925 407.502C158.419 407.886 157.185 408.463 156.224 409.232C155.263 409.968 154.543 410.865 154.062 411.923C153.581 412.948 153.341 414.117 153.341 415.431C153.341 416.712 153.629 417.865 154.206 418.89C154.815 419.916 155.68 420.733 156.801 421.341C157.954 421.918 159.3 422.206 160.838 422.206C163.08 422.206 165.034 421.758 166.7 420.861C168.366 419.932 169.663 418.81 170.592 417.497C171.522 416.183 172.018 414.934 172.082 413.749L175.734 419.227C175.286 420.54 174.613 421.934 173.716 423.408C172.819 424.881 171.666 426.259 170.256 427.54C168.847 428.822 167.149 429.879 165.162 430.712C163.176 431.545 160.87 431.961 158.243 431.961C154.879 431.961 151.868 431.288 149.209 429.943C146.55 428.597 144.451 426.755 142.914 424.417C141.376 422.078 140.607 419.419 140.607 416.44C140.607 413.685 141.12 411.25 142.145 409.136C143.17 407.021 144.692 405.243 146.71 403.802C148.728 402.328 151.227 401.223 154.206 400.486C157.218 399.717 160.661 399.333 164.538 399.333H173.091ZM208.556 357.189V431H195.822V357.189H208.556ZM244.837 379.006V388.136H215.044V379.006H244.837ZM223.021 366.224H235.755V416.007C235.755 417.545 235.963 418.73 236.38 419.563C236.796 420.396 237.421 420.957 238.254 421.245C239.087 421.533 240.08 421.678 241.233 421.678C242.066 421.678 242.835 421.63 243.54 421.533C244.245 421.437 244.837 421.341 245.318 421.245L245.366 430.76C244.309 431.112 243.107 431.4 241.762 431.625C240.448 431.849 238.959 431.961 237.293 431.961C234.442 431.961 231.943 431.481 229.796 430.519C227.65 429.526 225.984 427.941 224.799 425.762C223.613 423.552 223.021 420.636 223.021 417.016V366.224ZM265.309 357.189V431H252.575V357.189H265.309ZM263.291 403.129H259.542C259.542 399.509 260.023 396.177 260.984 393.134C261.945 390.09 263.307 387.447 265.069 385.205C266.831 382.93 268.929 381.168 271.364 379.919C273.83 378.669 276.553 378.045 279.533 378.045C282.096 378.045 284.418 378.413 286.501 379.15C288.615 379.855 290.425 380.992 291.931 382.562C293.436 384.132 294.59 386.182 295.391 388.713C296.223 391.212 296.64 394.255 296.64 397.843V431H283.858V397.747C283.858 395.344 283.505 393.454 282.8 392.076C282.096 390.667 281.087 389.658 279.773 389.049C278.492 388.44 276.906 388.136 275.016 388.136C272.965 388.136 271.204 388.537 269.73 389.337C268.256 390.106 267.039 391.179 266.078 392.557C265.149 393.935 264.444 395.52 263.963 397.314C263.515 399.108 263.291 401.047 263.291 403.129ZM308.606 426.291C308.606 424.785 309.071 423.52 310 422.494C310.961 421.437 312.338 420.909 314.132 420.909C315.926 420.909 317.288 421.437 318.217 422.494C319.178 423.52 319.659 424.785 319.659 426.291C319.659 427.764 319.178 429.014 318.217 430.039C317.288 431.064 315.926 431.577 314.132 431.577C312.338 431.577 310.961 431.064 310 430.039C309.071 429.014 308.606 427.764 308.606 426.291Z" fill="white"/>
</svg>
