<svg width="18" height="18" viewBox="0 0 18 18" fill="none" xmlns="http://www.w3.org/2000/svg">
<path d="M0 6.75H18V10.6875H0V6.75Z" fill="#E6E7E8"/>
<path d="M15.1875 2.53125H2.8125C0.948656 2.53125 0 3.91641 0 5.625V6.75H18V5.625C18 3.91641 17.0513 2.53125 15.1875 2.53125Z" fill="#FF9933"/>
<path d="M0 11.8125C0 13.5211 0.948656 14.9062 2.8125 14.9062H15.1875C17.0513 14.9062 18 13.5211 18 11.8125V10.6875H0V11.8125Z" fill="#128807"/>
<path fill-rule="evenodd" clip-rule="evenodd" d="M9.08731 6.91406C9.44666 6.91406 9.79794 7.02066 10.0967 7.22036C10.3954 7.42007 10.6282 7.7039 10.7656 8.03595C10.903 8.368 10.9388 8.73335 10.8685 9.08576C10.7982 9.43816 10.6249 9.76179 10.3706 10.0157C10.1163 10.2696 9.79244 10.4424 9.43993 10.5121C9.08741 10.5819 8.72213 10.5455 8.39029 10.4076C8.05845 10.2697 7.77497 10.0365 7.57573 9.73742C7.37649 9.43836 7.27044 9.08691 7.271 8.72756C7.27189 8.24638 7.46363 7.7852 7.80414 7.44522C8.14465 7.10523 8.60613 6.91421 9.08731 6.91406ZM7.87653 7.70016C7.90775 7.73559 7.91337 7.77356 7.89256 7.80534C7.8838 7.82003 7.87016 7.83117 7.85403 7.83684C7.84167 7.84144 7.82838 7.84297 7.81531 7.8413C7.80223 7.83964 7.78975 7.83483 7.77894 7.82728C7.73006 7.8973 7.68707 7.97123 7.6504 8.04834C7.69287 8.07619 7.70694 8.11106 7.69287 8.14959C7.68535 8.16921 7.67048 8.18511 7.65141 8.19393C7.63235 8.20276 7.6106 8.2038 7.59078 8.19684C7.57053 8.23734 7.52581 8.40834 7.52525 8.44434C7.54374 8.44825 7.56037 8.45826 7.5725 8.47275C7.585 8.48745 7.59143 8.50635 7.5905 8.52562C7.58515 8.5785 7.55253 8.601 7.50275 8.60297C7.49487 8.65387 7.49572 8.82431 7.50359 8.85778C7.55609 8.86341 7.5845 8.88638 7.58881 8.92669C7.595 8.97 7.57419 8.99812 7.52356 9.01781C7.53856 9.10144 7.56031 9.18347 7.58881 9.26391C7.60865 9.258 7.62987 9.25869 7.64928 9.26587C7.66812 9.27403 7.68303 9.28809 7.6909 9.3075C7.69784 9.3225 7.69944 9.33834 7.69569 9.35503C7.69304 9.36736 7.68758 9.3789 7.67972 9.38876C7.67186 9.39861 7.66183 9.40652 7.6504 9.41184C7.68809 9.49003 7.72972 9.56372 7.77894 9.63291C7.82281 9.61125 7.86106 9.61631 7.88694 9.64725C7.89822 9.66002 7.90469 9.67634 7.90522 9.69338C7.90602 9.70597 7.90378 9.71858 7.89869 9.73013C7.8936 9.74168 7.88581 9.75184 7.87597 9.75975C7.93203 9.82538 7.9925 9.88584 8.05737 9.94116C8.09422 9.90881 8.13247 9.90375 8.16537 9.92681C8.18037 9.93731 8.1904 9.951 8.19547 9.96788C8.19884 9.97983 8.19952 9.99238 8.19748 10.0046C8.19544 10.0169 8.19072 10.0285 8.18365 10.0388C8.25472 10.0875 8.3285 10.1301 8.405 10.1664C8.435 10.1244 8.46856 10.1105 8.50569 10.1245C8.52173 10.1303 8.53566 10.1408 8.54562 10.1546C8.55931 10.1771 8.56194 10.2017 8.5535 10.2283C8.6345 10.257 8.71606 10.2789 8.80044 10.2938C8.81703 10.2463 8.84572 10.2241 8.88397 10.2269C8.90169 10.2283 8.91772 10.2337 8.93178 10.2458C8.95147 10.2638 8.96056 10.2867 8.95906 10.3147C9.04531 10.321 9.13044 10.321 9.21444 10.3147C9.22062 10.2604 9.24228 10.2331 9.28587 10.2269C9.30244 10.2245 9.31931 10.2279 9.33369 10.2365C9.34418 10.2425 9.35321 10.2507 9.36011 10.2607C9.36702 10.2706 9.37163 10.2819 9.37362 10.2938C9.45856 10.2783 9.54087 10.2563 9.62056 10.228C9.61353 10.1749 9.62647 10.1431 9.66219 10.1265C9.67521 10.1209 9.68942 10.1187 9.70353 10.12C9.71834 10.121 9.73119 10.126 9.74206 10.1352C9.75247 10.1439 9.76119 10.1546 9.77131 10.1656C9.84798 10.1294 9.92154 10.087 9.99125 10.0388C9.96256 9.99375 9.97944 9.95072 10.0028 9.93159C10.0109 9.92461 10.0204 9.91933 10.0306 9.91604C10.0408 9.91275 10.0515 9.91153 10.0622 9.91245C10.0729 9.91336 10.0833 9.9164 10.0928 9.92138C10.1023 9.92636 10.1107 9.93317 10.1175 9.94144C10.1825 9.88575 10.2435 9.82528 10.2981 9.76031C10.2663 9.72403 10.2601 9.68578 10.2835 9.65287C10.293 9.6382 10.3075 9.62742 10.3242 9.6225C10.3362 9.61867 10.349 9.61767 10.3614 9.61957C10.3738 9.62147 10.3857 9.62623 10.396 9.63347C10.4451 9.56278 10.4879 9.489 10.5245 9.41213C10.4832 9.38456 10.4687 9.35231 10.4809 9.31537C10.4855 9.29902 10.4954 9.28466 10.509 9.27459C10.5199 9.26685 10.5324 9.26179 10.5456 9.25983C10.5588 9.25788 10.5723 9.25908 10.585 9.26334C10.6032 9.22369 10.6488 9.05662 10.6513 9.01612C10.6319 9.01247 10.6144 9.00212 10.6018 8.98687C10.5953 8.97926 10.5904 8.97039 10.5875 8.96081C10.5845 8.95123 10.5836 8.94115 10.5847 8.93119C10.5858 8.91339 10.5932 8.89656 10.6055 8.88366C10.6141 8.87487 10.6244 8.86805 10.6359 8.86367C10.6474 8.8593 10.6596 8.85748 10.6719 8.85834C10.6789 8.77327 10.6789 8.68776 10.6719 8.60269C10.6182 8.59734 10.5926 8.57653 10.5855 8.53406C10.5824 8.518 10.5848 8.50136 10.5923 8.48681C10.5981 8.47557 10.6064 8.46584 10.6166 8.45837C10.6268 8.4509 10.6386 8.44591 10.6511 8.44378C10.6363 8.35974 10.6144 8.27713 10.5855 8.19684C10.5335 8.20556 10.5014 8.1915 10.4843 8.1555C10.4798 8.14587 10.4773 8.13546 10.477 8.12486C10.4766 8.11426 10.4783 8.10369 10.482 8.09377C10.4858 8.08385 10.4915 8.07477 10.4988 8.06707C10.506 8.05937 10.5148 8.05319 10.5245 8.04891C10.4881 7.97158 10.4451 7.89752 10.396 7.82756C10.3507 7.84922 10.3138 7.84416 10.288 7.81322C10.2765 7.80011 10.2702 7.78336 10.27 7.76597C10.2694 7.7536 10.2717 7.74128 10.2768 7.72999C10.2819 7.7187 10.2896 7.70877 10.2992 7.701C10.2436 7.63604 10.1832 7.57539 10.1184 7.51959C10.0796 7.55278 10.0419 7.557 10.0098 7.53394C9.99519 7.5243 9.98451 7.50973 9.97972 7.49288C9.97628 7.48107 9.97556 7.46863 9.9776 7.45651C9.97965 7.44438 9.98441 7.43287 9.99153 7.42284C9.92143 7.37396 9.84739 7.33097 9.77019 7.29431C9.74131 7.33556 9.7085 7.34991 9.67175 7.33734C9.6555 7.33196 9.64128 7.32175 9.63097 7.30809C9.62355 7.29712 9.61881 7.28455 9.61715 7.27141C9.61549 7.25826 9.61695 7.24491 9.6214 7.23244C9.54125 7.20315 9.4586 7.18121 9.37447 7.16691C9.35844 7.21247 9.32947 7.23609 9.29206 7.23384C9.27465 7.23293 9.25794 7.22664 9.24425 7.21584C9.23426 7.20736 9.22646 7.19659 9.22151 7.18444C9.21657 7.1723 9.21462 7.15915 9.21584 7.14609C9.13087 7.13888 9.04543 7.13898 8.96047 7.14638C8.95447 7.19719 8.93272 7.22578 8.89522 7.23216C8.8784 7.23579 8.86085 7.23361 8.84544 7.22597C8.83397 7.22022 8.82403 7.21185 8.8164 7.20154C8.80878 7.19123 8.80369 7.17927 8.80156 7.16663C8.7175 7.18191 8.63482 7.20402 8.55434 7.23272C8.56334 7.2825 8.54928 7.31513 8.51497 7.33284C8.50015 7.34072 8.48412 7.34325 8.46687 7.34044C8.45376 7.33868 8.44133 7.33352 8.43083 7.32548C8.42032 7.31744 8.41209 7.30679 8.40697 7.29459C8.35887 7.31259 8.20587 7.40119 8.18562 7.42341C8.20644 7.46503 8.20165 7.50187 8.17297 7.52831C8.16486 7.53547 8.1554 7.54093 8.14514 7.54436C8.13489 7.54779 8.12405 7.54913 8.11326 7.54829C8.10248 7.54745 8.09198 7.54445 8.08238 7.53947C8.07278 7.5345 8.06427 7.52764 8.05737 7.51931C7.9926 7.57493 7.93215 7.63539 7.87653 7.70016Z" fill="#010088"/>
<path fill-rule="evenodd" clip-rule="evenodd" d="M9.8661 10.0758C9.86272 10.0722 9.85935 10.0697 9.85682 10.0657C9.6933 9.81576 9.52934 9.5661 9.36491 9.31675L9.35366 9.29481C9.31541 9.20566 9.278 9.1165 9.23891 9.02762C9.23769 9.02301 9.2359 9.01857 9.23357 9.01441C9.21782 9.02031 9.20347 9.02706 9.1866 9.03353L9.19222 9.04788C9.22738 9.13422 9.26113 9.22084 9.29685 9.30719C9.30641 9.33025 9.31035 9.35444 9.31541 9.37862C9.34297 9.50772 9.36885 9.63738 9.39669 9.76675L9.49175 10.2288C9.49237 10.2299 9.49262 10.2311 9.49247 10.2324C9.49231 10.2336 9.49177 10.2347 9.49091 10.2356L9.48697 10.2258C9.40991 9.98978 9.33088 9.75409 9.25353 9.51813C9.23807 9.472 9.22428 9.42644 9.20741 9.38031C9.19953 9.35725 9.197 9.33363 9.19335 9.30972C9.1835 9.24278 9.17506 9.17528 9.1641 9.10834C9.16241 9.09241 9.16035 9.07666 9.15791 9.06109L9.15481 9.04197C9.13794 9.04366 9.12247 9.04591 9.1056 9.04788C9.1056 9.05463 9.10597 9.06156 9.10672 9.06869C9.11657 9.15109 9.125 9.23378 9.13681 9.31591C9.143 9.36091 9.13991 9.40506 9.13738 9.45006L9.13147 9.56425C9.12641 9.64131 9.12247 9.71809 9.11713 9.79487L9.10869 9.9535L9.0935 10.2227C9.09125 10.248 9.09069 10.2738 9.08816 10.2986L9.08141 10.2134L9.07269 10.0289L9.06256 9.86434C9.05956 9.80809 9.05638 9.75194 9.053 9.69588L9.04681 9.58591L9.03725 9.41181C9.03438 9.38108 9.03514 9.35012 9.0395 9.31956C9.04513 9.27775 9.05028 9.23566 9.05497 9.19328C9.06041 9.15147 9.06556 9.10994 9.07044 9.06869L9.07185 9.04788L9.02263 9.04141C9.02094 9.05266 9.01897 9.06381 9.01672 9.07488L8.98072 9.3325C8.97735 9.36597 8.96413 9.39691 8.95288 9.42812C8.86625 9.69212 8.77916 9.95594 8.6916 10.2196C8.68963 10.2243 8.68878 10.2288 8.68513 10.2333C8.68494 10.2302 8.68541 10.2272 8.68653 10.2243C8.72272 10.0464 8.75956 9.86856 8.79706 9.69081L8.87019 9.337L8.87694 9.31759C8.91322 9.22844 8.9481 9.13844 8.98522 9.04928C8.9866 9.04405 8.98849 9.03896 8.99085 9.03409L8.94416 9.01469C8.94219 9.01975 8.9391 9.02397 8.93741 9.02903L8.82182 9.29763C8.81944 9.30437 8.81642 9.31086 8.81281 9.31703C8.64686 9.56843 8.48139 9.82015 8.31641 10.0722C8.31432 10.0761 8.31133 10.0795 8.30769 10.082L8.31331 10.0699L8.72 9.26359C8.72356 9.2563 8.7279 9.24942 8.73294 9.24306L8.90675 9.00991C8.91041 9.00597 8.91266 9.00231 8.91603 8.99809C8.90169 8.98769 8.89016 8.97812 8.87581 8.96716C8.87263 8.97072 8.86981 8.97419 8.86738 8.97756C8.80663 9.05406 8.74663 9.13037 8.68738 9.2065C8.681 9.21362 8.67416 9.22056 8.66685 9.22731C8.44522 9.42559 8.2236 9.62275 8.00113 9.82131C7.99681 9.82525 7.99194 9.82862 7.9865 9.83144L7.99213 9.82384C8.17438 9.62003 8.35616 9.41622 8.53747 9.21241C8.54797 9.20116 8.55819 9.18962 8.56813 9.17781C8.58894 9.15381 8.6121 9.13225 8.6376 9.11312L8.83953 8.95422C8.84403 8.95084 8.84741 8.94719 8.85247 8.94381L8.82153 8.90416L8.80916 8.91287L8.57685 9.08641C8.568 9.09265 8.55879 9.09838 8.54928 9.10356C8.28519 9.23687 8.01969 9.37019 7.75503 9.5035C7.74997 9.50575 7.74519 9.50856 7.73928 9.50856L7.74997 9.50097L8.24385 9.17753C8.3301 9.12109 8.41606 9.06447 8.50175 9.00766L8.52313 8.99641C8.61294 8.95834 8.70228 8.92019 8.79116 8.88194C8.79528 8.88044 8.79978 8.87847 8.80466 8.87603L8.78581 8.82962C8.78047 8.83103 8.7771 8.83244 8.77288 8.83384C8.68175 8.87012 8.59147 8.90697 8.49978 8.94297C8.48094 8.95 8.46041 8.95337 8.44044 8.95759L7.82591 9.08528C7.74856 9.10188 7.66981 9.11819 7.59219 9.13422C7.58906 9.13491 7.58578 9.13452 7.58291 9.13309C7.60428 9.12616 7.62556 9.11903 7.64675 9.11172C7.91225 9.02434 8.17738 8.93678 8.44213 8.84903C8.46294 8.842 8.48516 8.84003 8.50625 8.83666L8.76163 8.80037L8.7771 8.797L8.77147 8.7475L8.73041 8.752L8.56053 8.77253L8.46603 8.78406C8.45853 8.785 8.45113 8.78528 8.44381 8.78491L8.26494 8.7745L8.15919 8.76859L7.97694 8.75791L7.71116 8.74328C7.64703 8.73991 7.5846 8.73569 7.52075 8.73119C7.53088 8.73034 7.54213 8.72866 7.5531 8.72866L7.77106 8.71628L8.05906 8.69997L8.29756 8.68647L8.44719 8.67747C8.45356 8.67747 8.45985 8.67784 8.46603 8.67859L8.6376 8.69912L8.7591 8.71375H8.77147C8.77288 8.69772 8.77541 8.68253 8.7771 8.66509C8.76669 8.66284 8.75488 8.66116 8.74447 8.65919C8.66947 8.64869 8.59456 8.63791 8.51975 8.62684L8.47307 8.62066C8.46446 8.61947 8.45599 8.6175 8.44775 8.61475C8.22416 8.54134 8.00197 8.46737 7.77866 8.39397L7.59247 8.33209C7.58718 8.33049 7.58216 8.32813 7.57756 8.32506L7.61666 8.33294L8.09394 8.43222C8.22163 8.45894 8.35128 8.48537 8.47897 8.51237L8.50147 8.51941C8.59147 8.55484 8.68063 8.59141 8.77147 8.62741L8.78497 8.63275C8.79116 8.61756 8.79772 8.60209 8.80466 8.58634C8.80005 8.58366 8.79526 8.58131 8.79031 8.57931C8.70088 8.54144 8.61163 8.50319 8.52256 8.46456L8.50232 8.45416C8.25003 8.28906 7.99888 8.12312 7.74631 7.95775C7.74293 7.95597 7.74026 7.95309 7.73872 7.94959L7.74885 7.95522C8.00028 8.08178 8.252 8.20825 8.504 8.33462C8.54563 8.35544 8.58613 8.38047 8.62325 8.40887C8.68456 8.45641 8.747 8.50197 8.80944 8.54866L8.82182 8.55737L8.85275 8.51828L8.84178 8.50872L8.61313 8.329C8.60563 8.32281 8.59869 8.31634 8.59231 8.30959C8.393 8.08647 8.19397 7.86334 7.99522 7.64022C7.99252 7.63776 7.99032 7.6348 7.98875 7.6315C7.99466 7.63206 7.99691 7.636 7.99944 7.63853C8.11981 7.74541 8.23981 7.85228 8.35944 7.95916L8.66938 8.23534C8.675 8.24078 8.68035 8.24641 8.68541 8.25222L8.86288 8.47778C8.86738 8.48284 8.87075 8.48819 8.87581 8.49494L8.9166 8.46372C8.91407 8.45978 8.91069 8.45669 8.90872 8.45303C8.85097 8.37559 8.79294 8.29825 8.73463 8.221C8.72856 8.21195 8.72302 8.20256 8.71803 8.19287C8.58322 7.92662 8.44888 7.66037 8.315 7.39412C8.31247 7.38906 8.30994 7.38512 8.30938 7.37978L8.31613 7.38766L8.60356 7.82697L8.80691 8.13634C8.81394 8.14816 8.82181 8.16053 8.82631 8.17347C8.864 8.26009 8.90113 8.34681 8.93769 8.43363C8.93994 8.43738 8.94219 8.44178 8.94444 8.44684L8.99113 8.42744L8.98606 8.41562C8.95119 8.32787 8.91613 8.24031 8.88088 8.15294C8.87103 8.13072 8.86738 8.10766 8.8626 8.08459C8.83194 7.93806 8.80241 7.79125 8.77175 7.64444C8.74166 7.50325 8.71297 7.36319 8.68344 7.22144C8.68306 7.22087 8.68344 7.21928 8.68456 7.21666L8.70931 7.29175C8.79763 7.55706 8.8851 7.82266 8.97172 8.08853C8.97903 8.10934 8.98156 8.13212 8.98466 8.15378C8.99478 8.22766 9.00566 8.30172 9.01728 8.37597C9.01925 8.39003 9.0201 8.40409 9.02291 8.41956L9.07185 8.41338V8.39481L9.05047 8.21847C9.04625 8.18416 9.04316 8.15069 9.03838 8.11722C9.03565 8.09471 9.03565 8.07195 9.03838 8.04944L9.04485 7.93525L9.05863 7.70603C9.06116 7.66497 9.062 7.62334 9.06453 7.58228C9.0681 7.52866 9.07128 7.47484 9.0741 7.42084C9.07653 7.38147 9.0786 7.34209 9.08028 7.30272C9.08272 7.25641 9.086 7.21019 9.09013 7.16406C9.09106 7.17663 9.09181 7.18966 9.09238 7.20316C9.09613 7.25959 9.0995 7.31622 9.1025 7.37303L9.11713 7.63066L9.12585 7.77522L9.13906 8.02609L9.14188 8.06294C9.14553 8.09556 9.13907 8.12791 9.13625 8.16025L9.11825 8.30763C9.11544 8.33547 9.11122 8.36331 9.10785 8.39144C9.10728 8.39819 9.10728 8.4055 9.10531 8.41366C9.12275 8.41619 9.1385 8.41788 9.15594 8.42013C9.15847 8.40803 9.1596 8.39678 9.16157 8.38497C9.17507 8.29366 9.18819 8.20206 9.20094 8.11019C9.20206 8.10344 9.20488 8.09641 9.20657 8.08937C9.29825 7.81431 9.38825 7.53897 9.47938 7.26334C9.48388 7.25069 9.48725 7.23859 9.49428 7.2265L9.49119 7.24562C9.45013 7.44475 9.40738 7.64331 9.3666 7.84188C9.34822 7.93506 9.32919 8.02825 9.3095 8.12144C9.30811 8.12915 9.30565 8.13663 9.30219 8.14366L9.19363 8.41506C9.19175 8.41881 9.18997 8.42322 9.18828 8.42828C9.20516 8.43475 9.21894 8.44122 9.23525 8.44769L9.24172 8.43419L9.35506 8.16784C9.35957 8.15884 9.36294 8.15012 9.36885 8.14281L9.85963 7.39412C9.86272 7.39019 9.86525 7.38625 9.87003 7.38344C9.86835 7.38737 9.86638 7.39131 9.86413 7.39525L9.46053 8.19681C9.45641 8.2045 9.45191 8.21181 9.44703 8.21875L9.2721 8.45191L9.26282 8.46456L9.30275 8.49578L9.31147 8.48509C9.37091 8.40916 9.43072 8.33312 9.49091 8.257C9.49754 8.24843 9.50498 8.24052 9.51313 8.23337C9.73532 8.03481 9.95769 7.83653 10.1803 7.63853C10.1839 7.63544 10.1864 7.63234 10.1923 7.63066L10.185 7.63966C10.0945 7.74222 10.0032 7.8445 9.9111 7.9465C9.80178 8.06875 9.69285 8.191 9.58428 8.31325C9.57828 8.31944 9.57219 8.32497 9.566 8.32984L9.33735 8.50956L9.3261 8.51856C9.33678 8.53206 9.34635 8.545 9.3576 8.5585L9.36969 8.5495L9.60397 8.374L9.62253 8.36219C9.89216 8.22681 10.161 8.09144 10.4292 7.95606C10.4333 7.95381 10.4376 7.95259 10.4421 7.95241C10.4301 7.96047 10.418 7.96834 10.4058 7.97603L9.67682 8.45444C9.67025 8.45856 9.6635 8.46222 9.65656 8.46541C9.56685 8.50422 9.47628 8.54247 9.38741 8.581L9.37306 8.58662C9.38066 8.60237 9.386 8.61728 9.39275 8.63303L9.40569 8.62881C9.49597 8.59309 9.58569 8.55569 9.67682 8.52109C9.69932 8.51209 9.72406 8.50816 9.74853 8.50309L10.1628 8.41703C10.2916 8.39059 10.4193 8.36359 10.5484 8.33687C10.5598 8.33425 10.5716 8.33181 10.5836 8.32956C10.5867 8.32956 10.5895 8.329 10.594 8.33069L10.5546 8.34362C10.2801 8.43456 10.0056 8.52494 9.7311 8.61475C9.71028 8.62206 9.68722 8.62403 9.66557 8.62741L9.48332 8.65356L9.41778 8.66284L9.40175 8.66566C9.40344 8.68225 9.40597 8.69772 9.4071 8.71572L9.44956 8.71122L9.60144 8.69322C9.63941 8.68844 9.67906 8.68309 9.71872 8.67944C9.73644 8.67803 9.75444 8.67972 9.77272 8.68056C9.81125 8.68225 9.84978 8.68562 9.89 8.68731L10.1173 8.70081L10.2196 8.70644L10.4514 8.71966C10.5062 8.72303 10.5628 8.72556 10.6173 8.72894C10.6309 8.72967 10.6444 8.73089 10.6578 8.73259L10.6168 8.73597L10.4466 8.74525L10.2359 8.75762L10.077 8.76606C10.0039 8.77056 9.92938 8.77478 9.85569 8.77956C9.81519 8.78125 9.77356 8.78519 9.73278 8.78547C9.70944 8.78603 9.68497 8.78153 9.66219 8.779L9.51228 8.761L9.41638 8.74947H9.4071C9.4056 8.76559 9.40382 8.78209 9.40175 8.79897L9.69931 8.842C9.72856 8.84566 9.75416 8.85719 9.78172 8.86591L10.5816 9.13C10.5869 9.13075 10.5919 9.13299 10.5959 9.13647C10.5894 9.13534 10.5827 9.13441 10.576 9.13366L9.88128 8.98881L9.69791 8.95056C9.692 8.94887 9.68413 8.94663 9.67766 8.94353C9.58747 8.90772 9.49691 8.87153 9.40597 8.83497L9.39388 8.83075L9.37335 8.87659L9.38825 8.88362C9.47788 8.92169 9.56722 8.95994 9.65628 8.99838C9.66322 9.00137 9.67035 9.00531 9.67766 9.01019L10.4263 9.50069C10.43 9.5035 10.4348 9.50688 10.4379 9.51222C10.4339 9.51034 10.4303 9.50837 10.4269 9.50631L10.0368 9.31056C9.9005 9.24156 9.76353 9.17256 9.62591 9.10356C9.61709 9.09931 9.60886 9.09392 9.60144 9.08753L9.36857 8.91372L9.3576 8.90584C9.34691 8.91878 9.33735 8.93144 9.3261 8.94494L9.33678 8.95338C9.41216 9.01356 9.48894 9.07375 9.5646 9.13366C9.57316 9.13988 9.58099 9.14705 9.58794 9.15503L10.1839 9.82187C10.1866 9.82507 10.1885 9.82882 10.1895 9.83284C10.1864 9.82947 10.1822 9.82722 10.1791 9.82469C9.95544 9.625 9.73156 9.4255 9.5075 9.22619C9.50241 9.22169 9.49787 9.21659 9.494 9.211L9.31175 8.97869C9.30913 8.97513 9.30622 8.97156 9.30303 8.968C9.2901 8.97869 9.27744 8.98825 9.2645 8.9995C9.26582 9.00306 9.26778 9.00653 9.27041 9.00991L9.44731 9.24559C9.45214 9.2526 9.45664 9.25983 9.46081 9.26725L9.86272 10.0663C9.865 10.0699 9.86644 10.0739 9.86694 10.0781H9.8661V10.0758Z" fill="#010088"/>
<path fill-rule="evenodd" clip-rule="evenodd" d="M9.86328 10.0752L9.86928 10.0827C9.86803 10.0832 9.86803 10.0839 9.86653 10.0842C9.86603 10.0807 9.86428 10.0784 9.86378 10.0752H9.86328Z" fill="#010088"/>
</svg>
