<svg width="24" height="24" viewBox="0 0 24 24" fill="none" xmlns="http://www.w3.org/2000/svg">
<path d="M19.06 18.6703L16.92 14.4004L14.78 18.6703" stroke="#BBA473" stroke-width="1.5" stroke-linecap="round" stroke-linejoin="round"/>
<path d="M15.17 17.9102H18.69" stroke="#BBA473" stroke-width="1.5" stroke-linecap="round" stroke-linejoin="round"/>
<path d="M16.92 21.9998C14.12 21.9998 11.84 19.7298 11.84 16.9198C11.84 14.1198 14.11 11.8398 16.92 11.8398C19.72 11.8398 22 14.1098 22 16.9198C22 19.7298 19.73 21.9998 16.92 21.9998Z" stroke="#BBA473" stroke-width="1.5" stroke-linecap="round" stroke-linejoin="round"/>
<path d="M5.02 2H8.94C11.01 2 12.01 3.00002 11.96 5.02002V8.94C12.01 11.01 11.01 12.01 8.94 11.96H5.02C3 12 2 11 2 8.92999V5.01001C2 3.00001 3 2 5.02 2Z" stroke="#BBA473" stroke-width="1.5" stroke-linecap="round" stroke-linejoin="round"/>
<path d="M9.00999 5.84961H4.95" stroke="#BBA473" stroke-width="1.5" stroke-linecap="round" stroke-linejoin="round"/>
<path d="M6.97 5.16992V5.84991" stroke="#BBA473" stroke-width="1.5" stroke-linecap="round" stroke-linejoin="round"/>
<path d="M7.99001 5.83984C7.99001 7.58984 6.62 9.00983 4.94 9.00983" stroke="#BBA473" stroke-width="1.5" stroke-linecap="round" stroke-linejoin="round"/>
<path d="M9.00999 9.01001C8.27999 9.01001 7.62 8.62 7.16 8" stroke="#BBA473" stroke-width="1.5" stroke-linecap="round" stroke-linejoin="round"/>
<path d="M2 15C2 18.87 5.13 22 9 22L7.95 20.25" stroke="#BBA473" stroke-width="1.5" stroke-linecap="round" stroke-linejoin="round"/>
<path d="M22 9C22 5.13 18.87 2 15 2L16.05 3.75" stroke="#BBA473" stroke-width="1.5" stroke-linecap="round" stroke-linejoin="round"/>
</svg>
