<svg width="129" height="266" viewBox="0 0 129 266" fill="none" xmlns="http://www.w3.org/2000/svg">
<g clip-path="url(#clip0_57113_55349)">
<path d="M98.3199 55.1873C97.1845 55.1873 96.049 55.1873 94.8904 55.1873C95.2612 56.4147 95.6088 57.6885 95.8637 58.939C96.6515 58.5453 97.4394 58.1516 98.2272 57.7811C100.035 56.8779 101.819 56.0442 103.534 55.1179C101.796 55.1179 100.058 55.1179 98.3199 55.1642V55.1873ZM101.355 69.6615C99.8956 69.9162 98.3431 70.171 96.6979 70.3562C96.6515 71.4215 96.5588 72.4868 96.3966 73.529C97.1613 74.0616 97.4394 74.7564 97.5552 75.1038C97.6943 75.5901 97.9028 76.887 96.6979 78.1375C96.2344 78.6239 95.7246 79.087 95.2148 79.5271C94.9831 80.4071 94.7282 81.264 94.4038 82.0977C95.7246 82.3987 96.4661 83.3251 96.6979 84.1819C96.9991 85.2935 96.6979 86.8452 94.9599 87.9336C93.8708 88.5821 92.55 89.0684 91.206 89.3C83.6982 102.778 69.2851 111.88 52.7401 111.88C28.4092 111.88 8.71277 92.1948 8.71277 67.8783C8.71277 43.5617 28.4092 23.9 52.7401 23.9C69.5863 23.9 84.2312 33.3719 91.6463 47.2902C93.2915 46.6881 95.1453 46.3871 97.0223 46.3639C98.2968 46.3639 99.5944 46.3639 100.869 46.3176C92.6427 27.9759 74.1976 15.1924 52.7633 15.1924C23.6125 15.1924 0 38.791 0 67.9014C0 84.5988 7.76271 99.4435 19.8586 109.101C22.9869 111.602 26.4164 113.779 30.0544 115.492C36.9366 118.781 44.6298 120.61 52.7401 120.61C60.8504 120.61 68.5436 118.781 75.4257 115.492C79.0638 113.779 82.4933 111.625 85.6215 109.101C97.4394 99.6751 105.109 85.3167 105.48 69.1288C104.09 69.2678 102.723 69.4531 101.379 69.6846L101.355 69.6615Z" fill="#BBA473"/>
<path d="M28.7104 117.646L22.3149 127.905C21.1563 129.735 19.2098 130.731 17.1938 130.731C16.1047 130.731 14.9925 130.43 14.0192 129.828C11.2154 128.068 10.3348 124.362 12.1191 121.537L18.5146 111.254C21.7124 113.825 25.1419 115.956 28.7104 117.646Z" fill="#BBA473"/>
<path d="M91.4841 129.827C90.5108 130.453 89.3986 130.731 88.2863 130.731C86.2935 130.731 84.347 129.735 83.1884 127.905L76.7928 117.669C80.3614 115.955 83.7677 113.825 86.9655 111.277L93.361 121.56C95.0989 124.385 94.2647 128.091 91.4609 129.851L91.4841 129.827Z" fill="#BBA473"/>
<path d="M40.2734 11.0929L5.46864 31.6809C0.463431 23.2512 2.31721 12.6677 9.36158 6.39172C9.26889 6.27593 9.19937 6.18329 9.12986 6.0675C7.99442 4.16849 8.64324 1.71368 10.5434 0.578907C12.4435 -0.555866 14.8998 0.0694173 16.0352 1.96842C16.1047 2.08422 16.1742 2.20001 16.2206 2.33896C25.1419 -0.787452 35.2913 2.7095 40.2734 11.0929Z" fill="#BBA473"/>
<path d="M99.687 31.9357L65.3689 10.5603C70.5595 2.24632 80.8016 -0.995884 89.6303 2.36212C89.6766 2.24632 89.7461 2.10737 89.8156 1.99158C90.9974 0.0925715 93.4769 -0.463236 95.3538 0.694696C97.2308 1.87579 97.8101 4.35376 96.6283 6.22961L96.4197 6.55383C103.302 13.0151 104.878 23.6449 99.7102 31.9357H99.687Z" fill="#BBA473"/>
<path d="M49.2179 69.592C49.2179 71.491 50.7704 73.0195 52.6706 73.0195C54.5707 73.0195 56.1232 71.491 56.1232 69.592V43.6775C56.1232 41.7785 54.5707 40.25 52.6706 40.25C50.7704 40.25 49.2179 41.7785 49.2179 43.6775V69.592Z" fill="#BBA473"/>
<path d="M40.7137 55.9514C39.6478 55.1409 37.8403 55.6735 36.6817 57.1789C35.5231 58.6842 35.4536 60.5832 36.5195 61.3937L51.1412 72.6257C52.2071 73.4362 54.0146 72.8804 55.1732 71.3751C56.3318 69.8698 56.4013 67.9708 55.3354 67.1602L40.6905 55.9283L40.7137 55.9514Z" fill="#BBA473"/>
<path d="M34.8975 54.0292C30.124 54.0292 25.3505 51.5049 22.6393 47.5216C21.8978 46.4332 22.1759 44.9278 23.265 44.1868C24.3541 43.4457 25.8603 43.7236 26.6018 44.8352C28.4787 47.6143 31.8387 49.2817 35.1524 49.2122C37.1915 49.1427 40.0417 48.3553 42.0345 44.951C42.7065 43.8162 44.1895 43.4225 45.325 44.0941C46.4604 44.7657 46.8544 46.2479 46.1824 47.3827C43.7493 51.5049 39.9027 53.8671 35.3146 54.006C35.1755 54.006 35.0133 54.006 34.8743 54.006L34.8975 54.0292Z" fill="#BBA473"/>
<path d="M71.1389 54.0292C66.3654 54.0292 61.5919 51.5049 58.8808 47.5216C58.1393 46.4332 58.4173 44.9278 59.5296 44.1868C60.6187 43.4457 62.1249 43.7236 62.8664 44.8352C64.7433 47.6143 68.1033 49.2817 71.417 49.2122C73.4561 49.1427 76.3063 48.3553 78.2991 44.951C78.9711 43.8162 80.4541 43.4225 81.5896 44.0941C82.725 44.7657 83.119 46.2479 82.447 47.3827C80.0139 51.5049 76.1673 53.8671 71.5792 54.006C71.4401 54.006 71.2779 54.006 71.1389 54.006V54.0292Z" fill="#BBA473"/>
<path d="M55.6598 90.8282C55.6598 91.0829 55.6598 91.3608 55.7061 91.6156C55.3122 90.805 55.0804 89.8787 55.0804 88.8597C55.0804 85.6406 57.444 83.0469 60.3174 83.0469C60.4332 83.0469 60.5491 83.0469 60.665 83.0469C57.7453 84.2511 55.6829 87.2849 55.6829 90.8282H55.6598Z" fill="#BBA473"/>
<path d="M65.5775 88.8368C65.5775 92.0327 63.214 94.6265 60.3174 94.6265C60.0162 94.6265 59.715 94.6033 59.4369 94.5338C58.6954 93.5148 58.2319 92.218 58.2319 90.8284C58.2319 87.6094 60.5955 85.0156 63.4689 85.0156C63.7701 85.0156 64.0713 85.0156 64.3494 85.1083C65.1141 86.1272 65.5775 87.401 65.5775 88.8368Z" fill="#BBA473"/>
<path d="M128.027 64.0106C126.127 65.2149 123.694 65.7707 121.446 65.7707C114.61 65.817 107.681 66.0486 100.938 67.1602C96.9064 67.8318 92.9439 68.3876 88.8424 68.1792C87.035 68.0865 86.8496 67.1139 88.2863 66.1412C95.8636 60.9537 105.04 58.2673 112.293 52.6166C105.202 52.5239 98.0881 52.6629 90.9743 52.6861C89.1668 52.6861 88.9814 51.5744 90.4413 50.6481C92.3414 49.4439 94.7977 48.888 97.0222 48.888C105.133 48.888 113.243 48.6796 121.353 48.888C122.28 48.9112 123.694 49.4207 122.535 50.4397C115.56 56.6693 106.708 59.68 98.7833 64.3117C103.209 63.9643 107.658 62.9222 112.084 62.5748C117.205 62.1811 122.373 61.9958 127.517 61.9727C129.348 61.9727 129.51 63.0843 128.073 64.0106H128.027Z" fill="#BBA473"/>
<path d="M94.8441 76.4003C91.3451 79.9436 86.757 81.9121 82.5396 84.4132C86.1081 84.6911 89.6998 84.4827 93.2684 84.4827C94.4733 84.4827 94.5892 85.2006 93.616 85.8027C92.3183 86.5901 90.7194 86.9838 89.2364 86.9838C84.7641 86.9838 80.3151 87.1922 75.866 86.6596C74.8001 86.5206 75.6343 85.6869 76.0514 85.409C80.1065 82.6995 84.88 80.9162 88.4949 77.6277C85.0422 77.0256 81.4969 77.5582 77.9978 77.6277C76.7697 77.6277 76.677 76.9098 77.6503 76.3077C78.9247 75.5203 80.5468 75.1497 82.0298 75.1497C86.2472 75.0803 90.4414 74.455 94.5892 75.474C95.1917 75.6361 95.2612 75.9835 94.8441 76.4235V76.4003Z" fill="#BBA473"/>
<path d="M103.534 210.836C101.796 209.933 100.011 209.076 98.2272 208.173C97.4394 207.779 96.6515 207.409 95.8636 207.015C95.6087 208.289 95.2843 209.539 94.8904 210.767C96.0258 210.767 97.1613 210.767 98.3199 210.767C100.058 210.767 101.796 210.813 103.534 210.813V210.836ZM105.457 196.871C105.086 180.66 97.4162 166.302 85.5983 156.9C82.4701 154.399 79.0406 152.222 75.4025 150.508C68.5204 147.219 60.8272 145.39 52.7169 145.39C44.6066 145.39 36.9134 147.219 30.0312 150.508C26.3932 152.222 22.9637 154.375 19.8354 156.9C7.73952 166.557 -0.0231934 181.402 -0.0231934 198.099C-0.0231934 227.186 23.5893 250.808 52.7169 250.808C74.1512 250.808 92.5964 238.024 100.823 219.683C99.548 219.683 98.2504 219.683 96.9759 219.636C95.099 219.636 93.2683 219.312 91.5999 218.71C84.1848 232.628 69.5399 242.1 52.6937 242.1C28.3628 242.1 8.66641 222.392 8.66641 198.099C8.66641 173.805 28.3628 154.097 52.6937 154.097C69.2387 154.097 83.6287 163.199 91.1597 176.677C92.5037 176.909 93.8245 177.395 94.9136 178.044C96.6747 179.132 96.9759 180.707 96.6515 181.795C96.4198 182.675 95.6783 183.578 94.3574 183.879C94.6587 184.713 94.9136 185.57 95.1685 186.45C95.6783 186.89 96.188 187.33 96.6515 187.84C97.8565 189.09 97.6479 190.387 97.5089 190.873C97.393 191.221 97.1381 191.939 96.3503 192.448C96.4893 193.513 96.582 194.556 96.6515 195.621C98.2967 195.806 99.8493 196.061 101.309 196.316C102.676 196.524 104.043 196.709 105.411 196.871H105.457Z" fill="url(#paint0_linear_57113_55349)" fill-opacity="0.2"/>
<path d="M28.7104 148.354L22.3149 138.095C21.1563 136.265 19.2098 135.27 17.1938 135.27C16.1047 135.27 14.9924 135.571 14.0192 136.173C11.2154 137.933 10.3348 141.638 12.1191 144.464L18.5146 154.746C21.7124 152.175 25.1419 150.045 28.7104 148.354Z" fill="url(#paint1_linear_57113_55349)" fill-opacity="0.2"/>
<path d="M91.4841 136.173C90.5108 135.547 89.3986 135.27 88.2863 135.27C86.2935 135.27 84.347 136.265 83.1884 138.095L76.7929 148.331C80.3614 150.045 83.7677 152.175 86.9655 154.723L93.361 144.44C95.099 141.615 94.2648 137.91 91.4609 136.15L91.4841 136.173Z" fill="url(#paint2_linear_57113_55349)" fill-opacity="0.2"/>
<path d="M40.2734 254.907L5.44546 234.296C0.463424 242.726 2.31721 253.309 9.36158 259.608C9.26889 259.724 9.19937 259.817 9.12985 259.932C7.99441 261.831 8.64324 264.286 10.5434 265.421C12.4435 266.556 14.8997 265.931 16.0352 264.031C16.1047 263.916 16.1742 263.8 16.2206 263.661C25.1419 266.787 35.2913 263.29 40.2734 254.907Z" fill="url(#paint3_linear_57113_55349)" fill-opacity="0.2"/>
<path d="M99.6871 234.041L65.3689 255.416C70.5595 263.73 80.8017 266.973 89.6303 263.615C89.6767 263.73 89.7462 263.869 89.8157 263.985C90.9975 265.884 93.4769 266.44 95.3539 265.282C97.2308 264.101 97.8101 261.623 96.6283 259.747L96.4198 259.423C103.302 252.962 104.878 242.332 99.7102 234.041H99.6871Z" fill="url(#paint4_linear_57113_55349)" fill-opacity="0.2"/>
<path d="M49.2179 196.408C49.2179 194.509 50.7704 192.981 52.6705 192.981C54.5707 192.981 56.1232 194.509 56.1232 196.408V222.323C56.1232 224.222 54.5707 225.75 52.6705 225.75C50.7704 225.75 49.2179 224.222 49.2179 222.323V196.408Z" fill="url(#paint5_linear_57113_55349)" fill-opacity="0.2"/>
<path d="M40.7136 210.026C39.6477 210.836 37.8403 210.303 36.6817 208.798C35.5231 207.293 35.4535 205.394 36.5195 204.583L51.1412 193.351C52.2071 192.541 54.0145 193.097 55.1731 194.602C56.3318 196.107 56.4013 198.006 55.3354 198.817L40.6905 210.049L40.7136 210.026Z" fill="url(#paint6_linear_57113_55349)" fill-opacity="0.2"/>
<path d="M34.8974 211.971C30.1239 211.971 25.3504 214.495 22.6393 218.478C21.8978 219.567 22.1758 221.072 23.2649 221.813C24.354 222.554 25.8602 222.276 26.6017 221.165C28.4787 218.386 31.8387 216.718 35.1523 216.788C37.1915 216.857 40.0417 217.645 42.0345 221.049C42.7065 222.184 44.1895 222.578 45.3249 221.906C46.4604 221.234 46.8543 219.752 46.1823 218.617C43.7492 214.495 39.9026 212.133 35.3145 211.994C35.1755 211.994 35.0133 211.994 34.8742 211.994L34.8974 211.971Z" fill="url(#paint7_linear_57113_55349)" fill-opacity="0.2"/>
<path d="M71.1388 211.971C66.3653 211.971 61.5919 214.495 58.8807 218.478C58.1392 219.567 58.4173 221.072 59.5295 221.813C60.6186 222.554 62.1248 222.276 62.8663 221.165C64.7433 218.386 68.1033 216.718 71.4169 216.788C73.4561 216.857 76.3063 217.645 78.2991 221.049C78.9711 222.184 80.4541 222.578 81.5895 221.906C82.725 221.234 83.1189 219.752 82.4469 218.617C80.0138 214.495 76.1672 212.133 71.5791 211.994C71.4401 211.994 71.2779 211.994 71.1388 211.994V211.971Z" fill="url(#paint8_linear_57113_55349)" fill-opacity="0.2"/>
<path d="M55.6598 175.172C55.6598 174.917 55.6598 174.639 55.7061 174.384C55.3122 175.195 55.0805 176.121 55.0805 177.14C55.0805 180.359 57.444 182.953 60.3174 182.953C60.4333 182.953 60.5491 182.953 60.665 182.953C57.7453 181.749 55.6829 178.715 55.6829 175.172H55.6598Z" fill="url(#paint9_linear_57113_55349)" fill-opacity="0.2"/>
<path d="M65.5775 177.163C65.5775 173.968 63.2139 171.374 60.3174 171.374C60.0162 171.374 59.7149 171.397 59.4368 171.466C58.6953 172.485 58.2319 173.782 58.2319 175.172C58.2319 178.391 60.5955 180.985 63.4688 180.985C63.7701 180.985 64.0713 180.985 64.3494 180.892C65.1141 179.873 65.5775 178.599 65.5775 177.163Z" fill="url(#paint10_linear_57113_55349)" fill-opacity="0.2"/>
<path d="M128.027 201.99C126.127 200.785 123.694 200.253 121.446 200.229C114.61 200.183 107.682 199.952 100.938 198.863C96.9064 198.192 92.9439 197.636 88.8424 197.844C87.035 197.937 86.8496 198.909 88.2863 199.882C95.8636 205.046 105.04 207.756 112.293 213.407C105.202 213.499 98.0882 213.36 90.9743 213.337C89.1669 213.337 88.9815 214.449 90.4413 215.375C92.3415 216.579 94.7977 217.112 97.0223 217.135C105.133 217.135 113.243 217.344 121.353 217.135C122.28 217.112 123.694 216.603 122.535 215.584C115.56 209.354 106.708 206.343 98.7833 201.712C103.209 202.059 107.658 203.101 112.084 203.449C117.205 203.842 122.373 204.027 127.517 204.051C129.348 204.051 129.51 202.939 128.073 202.013L128.027 201.99Z" fill="url(#paint11_linear_57113_55349)" fill-opacity="0.2"/>
<path d="M94.8441 189.6C91.3451 186.056 86.7569 184.088 82.5396 181.587C86.1081 181.309 89.6998 181.517 93.2684 181.517C94.4733 181.517 94.5892 180.799 93.6159 180.197C92.3183 179.41 90.7194 179.016 89.2364 179.016C84.7641 179.016 80.3151 178.808 75.866 179.34C74.8001 179.479 75.6343 180.313 76.0514 180.591C80.1065 183.301 84.88 185.084 88.4949 188.372C85.0422 188.974 81.4968 188.442 77.9978 188.372C76.7697 188.372 76.677 189.09 77.6502 189.692C78.9247 190.48 80.5468 190.85 82.0298 190.85C86.2472 190.92 90.4413 191.545 94.5892 190.526C95.1917 190.364 95.2612 190.017 94.8441 189.577V189.6Z" fill="url(#paint12_linear_57113_55349)" fill-opacity="0.2"/>
</g>
<defs>
<linearGradient id="paint0_linear_57113_55349" x1="82.2615" y1="151.689" x2="83.4188" y2="260.534" gradientUnits="userSpaceOnUse">
<stop stop-color="#BBA473"/>
<stop offset="1" stop-color="#554B34" stop-opacity="0"/>
</linearGradient>
<linearGradient id="paint1_linear_57113_55349" x1="82.2615" y1="151.689" x2="83.4188" y2="260.534" gradientUnits="userSpaceOnUse">
<stop stop-color="#BBA473"/>
<stop offset="1" stop-color="#554B34" stop-opacity="0"/>
</linearGradient>
<linearGradient id="paint2_linear_57113_55349" x1="82.2615" y1="151.689" x2="83.4188" y2="260.534" gradientUnits="userSpaceOnUse">
<stop stop-color="#BBA473"/>
<stop offset="1" stop-color="#554B34" stop-opacity="0"/>
</linearGradient>
<linearGradient id="paint3_linear_57113_55349" x1="82.2615" y1="151.689" x2="83.4188" y2="260.534" gradientUnits="userSpaceOnUse">
<stop stop-color="#BBA473"/>
<stop offset="1" stop-color="#554B34" stop-opacity="0"/>
</linearGradient>
<linearGradient id="paint4_linear_57113_55349" x1="82.2615" y1="151.689" x2="83.4188" y2="260.534" gradientUnits="userSpaceOnUse">
<stop stop-color="#BBA473"/>
<stop offset="1" stop-color="#554B34" stop-opacity="0"/>
</linearGradient>
<linearGradient id="paint5_linear_57113_55349" x1="82.2615" y1="151.689" x2="83.4188" y2="260.534" gradientUnits="userSpaceOnUse">
<stop stop-color="#BBA473"/>
<stop offset="1" stop-color="#554B34" stop-opacity="0"/>
</linearGradient>
<linearGradient id="paint6_linear_57113_55349" x1="82.2615" y1="151.689" x2="83.4188" y2="260.534" gradientUnits="userSpaceOnUse">
<stop stop-color="#BBA473"/>
<stop offset="1" stop-color="#554B34" stop-opacity="0"/>
</linearGradient>
<linearGradient id="paint7_linear_57113_55349" x1="82.2615" y1="151.689" x2="83.4188" y2="260.534" gradientUnits="userSpaceOnUse">
<stop stop-color="#BBA473"/>
<stop offset="1" stop-color="#554B34" stop-opacity="0"/>
</linearGradient>
<linearGradient id="paint8_linear_57113_55349" x1="82.2615" y1="151.689" x2="83.4188" y2="260.534" gradientUnits="userSpaceOnUse">
<stop stop-color="#BBA473"/>
<stop offset="1" stop-color="#554B34" stop-opacity="0"/>
</linearGradient>
<linearGradient id="paint9_linear_57113_55349" x1="82.2615" y1="151.689" x2="83.4188" y2="260.534" gradientUnits="userSpaceOnUse">
<stop stop-color="#BBA473"/>
<stop offset="1" stop-color="#554B34" stop-opacity="0"/>
</linearGradient>
<linearGradient id="paint10_linear_57113_55349" x1="82.2615" y1="151.689" x2="83.4188" y2="260.534" gradientUnits="userSpaceOnUse">
<stop stop-color="#BBA473"/>
<stop offset="1" stop-color="#554B34" stop-opacity="0"/>
</linearGradient>
<linearGradient id="paint11_linear_57113_55349" x1="82.2615" y1="151.689" x2="83.4188" y2="260.534" gradientUnits="userSpaceOnUse">
<stop stop-color="#BBA473"/>
<stop offset="1" stop-color="#554B34" stop-opacity="0"/>
</linearGradient>
<linearGradient id="paint12_linear_57113_55349" x1="82.2615" y1="151.689" x2="83.4188" y2="260.534" gradientUnits="userSpaceOnUse">
<stop stop-color="#BBA473"/>
<stop offset="1" stop-color="#554B34" stop-opacity="0"/>
</linearGradient>
<clipPath id="clip0_57113_55349">
<rect width="129" height="266" fill="white"/>
</clipPath>
</defs>
</svg>
