<svg width="25" height="24" viewBox="0 0 25 24" fill="none" xmlns="http://www.w3.org/2000/svg">
<path d="M16.0692 11.5H19.6692C20.0291 11.4927 20.3802 11.6119 20.6613 11.8368C20.9424 12.0617 21.1358 12.378 21.2077 12.7308L22.5 19.1923H13.2692L14.5308 12.7308C14.6027 12.378 14.796 12.0617 15.0771 11.8368C15.3582 11.6119 15.7093 11.4927 16.0692 11.5ZM16.0692 11.5L8.93077 11.5M17.1154 11.5L15.8231 5.03846C15.7512 4.68572 15.5578 4.36938 15.2767 4.1445C14.9956 3.91961 14.6445 3.80043 14.2846 3.80769H10.6846C10.3247 3.80043 9.97363 3.91961 9.69253 4.1445C9.41142 4.36938 9.21808 4.68572 9.14615 5.03846L7.88462 11.5M10.4385 12.7308C10.3665 12.378 10.1732 12.0617 9.89209 11.8368C9.61098 11.6119 9.25992 11.4927 8.9 11.5H5.3C4.94008 11.4927 4.58902 11.6119 4.30791 11.8368C4.02681 12.0617 3.83346 12.378 3.76154 12.7308L2.5 19.1923H11.7308L10.4385 12.7308Z" stroke="#8E8E93" stroke-width="1.53846" stroke-linecap="round" stroke-linejoin="round"/>
</svg>
