<svg width="24" height="24" viewBox="0 0 24 24" fill="none" xmlns="http://www.w3.org/2000/svg">
<path d="M15.5692 11.5001H19.1692C19.5291 11.4928 19.8802 11.612 20.1613 11.8369C20.4424 12.0618 20.6358 12.3781 20.7077 12.7308L22 19.1924H12.7692L14.0308 12.7308C14.1027 12.3781 14.296 12.0618 14.5771 11.8369C14.8582 11.612 15.2093 11.4928 15.5692 11.5001ZM15.5692 11.5001L8.43077 11.5001M16.6154 11.5001L15.3231 5.03852C15.2512 4.68578 15.0578 4.36944 14.7767 4.14456C14.4956 3.91967 14.1445 3.80049 13.7846 3.80775H10.1846C9.8247 3.80049 9.47363 3.91967 9.19253 4.14456C8.91142 4.36944 8.71808 4.68578 8.64615 5.03852L7.38462 11.5001M9.93846 12.7308C9.86654 12.3781 9.67319 12.0618 9.39209 11.8369C9.11098 11.612 8.75992 11.4928 8.4 11.5001H4.8C4.44008 11.4928 4.08902 11.612 3.80791 11.8369C3.52681 12.0618 3.33346 12.3781 3.26154 12.7308L2 19.1924H11.2308L9.93846 12.7308Z" stroke="url(#paint0_linear_126_783)" stroke-width="1.53846" stroke-linecap="round" stroke-linejoin="round"/>
<defs>
<linearGradient id="paint0_linear_126_783" x1="2" y1="12.374" x2="22.0079" y2="12.1194" gradientUnits="userSpaceOnUse">
<stop stop-color="#BBA473"/>
<stop offset="1" stop-color="#685A3D"/>
</linearGradient>
</defs>
</svg>
