<svg width="49" height="49" viewBox="0 0 49 49" fill="none" xmlns="http://www.w3.org/2000/svg">
<path d="M10.0599 17.1V25.9M32.9434 17.1006V25.9006M39.0999 16.34V26.64C39.0999 32.8 35.5799 35.4399 30.2999 35.4399H12.7199C11.8199 35.4399 10.9599 35.3601 10.1599 35.1801C9.65991 35.1001 9.17993 34.96 8.73993 34.8C5.73993 33.68 3.91992 31.08 3.91992 26.64V16.34C3.91992 10.18 7.43991 7.54004 12.7199 7.54004H30.2999C34.7799 7.54004 37.9999 9.44003 38.8599 13.78C38.9999 14.58 39.0999 15.4 39.0999 16.34ZM45.1021 22.3402V32.6403C45.1021 38.8003 41.5821 41.4402 36.3021 41.4402H18.7221C17.2421 41.4402 15.9021 41.2403 14.7421 40.8003C12.3621 39.9203 10.7421 38.1003 10.1621 35.1803C10.9621 35.3603 11.8221 35.4402 12.7221 35.4402H30.3021C35.5821 35.4402 39.1021 32.8003 39.1021 26.6403V16.3402C39.1021 15.4002 39.0221 14.5603 38.8621 13.7803C42.6621 14.5803 45.1021 17.2602 45.1021 22.3402ZM26.7769 21.4998C26.7769 24.4158 24.4129 26.7798 21.4968 26.7798C18.5808 26.7798 16.2168 24.4158 16.2168 21.4998C16.2168 18.5837 18.5808 16.2197 21.4968 16.2197C24.4129 16.2197 26.7769 18.5837 26.7769 21.4998Z" stroke="url(#paint0_linear_223_2157)" stroke-width="3" stroke-miterlimit="10" stroke-linecap="round" stroke-linejoin="round"/>
<defs>
<linearGradient id="paint0_linear_223_2157" x1="3.91992" y1="26.4163" x2="45.1192" y2="25.9263" gradientUnits="userSpaceOnUse">
<stop stop-color="#BBA473"/>
<stop offset="1" stop-color="#685A3D"/>
</linearGradient>
</defs>
</svg>
