<svg width="24" height="24" viewBox="0 0 24 24" fill="none" xmlns="http://www.w3.org/2000/svg">
<path d="M12.4999 17.2197L7.97881 19.9183C7.84596 19.9831 7.72266 20.0094 7.60891 19.9971C7.49598 19.9839 7.38597 19.9453 7.27886 19.8813C7.17091 19.8157 7.08954 19.7229 7.03474 19.6031C6.97994 19.4833 6.97496 19.3524 7.0198 19.2104L8.22293 14.1505L4.24363 10.7403C4.13153 10.6501 4.05764 10.5421 4.02193 10.4166C3.98623 10.291 3.99412 10.1707 4.0456 10.0558C4.09708 9.94093 4.16558 9.84655 4.2511 9.77268C4.33745 9.70127 4.4537 9.65285 4.59983 9.62741L9.85077 9.17436L11.8983 4.38288C11.9548 4.24745 12.0362 4.14979 12.1424 4.08987C12.2487 4.02996 12.3679 4 12.4999 4C12.6319 4 12.7515 4.02996 12.8586 4.08987C12.9657 4.14979 13.0467 4.24745 13.1015 4.38288L15.149 9.17436L20.3987 9.62741C20.5457 9.65203 20.6623 9.70086 20.7487 9.77391C20.835 9.84614 20.904 9.94011 20.9554 10.0558C21.0061 10.1707 21.0136 10.291 20.9779 10.4166C20.9422 10.5421 20.8683 10.6501 20.7562 10.7403L16.7769 14.1505L17.98 19.2104C18.0265 19.3507 18.0219 19.4812 17.9663 19.6019C17.9107 19.7225 17.8289 19.8153 17.7209 19.8801C17.6147 19.9458 17.5046 19.9847 17.3909 19.9971C17.278 20.0094 17.1551 19.9831 17.0222 19.9183L12.4999 17.2197Z" fill="url(#paint0_linear_217_1133)"/>
<defs>
<linearGradient id="paint0_linear_217_1133" x1="4" y1="12.9091" x2="21.0076" y2="12.7322" gradientUnits="userSpaceOnUse">
<stop stop-color="#BBA473"/>
<stop offset="1" stop-color="#685A3D"/>
</linearGradient>
</defs>
</svg>
