<svg width="49" height="49" viewBox="0 0 49 49" fill="none" xmlns="http://www.w3.org/2000/svg">
<path d="M24.5 3.5C30.0695 3.5 35.411 5.71249 39.3492 9.65076C43.2875 13.589 45.5 18.9305 45.5 24.5C45.5 30.0695 43.2875 35.411 39.3492 39.3492C35.411 43.2875 30.0695 45.5 24.5 45.5C18.9305 45.5 13.589 43.2875 9.65076 39.3492C5.71249 35.411 3.5 30.0695 3.5 24.5C3.5 18.9305 5.71249 13.589 9.65076 9.65076C13.589 5.71249 18.9305 3.5 24.5 3.5ZM21.884 28.643L17.219 23.975C17.0518 23.8078 16.8532 23.6751 16.6347 23.5846C16.4162 23.4941 16.182 23.4475 15.9455 23.4475C15.709 23.4475 15.4748 23.4941 15.2563 23.5846C15.0378 23.6751 14.8392 23.8078 14.672 23.975C14.3342 24.3128 14.1445 24.7708 14.1445 25.2485C14.1445 25.7262 14.3342 26.1842 14.672 26.522L20.612 32.462C20.7788 32.6301 20.9771 32.7635 21.1957 32.8545C21.4143 32.9456 21.6487 32.9925 21.8855 32.9925C22.1223 32.9925 22.3567 32.9456 22.5753 32.8545C22.7939 32.7635 22.9922 32.6301 23.159 32.462L35.459 20.159C35.6285 19.9925 35.7633 19.794 35.8557 19.5751C35.9481 19.3562 35.9962 19.1211 35.9973 18.8835C35.9984 18.6459 35.9525 18.4105 35.8621 18.1907C35.7718 17.9709 35.6388 17.7712 35.4709 17.6031C35.303 17.435 35.1034 17.3018 34.8838 17.2112C34.6641 17.1206 34.4287 17.0744 34.1911 17.0752C33.9535 17.076 33.7184 17.1239 33.4994 17.216C33.2804 17.3081 33.0817 17.4427 32.915 17.612L21.884 28.643Z" fill="#34C759"/>
</svg>
