<svg width="25" height="24" viewBox="0 0 25 24" fill="none" xmlns="http://www.w3.org/2000/svg">
<path d="M15.8134 14.98C15.9834 14.99 16.1633 15 16.3333 15C19.9233 15 22.8333 12.09 22.8333 8.5C22.8333 4.91 19.9233 2 16.3333 2C12.7433 2 9.83334 4.91 9.83334 8.5C9.83334 8.67 9.84333 8.84999 9.85333 9.01999M15.8134 14.98C15.5634 11.81 13.0233 9.26999 9.85333 9.01999M15.8134 14.98C15.8234 15.15 15.8333 15.33 15.8333 15.5C15.8333 19.09 12.9233 22 9.33334 22C5.74334 22 2.83334 19.09 2.83334 15.5C2.83334 11.91 5.74334 9 9.33334 9C9.50334 9 9.68333 9.00999 9.85333 9.01999M6.42334 2H3.83334C3.28334 2 2.83334 2.45 2.83334 3V5.59C2.83334 6.48 3.91333 6.92999 4.54333 6.29999L7.13333 3.70999C7.75333 3.07999 7.31334 2 6.42334 2ZM19.2433 22H21.8333C22.3833 22 22.8333 21.55 22.8333 21V18.41C22.8333 17.52 21.7533 17.07 21.1233 17.7L18.5333 20.29C17.9133 20.92 18.3533 22 19.2433 22Z" stroke="url(#paint0_linear_126_537)" stroke-width="1.5" stroke-linecap="round" stroke-linejoin="round"/>
<defs>
<linearGradient id="paint0_linear_126_537" x1="2.83334" y1="13.1364" x2="22.8426" y2="12.9405" gradientUnits="userSpaceOnUse">
<stop stop-color="#BBA473"/>
<stop offset="1" stop-color="#685A3D"/>
</linearGradient>
</defs>
</svg>
