<svg width="25" height="24" viewBox="0 0 25 24" fill="none" xmlns="http://www.w3.org/2000/svg">
<path d="M15.6466 14.98C15.8166 14.99 15.9966 15 16.1666 15C19.7566 15 22.6666 12.09 22.6666 8.5C22.6666 4.91 19.7566 2 16.1666 2C12.5766 2 9.66663 4.91 9.66663 8.5C9.66663 8.67 9.67661 8.84999 9.68661 9.01999M15.6466 14.98C15.3966 11.81 12.8566 9.26999 9.68661 9.01999M15.6466 14.98C15.6566 15.15 15.6666 15.33 15.6666 15.5C15.6666 19.09 12.7566 22 9.16663 22C5.57663 22 2.66663 19.09 2.66663 15.5C2.66663 11.91 5.57663 9 9.16663 9C9.33663 9 9.51661 9.00999 9.68661 9.01999M6.25662 2H3.66663C3.11663 2 2.66663 2.45 2.66663 3V5.59C2.66663 6.48 3.74662 6.92999 4.37662 6.29999L6.96661 3.70999C7.58661 3.07999 7.14662 2 6.25662 2ZM19.0766 22H21.6666C22.2166 22 22.6666 21.55 22.6666 21V18.41C22.6666 17.52 21.5866 17.07 20.9566 17.7L18.3666 20.29C17.7466 20.92 18.1866 22 19.0766 22Z" stroke="#8E8E93" stroke-width="1.5" stroke-linecap="round" stroke-linejoin="round"/>
</svg>
