<svg width="125" height="124" viewBox="0 0 125 124" fill="none" xmlns="http://www.w3.org/2000/svg">
<path d="M62.5 62C76.7674 62 88.3334 50.4341 88.3334 36.1667C88.3334 21.8994 76.7674 10.3334 62.5 10.3334C48.2327 10.3334 36.6667 21.8994 36.6667 36.1667C36.6667 50.4341 48.2327 62 62.5 62Z" stroke="#BBA473" stroke-width="4.75" stroke-linecap="round" stroke-linejoin="round"/>
<path d="M18.1183 113.667C18.1183 93.6717 38.01 77.5 62.5 77.5C67.46 77.5 72.265 78.1716 76.76 79.4116" stroke="#BBA473" stroke-width="4.75" stroke-linecap="round" stroke-linejoin="round"/>
<path d="M114.167 93C114.167 96.875 113.082 100.543 111.17 103.643C110.085 105.503 108.69 107.157 107.088 108.5C103.472 111.755 98.7183 113.667 93.5 113.667C85.9566 113.667 79.3949 109.637 75.8299 103.643C73.9182 100.543 72.8333 96.875 72.8333 93C72.8333 86.49 75.83 80.6517 80.5833 76.8801C84.1483 74.0384 88.6433 72.3334 93.5 72.3334C104.918 72.3334 114.167 81.5817 114.167 93Z" stroke="#BBA473" stroke-width="4.75" stroke-miterlimit="10" stroke-linecap="round" stroke-linejoin="round"/>
<path d="M85.44 93L90.555 98.1149L101.56 87.9368" stroke="#BBA473" stroke-width="4.75" stroke-linecap="round" stroke-linejoin="round"/>
</svg>
